<?xml version="1.0" encoding="utf-8"?>
<!-- Generator: Adobe Illustrator 24.0.3, SVG Export Plug-In . SVG Version: 6.00 Build 0)  -->
<svg version="1.1" id="Capa_1" xmlns="http://www.w3.org/2000/svg" xmlns:xlink="http://www.w3.org/1999/xlink" x="0px" y="0px"
	 viewBox="0 0 16 16" enable-background="new 0 0 16 16" xml:space="preserve">
<g>
	<g>
		<path id="_x30_2_6_" fill="#261300" d="M10.42,0H3.67c-1.1,0-2,0.9-2,2v12c0,1.1,0.9,2,2,2h8.67c1.1,0,2-0.9,2-2V3.92L10.42,0z"/>
		<g>
			<path id="_x30_2_5_" fill="#FF731E" d="M10.14,0.67l3.53,3.53V14c0,0.74-0.6,1.33-1.33,1.33H3.67c-0.74,0-1.33-0.6-1.33-1.33V2
				c0-0.74,0.6-1.33,1.33-1.33H10.14 M10.42,0H3.67c-1.1,0-2,0.9-2,2v12c0,1.1,0.9,2,2,2h8.67c1.1,0,2-0.9,2-2V3.92L10.42,0L10.42,0
				z"/>
			<path id="_x30_2_4_" fill="#FF731E" d="M10.21,2.02V0l4.12,4.12h-2.02C11.16,4.12,10.21,3.18,10.21,2.02z"/>
		</g>
	</g>
	<g>
		<path fill="#FF731E" d="M8.17,10.77H6.13l-0.39,1.16H4.5l2.1-5.65h1.08l2.11,5.65H8.56L8.17,10.77z M6.44,9.82h1.41L7.14,7.71
			L6.44,9.82z"/>
		<path fill="#FF731E" d="M10.24,6.65c0-0.17,0.06-0.31,0.17-0.42c0.11-0.11,0.27-0.16,0.46-0.16c0.19,0,0.34,0.05,0.46,0.16
			s0.17,0.25,0.17,0.42c0,0.17-0.06,0.31-0.17,0.42c-0.12,0.11-0.27,0.16-0.46,0.16s-0.34-0.05-0.46-0.16
			C10.3,6.96,10.24,6.82,10.24,6.65z M11.43,11.93h-1.13v-4.2h1.13V11.93z"/>
	</g>
</g>
</svg>
