<?xml version="1.0" encoding="utf-8"?>
<!-- Generator: Adobe Illustrator 24.0.3, SVG Export Plug-In . SVG Version: 6.00 Build 0)  -->
<svg version="1.1" id="Capa_1" xmlns="http://www.w3.org/2000/svg" xmlns:xlink="http://www.w3.org/1999/xlink" x="0px" y="0px"
	 viewBox="0 0 16 16" enable-background="new 0 0 16 16" xml:space="preserve">
<g>
	<path fill="#666666" d="M14.52,0.42H1.48C0.66,0.42,0,1.09,0,1.9V14.1c0,0.82,0.66,1.48,1.48,1.48h13.04
		c0.82,0,1.48-0.66,1.48-1.48V1.9C16,1.09,15.34,0.42,14.52,0.42z M15.01,14.1c0,0.27-0.22,0.49-0.49,0.49H1.48
		c-0.27,0-0.49-0.22-0.49-0.49V4.47h14.02L15.01,14.1L15.01,14.1L15.01,14.1z"/>
	<path fill="#3FA9F5" d="M2.44,11.04c0.39,0.09,0.74,0.33,0.95,0.67c0.21,0.34,0.27,0.76,0.17,1.15c-0.01,0.04,0,0.07,0.04,0.1
		l0.91,0.67c0.05,0.04,0.08,0.02,0.1,0c0.17-0.11,0.36-0.18,0.57-0.22c0.19-0.03,0.39-0.02,0.58,0.02c0.39,0.09,0.73,0.35,0.93,0.69
		c0.02,0.03,0.06,0.05,0.09,0.04L7.89,14c0.04-0.01,0.07-0.03,0.08-0.07c0.09-0.39,0.33-0.74,0.67-0.95
		c0.33-0.2,0.74-0.27,1.12-0.18c0-0.05,0-0.1,0.01-0.14c0.02-0.07,0.01-0.14-0.03-0.2c-0.04-0.06-0.09-0.1-0.16-0.11
		c-0.2-0.05-0.35-0.2-0.38-0.4l-0.08-0.53c-0.03-0.2,0.06-0.4,0.24-0.5c0.06-0.04,0.11-0.1,0.12-0.16c0.02-0.06,0-0.14-0.03-0.19
		c-0.11-0.17-0.1-0.39,0.02-0.56l0.32-0.43c0.08-0.11,0.19-0.18,0.32-0.2l0.09-0.01l0.11,0.02c0.08,0.02,0.15,0.01,0.2-0.03
		c0.06-0.04,0.1-0.1,0.12-0.16C10.65,9,10.8,8.86,10.98,8.82l-0.06-0.35c-0.01-0.04-0.04-0.07-0.07-0.08
		c-0.39-0.09-0.74-0.33-0.95-0.67C9.7,7.38,9.64,6.96,9.74,6.57c0.01-0.04,0-0.07-0.03-0.1L8.79,5.81c-0.05-0.04-0.08-0.02-0.1,0
		C8.35,6.02,7.93,6.09,7.54,6C7.15,5.91,6.82,5.65,6.61,5.31C6.59,5.28,6.56,5.26,6.52,5.26L5.4,5.44C5.37,5.44,5.34,5.47,5.33,5.51
		C5.24,5.9,5,6.25,4.65,6.46C4.31,6.67,3.89,6.73,3.5,6.62c-0.02-0.01-0.06-0.01-0.1,0.04L2.74,7.57c-0.02,0.03-0.02,0.07,0,0.1
		c0.22,0.34,0.29,0.75,0.19,1.15C2.84,9.21,2.58,9.55,2.24,9.76C2.2,9.77,2.19,9.81,2.19,9.85l0.18,1.12
		C2.37,11,2.4,11.03,2.44,11.04z M6.31,7.55c1.2-0.19,2.33,0.63,2.52,1.83c0.19,1.2-0.63,2.33-1.83,2.52
		c-1.2,0.19-2.33-0.63-2.51-1.83C4.29,8.86,5.11,7.73,6.31,7.55z"/>
	<path fill="#FF731E" d="M10.9,9.22c-0.04,0.19-0.16,0.35-0.32,0.45c-0.16,0.1-0.36,0.13-0.55,0.08c-0.01,0-0.03-0.01-0.05,0.02
		l-0.32,0.43c-0.01,0.01-0.01,0.03,0,0.05c0.1,0.16,0.14,0.36,0.09,0.54c-0.04,0.18-0.16,0.35-0.33,0.44
		c-0.02,0.01-0.02,0.03-0.02,0.04L9.5,11.8c0,0.02,0.02,0.03,0.03,0.04c0.19,0.04,0.35,0.16,0.45,0.32c0.1,0.16,0.13,0.36,0.08,0.55
		c0,0.02,0,0.04,0.02,0.05l0.43,0.32c0.03,0.02,0.04,0.01,0.05,0c0.08-0.05,0.17-0.09,0.27-0.1c0.09-0.01,0.18-0.01,0.27,0.01
		c0.19,0.04,0.35,0.16,0.44,0.33c0.01,0.01,0.03,0.02,0.04,0.02l0.53-0.08c0.02,0,0.03-0.02,0.04-0.03
		c0.04-0.19,0.16-0.35,0.32-0.45c0.16-0.1,0.36-0.13,0.55-0.08c0.01,0,0.03,0.01,0.05-0.02l0.31-0.43c0.01-0.01,0.01-0.03,0-0.05
		c-0.1-0.16-0.14-0.36-0.09-0.54c0.04-0.19,0.16-0.35,0.33-0.44c0.02-0.01,0.02-0.03,0.02-0.04l-0.08-0.53
		c0-0.02-0.02-0.03-0.03-0.04c-0.19-0.04-0.35-0.16-0.45-0.32C12.98,10.1,12.95,9.9,13,9.72c0.01-0.02,0-0.04-0.02-0.05l-0.43-0.32
		c-0.02-0.02-0.04-0.01-0.05,0c-0.16,0.1-0.36,0.14-0.54,0.09c-0.19-0.04-0.35-0.16-0.44-0.33C11.5,9.11,11.49,9.1,11.47,9.1
		l-0.53,0.08C10.92,9.19,10.91,9.2,10.9,9.22z M12.56,11.05c0.09,0.57-0.3,1.1-0.87,1.19c-0.57,0.09-1.1-0.3-1.19-0.87
		c-0.09-0.57,0.3-1.1,0.87-1.19C11.93,10.09,12.47,10.48,12.56,11.05z"/>
</g>
</svg>
