<?xml version="1.0" encoding="utf-8"?>
<!-- Generator: Adobe Illustrator 24.0.3, SVG Export Plug-In . SVG Version: 6.00 Build 0)  -->
<svg version="1.1" id="Capa_1" xmlns="http://www.w3.org/2000/svg" xmlns:xlink="http://www.w3.org/1999/xlink" x="0px" y="0px"
	 viewBox="0 0 16 16" enable-background="new 0 0 16 16" xml:space="preserve">
<g>
	<path fill="#3FA9F5" d="M10.5,11.41c1.09-0.8,1.73-2.06,1.73-3.41c0-2.33-1.9-4.23-4.23-4.23c-0.45,0-0.9,0.07-1.33,0.22
		c0.86,0.98,1.27,2.38,1.67,3.91l0,0c0,0,0.13,0.42,0.35,0.99c0.22,0.56,0.53,1.26,0.86,1.76c0.22,0.34,0.46,0.58,0.63,0.66l0,0
		C10.23,11.33,10.34,11.37,10.5,11.41z"/>
	<path fill="#7AC943" d="M3.77,8c0,1.36,0.65,2.63,1.75,3.42c0.26-1.08,0.91-2.07,1.89-4.06c-0.06-0.17-0.13-0.35-0.2-0.52
		C6.94,6.17,6.55,5.39,6.2,5.03C6.01,4.84,5.8,4.68,5.57,4.54l0,0C4.44,5.33,3.77,6.62,3.77,8z"/>
	<path fill="#7AC943" d="M11.68,12.85L11.68,12.85c-0.56-0.07-1.02-0.15-1.43-0.3c-2.52,1.24-5.57,0.21-6.81-2.31
		C2.43,8.18,2.92,5.7,4.65,4.18C4.36,4.11,4.06,4.07,3.77,4.07C2.28,4.09,0.7,4.91,0.05,7.14c-0.01,0.05-0.01,0.1-0.01,0.15l0,0.06
		c0,0.04-0.01,0.08-0.01,0.11L0.01,7.56c0,0.05,0,0.11-0.01,0.16l0,0.06C0,7.85,0,7.93,0,8c0,4.42,3.58,8,8,8h0
		c0.08,0,0.17,0,0.25,0l0.09,0l0.17-0.01l0.11-0.01l0.15-0.01c0.04,0,0.08-0.01,0.11-0.01c0.09-0.01,0.17-0.02,0.25-0.03
		c0.04-0.01,0.09-0.01,0.13-0.02l0.12-0.02l0.13-0.02c0.04-0.01,0.08-0.02,0.12-0.02l0.12-0.03l0.12-0.03
		c0.04-0.01,0.08-0.02,0.12-0.03l0.12-0.03l0.12-0.03l0.12-0.04l0.11-0.03c0.04-0.01,0.08-0.03,0.12-0.04l0.11-0.04l0.12-0.05
		l0.11-0.04l0.12-0.05l0.1-0.04l0.12-0.05l0.1-0.04l0.12-0.06l0.09-0.05c0.04-0.02,0.08-0.04,0.12-0.06l0.09-0.05l0.12-0.07
		L12,14.93c0.04-0.02,0.08-0.05,0.12-0.07l0.08-0.05l0.12-0.08l0.08-0.05l0.12-0.08l0.07-0.05c0.04-0.03,0.08-0.06,0.13-0.09
		l0.06-0.05l0.13-0.1l0.05-0.04c0.04-0.04,0.09-0.07,0.13-0.11l0.05-0.04c0.05-0.04,0.09-0.08,0.14-0.12l0.03-0.03
		c0.05-0.04,0.1-0.09,0.15-0.13l0.01-0.01l0.16-0.15l0.06-0.06c0.06-0.06,0.11-0.11,0.16-0.17l0.08-0.09
		c0.02-0.03,0.05-0.05,0.07-0.08l0.07-0.08l0.08-0.09l0.06-0.07l0.08-0.1l0.03-0.04c0.07-0.1,0.15-0.19,0.22-0.29v0
		c-0.78,0.2-1.54,0.29-2.18,0.29C12.12,12.89,11.89,12.88,11.68,12.85z"/>
	<path fill="#7AC943" d="M7.67,8.15C7.59,8.32,7.5,8.51,7.41,8.72C7.09,9.44,6.73,10.33,6.6,10.9c-0.05,0.2-0.08,0.45-0.08,0.73
		c0,0.11,0.01,0.23,0.02,0.34c0.9,0.33,1.88,0.34,2.79,0.04c-0.1-0.09-0.19-0.19-0.28-0.29C8.48,10.99,8.17,9.93,7.67,8.15
		L7.67,8.15z"/>
	<path fill="#3FA9F5" d="M8,0L8,0C7.85,0,7.7,0.01,7.55,0.01l-0.06,0L7.32,0.03L7.24,0.04c-0.05,0-0.11,0.01-0.16,0.02
		c-0.03,0-0.06,0.01-0.09,0.01c-0.05,0.01-0.1,0.01-0.16,0.02L6.74,0.1L6.59,0.13L6.49,0.14L6.34,0.17C6.26,0.19,6.18,0.21,6.1,0.23
		L6.01,0.25L5.86,0.29L5.78,0.32C5.7,0.34,5.62,0.36,5.54,0.39L5.39,0.44L5.32,0.46C5.27,0.48,5.22,0.5,5.16,0.52L5.1,0.55
		C5.04,0.57,4.99,0.59,4.94,0.61L4.88,0.63L4.71,0.71L4.69,0.72C4.35,0.87,4.02,1.05,3.7,1.26L3.68,1.27
		C3.62,1.31,3.57,1.34,3.52,1.38L3.48,1.4c-0.05,0.03-0.1,0.07-0.15,0.1L3.28,1.54l-0.14,0.1c-0.06,0.05-0.12,0.1-0.18,0.15
		L2.91,1.83C2.86,1.87,2.82,1.91,2.78,1.94L2.72,1.99L2.6,2.1L2.55,2.15C2.51,2.19,2.47,2.23,2.43,2.27L2.38,2.31L2.26,2.43
		L2.21,2.48C2.17,2.52,2.13,2.57,2.1,2.61C2.04,2.67,1.99,2.73,1.94,2.79L1.9,2.83L1.79,2.97L1.76,3C1.71,3.06,1.66,3.12,1.62,3.18
		L1.61,3.2L1.5,3.34C2.16,2.92,2.92,2.7,3.7,2.71c0.93,0,1.66,0.29,2.01,0.49c0.08,0.05,0.16,0.1,0.24,0.16
		c2.57-1.13,5.57,0.04,6.7,2.61C12.94,6.6,13.08,7.3,13.08,8c0,1.36-0.54,2.66-1.51,3.62c0.23,0.03,0.47,0.04,0.72,0.04
		c0.89,0,1.84-0.19,2.56-0.8c0.47-0.39,0.86-0.97,1.08-1.84C15.98,8.69,16,8.35,16,8C16,3.58,12.42,0,8,0z"/>
</g>
</svg>
