<?xml version="1.0" encoding="utf-8"?>
<!-- Generator: Adobe Illustrator 24.0.3, SVG Export Plug-In . SVG Version: 6.00 Build 0)  -->
<svg version="1.1" id="Capa_1" xmlns="http://www.w3.org/2000/svg" xmlns:xlink="http://www.w3.org/1999/xlink" x="0px" y="0px"
	 viewBox="0 0 16 16" enable-background="new 0 0 16 16" xml:space="preserve">
<g id="layer101">
	<path fill="#FF731E" d="M7.29,14.48c-1.12-0.11-2.03-0.4-2.48-0.76c-0.15-0.12-0.22-0.25-0.46-0.73c-0.34-0.7-0.47-0.96-1.45-2.6
		C2.48,9.7,2.06,8.97,1.95,8.78C1.85,8.59,1.75,8.43,1.73,8.43c-0.02,0-0.11,0.13-0.21,0.29c-0.45,0.76-0.49,1.57-0.11,2.33
		c0.18,0.36,0.69,0.87,1.07,1.07c0.27,0.14,0.38,0.18,0.79,0.28c0.22,0.05,0.22,0.14,0.02,0.2c-0.27,0.08-1.18,0.1-1.51,0.03
		c-0.87-0.19-1.52-0.83-1.73-1.7c-0.08-0.34-0.06-1.02,0.04-1.41C0.28,8.81,0.75,8.1,1.27,7.73l0.09-0.07L1.14,7.1
		C1.02,6.78,0.87,6.36,0.81,6.14C0.71,5.75,0.61,5,0.65,4.96C0.66,4.95,0.73,4.97,0.8,5.01c0.31,0.18,0.78,0.4,1.1,0.51
		c2.98,1.1,8.14,1.25,11.7,0.35c0.83-0.21,1.36-0.4,1.94-0.7c0.24-0.12,0.44-0.22,0.45-0.22c0.05,0-0.04,0.73-0.15,1.15
		c-0.28,1.1-0.7,1.96-2.11,4.33c-0.76,1.28-1.19,2.04-1.47,2.63c-0.16,0.33-0.26,0.49-0.39,0.61c-0.36,0.32-1.12,0.59-2.05,0.74
		C9.32,14.5,7.8,14.53,7.29,14.48z"/>
	<path fill="#FF731E" d="M6.92,5.4C4.04,5.25,1.77,4.68,0.97,3.92C0.58,3.54,0.54,3.25,0.85,2.89C0.99,2.73,1.4,2.44,1.59,2.37
		c0.08-0.03,0.08-0.02,0,0.07C1.37,2.67,1.34,2.96,1.51,3.21c0.66,0.97,4.21,1.66,7.8,1.5c2.37-0.1,4.19-0.44,5.21-0.98
		c0.7-0.37,0.9-0.73,0.62-1.16c-0.12-0.19-0.12-0.19-0.02-0.15c0.28,0.11,0.71,0.45,0.82,0.66c0.1,0.19,0.07,0.45-0.07,0.65
		c-0.14,0.21-0.31,0.35-0.66,0.54C13.71,5.1,10.21,5.58,6.92,5.4z"/>
	<path fill="#FF731E" d="M9.27,3.67c-0.46-0.1-0.6-0.22-0.58-0.5C8.69,3.07,8.73,3,8.8,2.95c0.1-0.08,0.1-0.08,0.4,0.07
		c0.63,0.3,1.46,0.29,1.76-0.02c0.22-0.24,0.01-0.54-0.46-0.67c-0.22-0.06-0.36-0.07-0.79-0.05C8.91,2.31,8.34,2.49,7.04,3.1
		c-0.99,0.47-1.16,0.52-1.7,0.54C4.38,3.68,3.83,3.36,3.78,2.75C3.74,2.19,4.19,1.9,5.19,1.86c0.53-0.02,0.73,0.01,0.86,0.16
		c0.07,0.08,0.07,0.09,0,0.14C5.99,2.2,5.83,2.22,5.42,2.22c-0.73,0-1,0.09-1,0.34c0,0.23,0.35,0.44,0.75,0.44
		c0.34,0,0.65-0.12,1.48-0.57c1.07-0.58,1.67-0.81,2.45-0.9c0.7-0.09,1.57,0.02,2.05,0.25c0.52,0.25,0.86,0.78,0.75,1.19
		c-0.09,0.33-0.44,0.6-0.94,0.72C10.63,3.75,9.62,3.75,9.27,3.67z"/>
</g>
</svg>
