<?xml version="1.0" encoding="utf-8"?>
<!-- Generator: Adobe Illustrator 24.0.3, SVG Export Plug-In . SVG Version: 6.00 Build 0)  -->
<svg version="1.1" id="Capa_1" xmlns="http://www.w3.org/2000/svg" xmlns:xlink="http://www.w3.org/1999/xlink" x="0px" y="0px"
	 viewBox="0 0 16 16" enable-background="new 0 0 16 16" xml:space="preserve">
<g>
	<path fill="#3FA9F5" d="M10.67,9.91c-0.7,1.4-2.15,2.37-3.83,2.37c-2.36,0-4.28-1.92-4.28-4.28c0-2.36,1.92-4.28,4.28-4.28
		c1.67,0,3.12,0.96,3.83,2.37l2.3-1.15C11.85,2.7,9.52,1.15,6.85,1.15C3.07,1.15,0,4.22,0,8c0,3.78,3.07,6.85,6.85,6.85
		c2.68,0,5-1.54,6.12-3.79L10.67,9.91z"/>
	<path fill="#FF731E" d="M9.91,8c0-0.47-0.38-0.86-0.86-0.86H8.2V6.29c0-0.47-0.38-0.86-0.86-0.86c-0.47,0-0.86,0.38-0.86,0.86v0.86
		H5.63C5.16,7.14,4.77,7.53,4.77,8s0.38,0.86,0.86,0.86h0.86v0.86c0,0.47,0.38,0.86,0.86,0.86c0.47,0,0.86-0.38,0.86-0.86V8.86h0.86
		C9.53,8.86,9.91,8.47,9.91,8z"/>
	<path fill="#FF731E" d="M15.14,7.14h-0.86V6.29c0-0.47-0.38-0.86-0.86-0.86s-0.86,0.38-0.86,0.86v0.86h-0.86
		c-0.47,0-0.86,0.38-0.86,0.86s0.38,0.86,0.86,0.86h0.86v0.86c0,0.47,0.38,0.86,0.86,0.86s0.86-0.38,0.86-0.86V8.86h0.86
		C15.62,8.86,16,8.47,16,8S15.62,7.14,15.14,7.14z"/>
</g>
</svg>
