<?xml version="1.0" encoding="utf-8"?>
<!-- Generator: Adobe Illustrator 24.0.3, SVG Export Plug-In . SVG Version: 6.00 Build 0)  -->
<svg version="1.1" id="Capa_1" xmlns="http://www.w3.org/2000/svg" xmlns:xlink="http://www.w3.org/1999/xlink" x="0px" y="0px"
	 viewBox="0 0 16 16" enable-background="new 0 0 16 16" xml:space="preserve">
<g>
	<path fill="#7AC943" d="M16,7V6h-1V5h-1v1h-2V5h-1v1h-1v1h1v2h-1v1h1v1h1v-1h2v1h1v-1h1V9h-1V7H16z M14,9h-2V7h2V9z"/>
	<path fill="#3FA9F5" d="M5.5,12C3.57,12,2,10.21,2,8s1.57-4,3.5-4c1.07,0,2.03,0.55,2.67,1.42l1.8-0.9C8.97,2.99,7.34,2,5.5,2
		C2.47,2,0,4.69,0,8c0,3.31,2.47,6,5.5,6c1.84,0,3.47-0.99,4.47-2.51l-1.8-0.9C7.53,11.45,6.57,12,5.5,12z"/>
</g>
</svg>
