<?xml version="1.0" encoding="utf-8"?>
<!-- Generator: Adobe Illustrator 24.0.3, SVG Export Plug-In . SVG Version: 6.00 Build 0)  -->
<svg version="1.1" id="Capa_1" xmlns="http://www.w3.org/2000/svg" xmlns:xlink="http://www.w3.org/1999/xlink" x="0px" y="0px"
	 viewBox="0 0 16 16" enable-background="new 0 0 16 16" xml:space="preserve">
<g>
	<polygon fill="#BDCCD4" points="11.43,4.57 9.14,4.57 9.14,6.1 9.9,6.1 9.9,6.86 11.43,6.86 	"/>
	<path fill="#3FA9F5" d="M9.9,9.9H8.38v1.52H9.9c0.85,0,1.52-0.68,1.52-1.52V8.38H9.9V9.9z"/>
	<path fill="#3FA9F5" d="M1.52,1.52H9.9v1.52h1.52V1.52C11.43,0.68,10.75,0,9.9,0H1.52C0.68,0,0,0.68,0,1.52V9.9
		c0,0.85,0.68,1.52,1.52,1.52h1.52V9.9H1.52V1.52z"/>
	<polygon fill="#BDCCD4" points="4.57,9.14 4.57,11.43 6.86,11.43 6.86,9.9 6.1,9.9 6.1,9.14 	"/>
	<path fill="#FF731E" d="M14.48,4.57h-1.52V6.1h1.52v8.38H6.1v-1.52H4.57v1.52C4.57,15.32,5.25,16,6.1,16h8.38
		c0.85,0,1.52-0.68,1.52-1.52V6.1C16,5.25,15.32,4.57,14.48,4.57z"/>
	<path fill="#FF731E" d="M7.62,4.57H6.1c-0.85,0-1.52,0.68-1.52,1.52v1.52H6.1V6.1h1.52V4.57z"/>
</g>
</svg>
