<?xml version="1.0" encoding="utf-8"?>
<!-- Generator: Adobe Illustrator 24.0.3, SVG Export Plug-In . SVG Version: 6.00 Build 0)  -->
<svg version="1.1" id="Capa_1" xmlns="http://www.w3.org/2000/svg" xmlns:xlink="http://www.w3.org/1999/xlink" x="0px" y="0px"
	 viewBox="0 0 16 16" enable-background="new 0 0 16 16" xml:space="preserve">
<g>
	<path fill="#3FA9F5" d="M13.5,7c0-1-0.33-1.67-1-2c-0.67,1-0.67,2,0,3c-0.33,0.33-0.83,0.5-1.5,0.5H0c0,3.33,1.67,5,5,5
		s6.17-1.67,8.5-5c1,0,1.83-0.5,2.5-1.5C15.17,6.67,14.33,6.67,13.5,7z"/>
	<rect x="5" y="5.5" fill="#7AC943" width="2" height="2"/>
	<rect x="2" y="5.5" fill="#7AC943" width="2" height="2"/>
	<rect x="5" y="2.5" fill="#7AC943" width="2" height="2"/>
	<rect x="8" y="5.5" fill="#7AC943" width="2" height="2"/>
	<circle cx="4.5" cy="11" r="0.5"/>
	<path fill="#F2F2F2" d="M4.5,10.43c-0.32,0-0.58,0.26-0.58,0.57s0.26,0.57,0.58,0.57S5.07,11.32,5.07,11S4.82,10.43,4.5,10.43z
		 M4.5,11.43c-0.23,0-0.43-0.19-0.43-0.43s0.19-0.43,0.43-0.43S4.93,10.77,4.93,11S4.73,11.43,4.5,11.43z"/>
	<path fill="#F2F2F2" d="M4,11.5l-3.07,0.38C1.75,12.96,3.11,13.5,5,13.5c0.32,0,0.64-0.02,0.95-0.05L4,11.5z"/>
</g>
</svg>
