<?xml version="1.0" encoding="utf-8"?>
<!-- Generator: Adobe Illustrator 24.0.3, SVG Export Plug-In . SVG Version: 6.00 Build 0)  -->
<svg version="1.1" id="Capa_1" xmlns="http://www.w3.org/2000/svg" xmlns:xlink="http://www.w3.org/1999/xlink" x="0px" y="0px"
	 viewBox="0 0 16 16" enable-background="new 0 0 16 16" xml:space="preserve">
<g>
	<rect x="7.56" y="4" fill="#FF7BAC" width="0.89" height="0.89"/>
	<rect x="1.78" y="11.11" fill="#7AC943" width="0.89" height="0.89"/>
	<rect x="13.33" y="11.11" fill="#3FA9F5" width="0.89" height="0.89"/>
	<path opacity="0.5" fill="#BDCCD4" d="M15.11,0H0.89C0.4,0,0,0.4,0,0.89v14.22C0,15.6,0.4,16,0.89,16h14.22
		C15.6,16,16,15.6,16,15.11V0.89C16,0.4,15.6,0,15.11,0z M15.11,12.44c0,0.25-0.2,0.44-0.44,0.44h-1.78c-0.25,0-0.44-0.2-0.44-0.44
		v-1.78c0-0.25,0.2-0.44,0.44-0.44h0.43C13.24,9,12.79,7.83,12.03,6.88c-0.69-0.87-1.63-1.5-2.69-1.8v0.26
		c0,0.25-0.2,0.44-0.44,0.44H7.11c-0.25,0-0.44-0.2-0.44-0.44V5.07C5.6,5.38,4.66,6.01,3.97,6.88C3.21,7.84,2.76,9,2.68,10.22h0.43
		c0.25,0,0.44,0.2,0.44,0.44v1.78c0,0.25-0.2,0.44-0.44,0.44H1.33c-0.25,0-0.44-0.2-0.44-0.44v-1.78c0-0.25,0.2-0.44,0.44-0.44h0.46
		c0.08-1.42,0.6-2.79,1.49-3.9c0.45-0.57,1-1.05,1.61-1.43H2.22c-0.25,0-0.44-0.2-0.44-0.44C1.78,4.2,1.98,4,2.22,4h4.44V3.56
		c0-0.25,0.2-0.44,0.44-0.44h1.78c0.25,0,0.44,0.2,0.44,0.44V4h4.44c0.25,0,0.44,0.2,0.44,0.44c0,0.25-0.2,0.44-0.44,0.44H11.1
		c0.62,0.38,1.16,0.87,1.61,1.43c0.89,1.12,1.41,2.48,1.49,3.9h0.46c0.25,0,0.44,0.2,0.44,0.44V12.44z"/>
</g>
</svg>
