<?xml version="1.0" encoding="utf-8"?>
<!-- Generator: Adobe Illustrator 24.0.3, SVG Export Plug-In . SVG Version: 6.00 Build 0)  -->
<svg version="1.1" id="Capa_1" xmlns="http://www.w3.org/2000/svg" xmlns:xlink="http://www.w3.org/1999/xlink" x="0px" y="0px"
	 viewBox="0 0 16 16" enable-background="new 0 0 16 16" xml:space="preserve">
<g>
	<path opacity="0.5" fill="#BDCCD4" d="M15.11,0H0.89C0.4,0,0,0.4,0,0.89v14.22C0,15.6,0.4,16,0.89,16h14.22
		C15.6,16,16,15.6,16,15.11V0.89C16,0.4,15.6,0,15.11,0z M13.55,4.43c0.27-0.14,0.6-0.04,0.74,0.23c0.18,0.34,0.33,0.69,0.45,1.05
		c0.1,0.29-0.06,0.6-0.34,0.69c-0.29,0.1-0.6-0.06-0.69-0.34c-0.1-0.31-0.23-0.6-0.38-0.89C13.18,4.9,13.28,4.57,13.55,4.43z
		 M8.84,0.91c0.38,0.04,0.76,0.12,1.12,0.23c0.29,0.08,0.46,0.39,0.38,0.68C10.25,2.1,9.95,2.27,9.66,2.18
		C9.35,2.1,9.03,2.03,8.71,1.99v0c-0.3-0.04-0.52-0.31-0.48-0.61C8.26,1.08,8.53,0.87,8.84,0.91z M5.45,1.32
		C5.81,1.18,6.18,1.08,6.55,1c0,0,0,0,0.01,0c0.3-0.06,0.59,0.13,0.64,0.43c0.06,0.3-0.13,0.59-0.43,0.64
		C6.46,2.14,6.15,2.23,5.84,2.34c-0.06,0.02-0.13,0.04-0.2,0.04c-0.23,0-0.43-0.14-0.51-0.35C5.03,1.74,5.17,1.43,5.45,1.32z
		 M2.65,3.26c0.25-0.29,0.53-0.55,0.82-0.79c0.23-0.19,0.58-0.16,0.77,0.08c0.19,0.23,0.16,0.58-0.08,0.77
		c-0.25,0.21-0.48,0.43-0.7,0.67C3.27,4.21,2.93,4.23,2.7,4.03c0,0,0,0,0,0C2.47,3.83,2.45,3.49,2.65,3.26z M1.07,6.28
		c0.09-0.37,0.21-0.74,0.36-1.09C1.55,4.91,1.87,4.78,2.15,4.9s0.41,0.44,0.29,0.72c-0.13,0.3-0.23,0.61-0.31,0.92c0,0,0,0,0,0
		c-0.07,0.29-0.37,0.47-0.66,0.4C1.18,6.87,1,6.57,1.07,6.28z M1.07,9.69C0.98,9.32,0.92,8.94,0.89,8.56c0,0,0-0.01,0-0.01
		C0.87,8.24,1.1,7.98,1.4,7.96c0.3-0.02,0.56,0.21,0.58,0.51c0.03,0.32,0.08,0.64,0.16,0.96c0.07,0.29-0.11,0.59-0.4,0.66
		C1.44,10.16,1.15,9.98,1.07,9.69z M3.44,12.75c-0.23,0.2-0.57,0.18-0.77-0.05c-0.25-0.29-0.48-0.59-0.69-0.91
		c0,0-0.01-0.01-0.01-0.01c-0.16-0.26-0.08-0.6,0.18-0.75c0.26-0.16,0.6-0.08,0.75,0.18c0.17,0.27,0.37,0.53,0.58,0.77
		C3.68,12.2,3.66,12.55,3.44,12.75z M6.17,14.32c-0.11,0.28-0.42,0.43-0.7,0.32c-0.36-0.14-0.7-0.3-1.04-0.49
		C4.17,14,4.08,13.66,4.23,13.4c0.15-0.26,0.49-0.35,0.75-0.2c0.28,0.16,0.57,0.3,0.88,0.42C6.14,13.72,6.28,14.04,6.17,14.32z
		 M6.35,10.72c-0.3,0-0.55-0.25-0.55-0.55V5.79c0-0.19,0.1-0.37,0.26-0.47c0.16-0.1,0.36-0.11,0.53-0.02l4.38,2.19
		c0.11,0.05,0.19,0.14,0.24,0.24c0.14,0.27,0.03,0.6-0.24,0.74l-4.38,2.19C6.52,10.7,6.43,10.72,6.35,10.72z M8.85,15.05
		c-0.29,0.03-0.57,0.05-0.86,0.05c-0.09,0-0.19,0-0.28-0.01c-0.3-0.01-0.54-0.27-0.53-0.57c0.01-0.3,0.27-0.54,0.57-0.53
		c0.32,0.01,0.65,0,0.97-0.04c0.3-0.04,0.57,0.18,0.61,0.48C9.37,14.74,9.15,15.01,8.85,15.05z M12.04,13.84
		c-0.31,0.22-0.65,0.41-0.99,0.57c0,0-0.01,0-0.01,0c-0.27,0.13-0.6,0.01-0.73-0.27c-0.13-0.27-0.01-0.6,0.27-0.73
		c0.29-0.14,0.57-0.3,0.84-0.49c0,0,0.01,0,0.01-0.01c0.25-0.17,0.59-0.11,0.76,0.15C12.35,13.33,12.29,13.67,12.04,13.84z
		 M12.16,3.62c-0.23-0.22-0.49-0.43-0.75-0.61v0c-0.25-0.17-0.31-0.51-0.14-0.76c0.17-0.25,0.51-0.31,0.76-0.14
		c0.31,0.22,0.61,0.46,0.89,0.72c0.21,0.21,0.22,0.54,0.02,0.76C12.72,3.81,12.38,3.83,12.16,3.62z M14.3,11.29
		c-0.18,0.34-0.38,0.66-0.61,0.97c0,0,0,0-0.01,0.01c-0.18,0.24-0.53,0.29-0.77,0.1c-0.24-0.18-0.29-0.53-0.1-0.77
		c0.19-0.26,0.37-0.53,0.52-0.82c0.14-0.27,0.47-0.37,0.74-0.23c0,0,0,0,0,0C14.33,10.69,14.44,11.02,14.3,11.29z M15.11,7.97
		C15.11,7.97,15.11,7.97,15.11,7.97c0,0.39-0.03,0.77-0.09,1.15c-0.05,0.3-0.33,0.5-0.63,0.45c-0.3-0.05-0.5-0.33-0.45-0.63
		c0.05-0.32,0.08-0.64,0.08-0.97V7.96c0-0.3,0.25-0.55,0.55-0.55C14.87,7.41,15.11,7.66,15.11,7.97L15.11,7.97z"/>
	<polygon fill="#3FA9F5" points="6.89,9.28 9.5,7.98 6.89,6.67 	"/>
</g>
</svg>
