<?xml version="1.0" encoding="utf-8"?>
<!-- Generator: Adobe Illustrator 24.0.3, SVG Export Plug-In . SVG Version: 6.00 Build 0)  -->
<svg version="1.1" id="Capa_1" xmlns="http://www.w3.org/2000/svg" xmlns:xlink="http://www.w3.org/1999/xlink" x="0px" y="0px"
	 viewBox="0 0 16 16" enable-background="new 0 0 16 16" xml:space="preserve">
<g>
	<path fill="#FF731E" d="M15.7,7.29L8.71,0.3c-0.4-0.4-1.05-0.4-1.45,0c0,0,0,0,0,0L5.8,1.75l1.84,1.84
		C8.28,3.38,8.98,3.72,9.2,4.36c0.09,0.26,0.09,0.54,0,0.8l1.77,1.77c0.64-0.22,1.34,0.12,1.56,0.76c0.22,0.64-0.12,1.34-0.76,1.56
		c-0.64,0.22-1.34-0.12-1.56-0.76c-0.1-0.28-0.09-0.59,0.03-0.86L8.58,5.96v4.35c0.61,0.3,0.85,1.03,0.55,1.64s-1.03,0.85-1.64,0.55
		c-0.61-0.3-0.85-1.03-0.55-1.64c0.13-0.27,0.36-0.48,0.63-0.59V5.89C6.94,5.63,6.64,4.91,6.9,4.29c0,0,0-0.01,0-0.01L5.09,2.47
		L0.3,7.26c-0.4,0.4-0.4,1.05,0,1.45c0,0,0,0,0,0l6.99,6.98c0.4,0.4,1.05,0.4,1.45,0c0,0,0,0,0,0l6.95-6.95
		C16.1,8.34,16.1,7.69,15.7,7.29C15.7,7.29,15.7,7.29,15.7,7.29"/>
	<path fill="#FFFFFF" d="M5.8,1.75l1.84,1.84C8.28,3.38,8.98,3.72,9.2,4.36c0.09,0.26,0.09,0.54,0,0.8l1.77,1.77
		c0.64-0.22,1.34,0.12,1.56,0.76c0.22,0.64-0.12,1.34-0.76,1.56c-0.64,0.22-1.34-0.12-1.56-0.76c-0.1-0.28-0.09-0.59,0.03-0.86
		L8.58,5.96v4.35c0.61,0.3,0.85,1.03,0.55,1.64s-1.03,0.85-1.64,0.55c-0.61-0.3-0.85-1.03-0.55-1.64c0.13-0.27,0.36-0.48,0.63-0.59
		V5.89C6.94,5.63,6.64,4.91,6.9,4.29c0,0,0-0.01,0-0.01L5.09,2.47"/>
</g>
</svg>
