<?xml version="1.0" encoding="utf-8"?>
<!-- Generator: Adobe Illustrator 24.0.3, SVG Export Plug-In . SVG Version: 6.00 Build 0)  -->
<svg version="1.1" id="Capa_1" xmlns="http://www.w3.org/2000/svg" xmlns:xlink="http://www.w3.org/1999/xlink" x="0px" y="0px"
	 viewBox="0 0 16 16" enable-background="new 0 0 16 16" xml:space="preserve">
<g>
	<rect y="9" fill="#F2F2F2" width="2" height="1"/>
	<rect y="7" fill="#F2F2F2" width="2" height="1"/>
	<rect y="5" fill="#F2F2F2" width="2" height="1"/>
	<path fill="#7AC943" d="M15.06,4h-4.12L10,4.94v6.12L10.94,12h4.12L16,11.06V4.94L15.06,4z M14.5,10.44l-0.06,0.06h-2.88
		l-0.06-0.06V5.56l0.06-0.06h2.88l0.06,0.06V10.44z"/>
	<polygon fill="#7AC943" points="3.94,4 3,4.94 3,11.06 3.94,12 8.06,12 9,11.06 9,7.5 6,7.5 6,9 7.5,9 7.5,10.44 7.44,10.5 
		4.56,10.5 4.5,10.44 4.5,5.56 4.56,5.5 7.44,5.5 7.5,5.56 7.5,6 9,6 9,4.94 8.06,4 	"/>
</g>
</svg>
