<?xml version="1.0" encoding="utf-8"?>
<!-- Generator: Adobe Illustrator 24.0.3, SVG Export Plug-In . SVG Version: 6.00 Build 0)  -->
<svg version="1.1" id="Capa_1" xmlns="http://www.w3.org/2000/svg" xmlns:xlink="http://www.w3.org/1999/xlink" x="0px" y="0px"
	 viewBox="0 0 16 16" enable-background="new 0 0 16 16" xml:space="preserve">
<g>
	<path fill="#FFFFFF" d="M3.05,15.65c0-0.01,0.08-0.48,0.17-1.03c0.09-0.56,0.28-1.69,0.43-2.51c0.14-0.82,0.27-1.61,0.3-1.74
		l0.04-0.24L2,8.16C0.91,7.09,0.01,6.2,0,6.18c-0.01-0.01,0.15-0.05,0.33-0.07c1.78-0.26,2.44-0.36,3.59-0.53
		c0.73-0.1,1.36-0.2,1.39-0.2c0.1-0.02,0.43-0.48,0.61-0.85C7.48,1.34,7.98,0.33,8,0.33c0.02-0.01,0.21,0.36,0.44,0.82l0.4,0.83
		l0.41,0c0.38,0,0.42,0.01,0.59,0.09c0.36,0.17,0.56,0.43,0.69,0.89c0.07,0.23,0.07,0.32,0.07,0.9c0,0.53-0.01,0.72-0.07,1.05
		c-0.04,0.22-0.06,0.42-0.04,0.43c0.01,0.01,0.43,0.08,0.92,0.15c0.81,0.12,1.38,0.2,3.81,0.56C15.64,6.11,16,6.16,16,6.17
		c0.01,0.01-0.61,0.62-2.92,2.9l-1.05,1.04l0.13,0.79c0.12,0.73,0.29,1.73,0.65,3.86c0.15,0.9,0.16,0.92,0.11,0.92
		c-0.02,0-0.42-0.21-0.91-0.47c-0.48-0.26-1.4-0.75-2.05-1.09L8.8,13.5l-0.5,0.14c-1.13,0.33-1.6,0.41-1.81,0.32
		c-0.11-0.04-0.11-0.04-0.71,0.28c-2.15,1.14-2.7,1.43-2.71,1.43C3.06,15.67,3.05,15.66,3.05,15.65z"/>
	<path fill="#3FA9F5" d="M3.05,15.65c0-0.01,0.08-0.48,0.17-1.03c0.09-0.56,0.28-1.69,0.43-2.51c0.14-0.82,0.27-1.61,0.3-1.74
		l0.04-0.24L2,8.16C0.91,7.09,0.01,6.2,0,6.18c-0.01-0.01,0.15-0.05,0.33-0.07c1.78-0.26,2.44-0.36,3.59-0.53
		c0.73-0.1,1.36-0.2,1.39-0.2c0.1-0.02,0.43-0.48,0.61-0.85C7.48,1.34,7.98,0.33,8,0.33c0.02-0.01,0.21,0.36,0.44,0.82l0.4,0.83
		l0.41,0c0.38,0,0.42,0.01,0.59,0.09c0.36,0.17,0.56,0.43,0.69,0.89c0.07,0.23,0.07,0.32,0.07,0.9c0,0.53-0.01,0.72-0.07,1.05
		c-0.04,0.22-0.06,0.42-0.04,0.43c0.01,0.01,0.43,0.08,0.92,0.15c0.81,0.12,1.38,0.2,3.81,0.56C15.64,6.11,16,6.16,16,6.17
		c0.01,0.01-0.61,0.62-2.92,2.9l-1.05,1.04l0.13,0.79c0.12,0.73,0.29,1.73,0.65,3.86c0.15,0.9,0.16,0.92,0.11,0.92
		c-0.02,0-0.42-0.21-0.91-0.47c-0.48-0.26-1.4-0.75-2.05-1.09L8.8,13.5l-0.5,0.14c-1.13,0.33-1.6,0.41-1.81,0.32
		c-0.11-0.04-0.11-0.04-0.71,0.28c-2.15,1.14-2.7,1.43-2.71,1.43C3.06,15.67,3.05,15.66,3.05,15.65z M7.45,13.21
		c2.14-0.54,3.21-1.11,3.59-1.9c0.37-0.75,0.3-1.58-0.25-3.25c-0.24-0.73-0.39-1.3-0.42-1.65c-0.03-0.24-0.05-0.31-0.1-0.36
		l-0.07-0.07l-0.12,0.14C9.96,6.26,9.84,6.52,9.67,7.05c-0.41,1.29-1.34,2.27-2.29,2.4C7.16,9.48,6.64,9.41,6.45,9.33
		C6.16,9.21,5.84,8.74,5.71,8.26c-0.07-0.27-0.07-0.79,0-1.12C5.94,6.13,6.6,5.07,7.67,3.99c0.67-0.67,1.09-0.96,1.41-0.96
		c0.31,0,0.43,0.26,0.39,0.88C9.43,4.74,9.16,5.68,8.74,6.5c-0.3,0.59-0.63,0.95-0.86,0.95c-0.18,0-0.29-0.21-0.29-0.57
		c0-0.31,0.07-0.59,0.24-0.97C8,5.51,8.04,5.37,8.04,5.08c0-0.28-0.09-0.5-0.22-0.56c-0.2-0.09-0.54,0.26-0.87,0.93
		C6.65,6.06,6.52,6.5,6.5,7.07C6.47,7.67,6.54,7.8,6.96,7.99C7.1,8.06,7.18,8.08,7.39,8.08c0.45,0,0.79-0.17,1.23-0.61
		c0.16-0.15,0.36-0.4,0.45-0.54c0.37-0.55,0.66-1.28,0.8-1.98c0.06-0.3,0.07-0.45,0.07-1.04c0-0.76-0.03-0.92-0.19-1.12
		c-0.17-0.2-0.52-0.24-0.89-0.1c-0.8,0.31-2.62,2.35-3.6,4.05C5.04,7.11,4.92,7.36,4.81,7.68C4.68,8.08,4.74,8.66,4.97,9.09
		c0.12,0.23,0.45,0.56,0.7,0.68c0.35,0.17,0.65,0.23,1.12,0.23c0.32,0,0.46-0.01,0.66-0.07c0.57-0.15,1.03-0.42,1.49-0.87
		C9.28,8.74,9.48,8.5,9.82,7.95c0.14-0.21,0.27-0.4,0.29-0.4c0.06-0.02,0.02,1.05-0.04,1.29C9.9,9.44,9.44,9.91,8.6,10.33
		c-0.47,0.23-0.92,0.41-2.06,0.79c-0.59,0.2-1.09,0.38-1.1,0.39c-0.09,0.09,0.71,1.3,1.15,1.74C6.74,13.4,6.71,13.4,7.45,13.21z"/>
</g>
</svg>
