<?xml version="1.0" encoding="utf-8"?>
<!-- Generator: Adobe Illustrator 24.0.3, SVG Export Plug-In . SVG Version: 6.00 Build 0)  -->
<svg version="1.1" id="Capa_1" xmlns="http://www.w3.org/2000/svg" xmlns:xlink="http://www.w3.org/1999/xlink" x="0px" y="0px"
	 viewBox="0 0 16 16" enable-background="new 0 0 16 16" xml:space="preserve">
<path fill-rule="evenodd" clip-rule="evenodd" fill="#FF731E" d="M5.68,6.05c-1.84,0-2.81,2.33-3.87,2.33
	c-0.65,0-0.75-0.45-0.75-0.61c0-0.22,0.16-0.47,0.38-0.47c0.39,0,0.28,0.51,0.28,0.51s0.53-0.37,0.18-0.87
	C1.61,6.54,1.01,6.53,0.6,6.83C0.19,7.13-0.1,7.59,0.03,8.36c0.07,0.37,0.31,0.9,0.82,1.21c0.51,0.3,1.29,0.38,1.56,0.38
	c1.47,0,2.9-1.09,4.44-1.55c0.39-0.12,0.74-0.14,1-0.15c0.06,0,0.68-0.03,1.28,0.15c1.54,0.46,2.97,1.55,4.44,1.55
	c0.27,0,1.05-0.07,1.56-0.38c0.51-0.3,0.76-0.84,0.82-1.21c0.14-0.76-0.16-1.22-0.57-1.53c-0.41-0.3-1-0.28-1.28,0.12
	c-0.35,0.5,0.18,0.87,0.18,0.87S14.18,7.3,14.57,7.3c0.22,0,0.38,0.25,0.38,0.47c0,0.16-0.1,0.61-0.75,0.61
	c-1.06,0-2.03-2.33-3.87-2.33c-1.72,0-2.06,0.79-2.31,1.15c0,0,0,0.01-0.01,0.01c0,0,0-0.01-0.01-0.01
	C7.74,6.84,7.39,6.05,5.68,6.05L5.68,6.05z"/>
</svg>
