<?xml version="1.0" encoding="utf-8"?>
<!-- Generator: Adobe Illustrator 24.0.3, SVG Export Plug-In . SVG Version: 6.00 Build 0)  -->
<svg version="1.1" id="Capa_1" xmlns="http://www.w3.org/2000/svg" xmlns:xlink="http://www.w3.org/1999/xlink" x="0px" y="0px"
	 viewBox="0 0 16 16" enable-background="new 0 0 16 16" xml:space="preserve">
<g>
	<polygon fill="#3FA9F5" points="4.3,11.4 3.18,11.4 3.18,8.63 1.12,8.63 1.12,11.4 0,11.4 0,4.6 1.12,4.6 1.12,7.31 3.18,7.31 
		3.18,4.6 4.3,4.6 	"/>
	<polygon fill="#3FA9F5" points="8.4,11.4 5.44,11.4 5.44,4.6 6.56,4.6 6.56,10.16 8.4,10.16 	"/>
	<path fill="#3FA9F5" d="M8.84,11.14V9.62c0.18,0.22,0.4,0.39,0.65,0.52c0.22,0.11,0.47,0.17,0.71,0.17c0.13,0,0.25-0.02,0.37-0.05
		c0.1-0.03,0.19-0.08,0.26-0.14c0.07-0.06,0.12-0.13,0.16-0.22c0.04-0.09,0.05-0.18,0.05-0.27c0-0.12-0.03-0.25-0.08-0.36
		c-0.06-0.11-0.14-0.21-0.23-0.29c-0.11-0.1-0.22-0.18-0.34-0.26c-0.13-0.08-0.27-0.17-0.43-0.25C9.61,8.28,9.31,8,9.1,7.66
		C8.9,7.31,8.8,6.91,8.81,6.5C8.8,6.19,8.86,5.88,8.97,5.59c0.09-0.24,0.24-0.45,0.43-0.63C9.57,4.8,9.78,4.67,10.01,4.6
		c0.24-0.08,0.49-0.12,0.75-0.11c0.23,0,0.46,0.02,0.69,0.06c0.19,0.04,0.38,0.11,0.55,0.2v1.42c-0.08-0.08-0.17-0.15-0.27-0.21
		c-0.1-0.06-0.2-0.11-0.3-0.15c-0.1-0.04-0.2-0.07-0.31-0.09c-0.1-0.02-0.19-0.03-0.29-0.03c-0.12,0-0.23,0.02-0.35,0.05
		c-0.1,0.03-0.19,0.08-0.26,0.14c-0.07,0.06-0.13,0.13-0.17,0.22c-0.04,0.09-0.06,0.19-0.06,0.28c0,0.11,0.02,0.21,0.07,0.31
		c0.05,0.1,0.11,0.18,0.19,0.26c0.09,0.09,0.19,0.17,0.29,0.24c0.11,0.08,0.25,0.16,0.39,0.24c0.19,0.11,0.37,0.23,0.53,0.36
		c0.16,0.12,0.29,0.27,0.41,0.43c0.12,0.17,0.2,0.36,0.26,0.55C12.2,9,12.23,9.24,12.23,9.49c0.01,0.33-0.04,0.65-0.16,0.96
		c-0.09,0.24-0.24,0.46-0.43,0.63c-0.18,0.16-0.4,0.28-0.63,0.34c-0.25,0.07-0.5,0.11-0.76,0.1c-0.26,0-0.52-0.03-0.78-0.09
		C9.25,11.37,9.03,11.27,8.84,11.14z"/>
	<polygon fill="#3FA9F5" points="16,11.4 13.04,11.4 13.04,4.6 14.16,4.6 14.16,10.16 16,10.16 	"/>
</g>
</svg>
