<?xml version="1.0" encoding="utf-8"?>
<!-- Generator: Adobe Illustrator 24.0.3, SVG Export Plug-In . SVG Version: 6.00 Build 0)  -->
<svg version="1.1" id="Capa_1" xmlns="http://www.w3.org/2000/svg" xmlns:xlink="http://www.w3.org/1999/xlink" x="0px" y="0px"
	 viewBox="0 0 16 16" enable-background="new 0 0 16 16" xml:space="preserve">
<g>
	<path fill="#FF731E" d="M2.23,14.38L0.95,0h14.09l-1.28,14.38L7.98,16"/>
	<polygon fill="#FFFFFF" points="8.02,2.94 7.98,2.94 3.58,2.94 3.61,3.41 4.05,8.28 7.98,8.28 8.02,8.28 10.17,8.28 9.95,10.56 
		7.98,11.09 6.02,10.56 5.89,9.16 4.95,9.16 4.14,9.16 4.36,11.94 7.98,12.94 8.02,12.94 8.02,12.93 11.61,11.94 11.64,11.62 
		12.05,6.97 12.11,6.5 11.61,6.5 8.02,6.5 7.98,6.5 5.67,6.5 5.52,4.69 7.98,4.69 8.02,4.69 12.27,4.69 12.3,4.31 12.39,3.41 
		12.42,2.94 	"/>
</g>
</svg>
