<?xml version="1.0" encoding="utf-8"?>
<!-- Generator: Adobe Illustrator 24.0.3, SVG Export Plug-In . SVG Version: 6.00 Build 0)  -->
<svg version="1.1" id="Capa_1" xmlns="http://www.w3.org/2000/svg" xmlns:xlink="http://www.w3.org/1999/xlink" x="0px" y="0px"
	 viewBox="0 0 16 16" enable-background="new 0 0 16 16" xml:space="preserve">
<g>
	<path fill="#3FA9F5" d="M14.4,2.77H1.6C0.72,2.77,0,3.48,0,4.37v7.27c0,0.88,0.72,1.6,1.6,1.6h12.8c0.88,0,1.6-0.72,1.6-1.6V4.37
		C16,3.48,15.28,2.77,14.4,2.77z M14.66,3.73c0.2,0,0.36,0.16,0.36,0.36s-0.16,0.36-0.36,0.36s-0.36-0.16-0.36-0.36
		S14.46,3.73,14.66,3.73z M13.36,3.73c0.2,0,0.36,0.16,0.36,0.36s-0.16,0.36-0.36,0.36s-0.36-0.16-0.36-0.36S13.16,3.73,13.36,3.73z
		 M12.11,3.73c0.2,0,0.36,0.16,0.36,0.36s-0.16,0.36-0.36,0.36c-0.2,0-0.36-0.16-0.36-0.36S11.91,3.73,12.11,3.73z M15.3,11.61
		c0,0.48-0.39,0.87-0.87,0.87H1.5c-0.48,0-0.87-0.39-0.87-0.87V5.07H15.3V11.61z"/>
	<g>
		<path fill="#7AC943" d="M3.55,10.05H2.97V8.85H1.85v1.19H1.28V7.26h0.57v1.13h1.12V7.26h0.57V10.05z"/>
		<path fill="#7AC943" d="M6.09,7.73H5.23v2.32H4.66V7.73H3.82V7.26h2.27V7.73z"/>
		<path fill="#7AC943" d="M8.54,7.73H7.69v2.32H7.11V7.73H6.27V7.26h2.27V7.73z"/>
		<path fill="#7AC943" d="M9.44,9.06v0.98H8.87V7.26h1.09c0.21,0,0.39,0.04,0.55,0.11c0.16,0.08,0.28,0.19,0.37,0.33
			C10.96,7.84,11,8,11,8.18c0,0.27-0.09,0.49-0.28,0.65s-0.45,0.24-0.78,0.24H9.44z M9.44,8.6h0.51c0.15,0,0.27-0.04,0.35-0.11
			c0.08-0.07,0.12-0.17,0.12-0.31c0-0.14-0.04-0.25-0.12-0.33c-0.08-0.08-0.19-0.13-0.33-0.13H9.44V8.6z"/>
		<path fill="#7AC943" d="M11.38,8.21c0-0.09,0.03-0.16,0.09-0.21c0.06-0.05,0.13-0.08,0.22-0.08c0.09,0,0.17,0.03,0.22,0.08
			c0.06,0.05,0.09,0.13,0.09,0.21c0,0.09-0.03,0.16-0.09,0.21C11.86,8.47,11.79,8.5,11.7,8.5c-0.09,0-0.17-0.03-0.22-0.08
			C11.41,8.36,11.38,8.29,11.38,8.21z M11.38,9.77c0-0.09,0.03-0.16,0.09-0.21s0.13-0.08,0.22-0.08c0.09,0,0.17,0.03,0.22,0.08
			c0.06,0.05,0.09,0.13,0.09,0.21c0,0.09-0.03,0.16-0.09,0.21s-0.13,0.08-0.23,0.08c-0.09,0-0.17-0.03-0.22-0.08
			S11.38,9.86,11.38,9.77z"/>
		<path fill="#7AC943" d="M12.64,10.28h-0.41l1.03-3.02h0.41L12.64,10.28z"/>
		<path fill="#7AC943" d="M13.63,10.28h-0.41l1.03-3.02h0.41L13.63,10.28z"/>
	</g>
</g>
</svg>
