<?xml version="1.0" encoding="utf-8"?>
<!-- Generator: Adobe Illustrator 24.0.3, SVG Export Plug-In . SVG Version: 6.00 Build 0)  -->
<svg version="1.1" id="Capa_1" xmlns="http://www.w3.org/2000/svg" xmlns:xlink="http://www.w3.org/1999/xlink" x="0px" y="0px"
	 viewBox="0 0 16 16" enable-background="new 0 0 16 16" xml:space="preserve">
<g>
	<path fill="#7AC943" d="M11.73,10.66c-0.41-0.57-0.61-1.21-0.61-1.91c0-0.63,0.19-1.23,0.55-1.79c0.13-0.2,0.32-0.41,0.62-0.69
		c-0.16-0.16-0.3-0.28-0.44-0.38c-0.64-0.44-1.33-0.58-2.55-0.18C8.73,5.91,8.35,5.99,8.07,5.99c-0.2,0-0.53-0.07-1.16-0.24
		C6.39,5.6,5.98,5.53,5.68,5.53c-0.74,0-1.33,0.3-1.81,0.92C3.36,7.11,3.1,7.97,3.1,9c0,1.13,0.36,2.33,1.06,3.56
		c0.67,1.14,1.32,1.72,1.92,1.72c0.14,0,0.4-0.04,0.85-0.22c0.43-0.18,0.87-0.28,1.23-0.28c0.39,0,0.82,0.09,1.29,0.28
		c0.55,0.2,0.81,0.22,0.89,0.22c0.49,0,1.03-0.43,1.6-1.29l0,0c0.33-0.48,0.58-0.96,0.75-1.41C12.36,11.38,12.03,11.07,11.73,10.66z
		"/>
	<path opacity="0.5" fill="#BDCCD4" d="M15.11,0H0.89C0.4,0,0,0.4,0,0.89v14.22C0,15.6,0.4,16,0.89,16h14.22
		C15.6,16,16,15.6,16,15.11V0.89C16,0.4,15.6,0,15.11,0z M8,4.17C8,3.36,8.22,2.63,8.66,2l0,0c0.52-0.75,1.25-1.11,2.23-1.11h0.42
		l0,0.42c0,1.01-0.24,1.73-0.82,2.39C9.8,4.49,8.97,4.59,8.42,4.59H8V4.17z M13.62,11.47c-0.19,0.64-0.52,1.31-0.98,1.98
		c-0.74,1.12-1.5,1.66-2.3,1.66c-0.29,0-0.69-0.09-1.19-0.27c-0.38-0.15-0.71-0.23-0.99-0.23c-0.25,0-0.58,0.08-0.91,0.22
		c-0.48,0.19-0.86,0.28-1.17,0.28c-0.94,0-1.8-0.7-2.65-2.14C2.66,11.61,2.26,10.28,2.26,9c0-1.22,0.32-2.25,0.95-3.06
		c0.64-0.82,1.47-1.24,2.47-1.24c0.38,0,0.85,0.08,1.45,0.25C7.77,5.12,8,5.15,8.07,5.15c0.18,0,0.5-0.08,0.96-0.23
		c1.48-0.49,2.43-0.3,3.29,0.28c0.28,0.19,0.55,0.44,0.87,0.81l0.27,0.31l-0.31,0.28c-0.42,0.37-0.66,0.62-0.79,0.81
		c-0.27,0.41-0.41,0.86-0.41,1.33c0,0.53,0.15,1,0.45,1.42c0.3,0.41,0.64,0.69,0.94,0.78l0.4,0.12L13.62,11.47z"/>
	<path fill="#FF731E" d="M10.45,1.76C9.98,1.84,9.63,2.07,9.35,2.48C9.09,2.85,8.93,3.26,8.86,3.71c0.41-0.07,0.72-0.25,0.99-0.56
		C10.21,2.74,10.4,2.32,10.45,1.76z"/>
</g>
</svg>
