<?xml version="1.0" encoding="utf-8"?>
<!-- Generator: Adobe Illustrator 24.0.3, SVG Export Plug-In . SVG Version: 6.00 Build 0)  -->
<svg version="1.1" id="Capa_1" xmlns="http://www.w3.org/2000/svg" xmlns:xlink="http://www.w3.org/1999/xlink" x="0px" y="0px"
	 viewBox="0 0 16 16" enable-background="new 0 0 16 16" xml:space="preserve">
<g>
	<rect x="1.57" y="4.18" fill="#7AC943" width="6.14" height="6.14"/>
	<rect x="8.29" y="3.04" fill="#FF731E" width="6.14" height="6.14"/>
	<rect x="5.22" y="6.82" fill="#926DCC" width="6.14" height="6.14"/>
	<path opacity="0.5" fill="#BDCCD4" d="M15.11,0H0.89C0.4,0,0,0.4,0,0.89v14.22C0,15.6,0.4,16,0.89,16h14.22
		C15.6,16,16,15.6,16,15.11V0.89C16,0.4,15.6,0,15.11,0z M15.11,3.04v6.14v0.68h-0.68h-2.38v3.09v0.68h-0.68H5.22H4.54v-0.68V11
		H1.57H0.89v-0.68V4.18V3.49h0.68h6.04V3.04V2.36h0.68h6.14h0.68V3.04z"/>
</g>
</svg>
