<?xml version="1.0" encoding="utf-8"?>
<!-- Generator: Adobe Illustrator 24.0.3, SVG Export Plug-In . SVG Version: 6.00 Build 0)  -->
<svg version="1.1" id="Capa_1" xmlns="http://www.w3.org/2000/svg" xmlns:xlink="http://www.w3.org/1999/xlink" x="0px" y="0px"
	 viewBox="0 0 16 16" enable-background="new 0 0 16 16" xml:space="preserve">
<path fill="#99B8C4" d="M12.15,12.79l0.51-0.51c2.38,0.08,2.42-0.01,2.52-0.25l0.65-1.59l0.05-0.15l-0.05-0.13
	c-0.03-0.07-0.11-0.28-1.6-1.69V7.72c1.71-1.65,1.68-1.74,1.58-1.98l-0.65-1.61c-0.1-0.24-0.13-0.34-2.5-0.27l-0.51-0.53
	c0.05-0.78,0.03-1.57-0.08-2.35l-0.07-0.15l-1.7-0.74c-0.25-0.11-0.34-0.16-1.94,1.59L7.64,1.67C5.99-0.09,5.91-0.06,5.67,0.04
	L4.09,0.68c-0.25,0.1-0.33,0.14-0.24,2.54L3.34,3.72C0.96,3.64,0.92,3.73,0.82,3.97L0.16,5.56L0.11,5.72l0.05,0.13
	c0.03,0.07,0.11,0.27,1.6,1.69v0.74c-1.71,1.65-1.68,1.74-1.58,1.98l0.65,1.61c0.1,0.25,0.13,0.33,2.5,0.27l0.51,0.53
	c-0.05,0.78-0.03,1.57,0.08,2.34l0.07,0.15l1.71,0.75c0.25,0.1,0.33,0.14,1.93-1.6l0.72,0.01c1.65,1.77,1.74,1.73,1.98,1.63
	l1.58-0.64C12.16,15.23,12.25,15.19,12.15,12.79z M5.38,9.06C4.82,7.6,5.55,5.96,7.01,5.4c1.46-0.56,3.1,0.17,3.66,1.63
	c0.55,1.44-0.15,3.06-1.58,3.64C7.61,11.25,5.96,10.53,5.38,9.06z"/>
</svg>
