<?xml version="1.0" encoding="utf-8"?>
<!-- Generator: Adobe Illustrator 24.0.3, SVG Export Plug-In . SVG Version: 6.00 Build 0)  -->
<svg version="1.1" id="Capa_1" xmlns="http://www.w3.org/2000/svg" xmlns:xlink="http://www.w3.org/1999/xlink" x="0px" y="0px"
	 viewBox="0 0 16 16" style="enable-background:new 0 0 16 16;" xml:space="preserve">
<style type="text/css">
	.st0{fill:#3FA9F5;stroke:#000000;stroke-width:0.2911;stroke-miterlimit:10;}
	.st1{stroke:#000000;stroke-width:0.2911;stroke-miterlimit:10;}
	.st2{fill:#926DCC;stroke:#000000;stroke-width:0.2911;stroke-miterlimit:10;}
</style>
<g>
	<g>
		<circle class="st0" cx="11.55" cy="4.45" r="2.71"/>
		<path class="st1" d="M11.55,7.18c-0.7,0-1.4-0.27-1.94-0.8c-1.07-1.07-1.07-2.8,0-3.87c1.07-1.07,2.8-1.07,3.87,0
			c1.07,1.07,1.07,2.8,0,3.87C12.96,6.92,12.26,7.18,11.55,7.18z M11.55,1.77c-0.69,0-1.37,0.26-1.89,0.78
			c-1.04,1.04-1.04,2.74,0,3.78c1.04,1.04,2.74,1.04,3.78,0c1.04-1.04,1.04-2.74,0-3.78C12.92,2.03,12.24,1.77,11.55,1.77z"/>
	</g>
	<g>
		<circle class="st2" cx="11.55" cy="11.55" r="2.71"/>
		<path class="st1" d="M11.55,14.29c-0.7,0-1.4-0.27-1.94-0.8c-1.07-1.07-1.07-2.8,0-3.87c1.07-1.07,2.8-1.07,3.87,0
			c1.07,1.07,1.07,2.8,0,3.87C12.96,14.02,12.26,14.29,11.55,14.29z M11.55,8.88c-0.69,0-1.37,0.26-1.89,0.78
			c-1.04,1.04-1.04,2.74,0,3.78c1.04,1.04,2.74,1.04,3.78,0c1.04-1.04,1.04-2.74,0-3.78C12.92,9.14,12.24,8.88,11.55,8.88z"/>
	</g>
	<g>
		<circle class="st0" cx="4.45" cy="11.55" r="2.71"/>
	</g>
	<g>
		<circle class="st2" cx="4.45" cy="4.45" r="2.71"/>
		<path class="st1" d="M4.45,7.18c-0.7,0-1.4-0.27-1.94-0.8c-1.07-1.07-1.07-2.8,0-3.87c1.07-1.07,2.8-1.07,3.87,0
			c1.07,1.07,1.07,2.8,0,3.87C5.85,6.92,5.15,7.18,4.45,7.18z M4.45,1.77c-0.69,0-1.37,0.26-1.89,0.78c-1.04,1.04-1.04,2.74,0,3.78
			c1.04,1.04,2.74,1.04,3.78,0c1.04-1.04,1.04-2.74,0-3.78C5.82,2.03,5.13,1.77,4.45,1.77z"/>
	</g>
	<g>
		<circle class="st2" cx="13.03" cy="8" r="2.71"/>
	</g>
	<g>
		<circle class="st0" cx="8" cy="13.03" r="2.71"/>
	</g>
	<g>
		<circle class="st0" cx="8" cy="2.97" r="2.71"/>
	</g>
	<g>
		<circle class="st2" cx="2.97" cy="8" r="2.71"/>
	</g>
	<g>
		<circle class="st0" cx="8" cy="8" r="2.71"/>
	</g>
</g>
</svg>
