<?xml version="1.0" encoding="utf-8"?>
<!-- Generator: Adobe Illustrator 24.0.3, SVG Export Plug-In . SVG Version: 6.00 Build 0)  -->
<svg version="1.1" id="Capa_1" xmlns="http://www.w3.org/2000/svg" xmlns:xlink="http://www.w3.org/1999/xlink" x="0px" y="0px"
	 viewBox="0 0 16 16" style="enable-background:new 0 0 16 16;" xml:space="preserve">
<style type="text/css">
	.st0{fill:#FF731E;stroke:#000000;stroke-width:0.2931;stroke-miterlimit:10;}
	.st1{stroke:#000000;stroke-width:0.2931;stroke-miterlimit:10;}
	.st2{fill:#926DCC;stroke:#000000;stroke-width:0.2931;stroke-miterlimit:10;}
</style>
<g>
	<g>
		<circle class="st0" cx="11.58" cy="4.42" r="2.73"/>
		<path class="st1" d="M11.58,7.18c-0.71,0-1.41-0.27-1.95-0.81c-1.07-1.07-1.07-2.82,0-3.9c1.07-1.07,2.82-1.07,3.9,0
			c1.07,1.07,1.07,2.82,0,3.9C12.99,6.91,12.28,7.18,11.58,7.18z M11.58,1.73c-0.69,0-1.38,0.26-1.9,0.79
			c-1.05,1.05-1.05,2.76,0,3.81c1.05,1.05,2.76,1.05,3.81,0c1.05-1.05,1.05-2.76,0-3.81C12.96,1.99,12.27,1.73,11.58,1.73z"/>
	</g>
	<g>
		<circle class="st2" cx="11.58" cy="11.58" r="2.73"/>
		<path class="st1" d="M11.58,14.33c-0.71,0-1.41-0.27-1.95-0.81c-1.07-1.07-1.07-2.82,0-3.9c1.07-1.07,2.82-1.07,3.9,0
			c1.07,1.07,1.07,2.82,0,3.9C12.99,14.06,12.28,14.33,11.58,14.33z M11.58,8.89c-0.69,0-1.38,0.26-1.9,0.79
			c-1.05,1.05-1.05,2.76,0,3.81c1.05,1.05,2.76,1.05,3.81,0c1.05-1.05,1.05-2.76,0-3.81C12.96,9.15,12.27,8.89,11.58,8.89z"/>
	</g>
	<g>
		<circle class="st0" cx="4.42" cy="11.58" r="2.73"/>
		<path class="st1" d="M4.42,14.33c-0.71,0-1.41-0.27-1.95-0.81c-1.07-1.07-1.07-2.82,0-3.9c1.07-1.07,2.82-1.07,3.9,0
			c1.07,1.07,1.07,2.82,0,3.9C5.83,14.06,5.13,14.33,4.42,14.33z M4.42,8.89c-0.69,0-1.38,0.26-1.9,0.79
			c-1.05,1.05-1.05,2.76,0,3.81c1.05,1.05,2.76,1.05,3.81,0c1.05-1.05,1.05-2.76,0-3.81C5.8,9.15,5.11,8.89,4.42,8.89z"/>
	</g>
	<g>
		<circle class="st2" cx="4.42" cy="4.42" r="2.73"/>
	</g>
	<g>
		<circle class="st2" cx="13.06" cy="8" r="2.73"/>
	</g>
	<g>
		<circle class="st0" cx="8" cy="13.06" r="2.73"/>
	</g>
	<g>
		<circle class="st0" cx="8" cy="2.94" r="2.73"/>
	</g>
	<g>
		<circle class="st2" cx="2.94" cy="8" r="2.73"/>
	</g>
	<g>
		<circle class="st0" cx="8" cy="8" r="2.73"/>
	</g>
</g>
</svg>
