<?xml version="1.0" encoding="utf-8"?>
<!-- Generator: Adobe Illustrator 24.0.3, SVG Export Plug-In . SVG Version: 6.00 Build 0)  -->
<svg version="1.1" id="Capa_1" xmlns="http://www.w3.org/2000/svg" xmlns:xlink="http://www.w3.org/1999/xlink" x="0px" y="0px"
	 viewBox="0 0 16 16" enable-background="new 0 0 16 16" xml:space="preserve">
<g>
	<circle fill="#00D8FF" cx="8" cy="7.99" r="1.43"/>
	<path fill="#00D8FF" d="M8,11.26c-1.72,0.04-3.43-0.19-5.07-0.69c-0.76-0.24-1.47-0.62-2.09-1.12C0.36,9.11,0.05,8.57,0,7.99
		c0-0.94,1.04-1.87,2.78-2.48C4.46,4.97,6.23,4.71,8,4.74c1.75-0.02,3.49,0.23,5.16,0.76c0.73,0.23,1.42,0.59,2.02,1.07
		c0.47,0.33,0.77,0.85,0.82,1.42c0,0.98-1.16,1.98-3.03,2.59C11.36,11.06,9.68,11.29,8,11.26z M8,5.42C6.31,5.4,4.62,5.65,3,6.16
		C1.4,6.71,0.68,7.48,0.68,7.98c0,0.53,0.77,1.36,2.46,1.94C4.72,10.4,6.36,10.62,8,10.58c1.61,0.03,3.21-0.19,4.76-0.65
		c1.76-0.58,2.56-1.42,2.56-1.95c-0.06-0.37-0.27-0.69-0.58-0.9c-0.54-0.42-1.15-0.74-1.81-0.95C11.34,5.64,9.67,5.4,8,5.42z"/>
	<path fill="#00D8FF" d="M4.75,15.11c-0.27,0.01-0.53-0.06-0.76-0.19c-0.82-0.47-1.1-1.83-0.76-3.64c0.38-1.73,1.03-3.39,1.94-4.91
		l0,0c0.85-1.53,1.94-2.91,3.23-4.09c0.57-0.52,1.22-0.93,1.93-1.22c0.52-0.24,1.12-0.24,1.64,0c0.85,0.49,1.13,1.99,0.74,3.92
		c-0.39,1.64-1.03,3.2-1.89,4.65C10,11.14,8.95,12.51,7.7,13.68c-0.59,0.54-1.27,0.96-2.01,1.25C5.39,15.05,5.07,15.11,4.75,15.11z
		 M5.77,6.71c-0.87,1.46-1.5,3.04-1.86,4.7c-0.32,1.67-0.01,2.67,0.43,2.92c0.46,0.26,1.57,0.01,2.91-1.16
		c1.19-1.13,2.2-2.44,2.99-3.88c0.83-1.38,1.44-2.88,1.82-4.44c0.37-1.81,0.05-2.93-0.41-3.19c-0.35-0.13-0.73-0.11-1.07,0.05
		C9.94,1.97,9.36,2.34,8.86,2.8C7.63,3.93,6.58,5.25,5.77,6.71L5.77,6.71z"/>
	<path fill="#00D8FF" d="M11.24,15.12c-0.77,0-1.76-0.47-2.78-1.35c-1.31-1.19-2.42-2.59-3.28-4.14l0,0
		c-0.9-1.5-1.55-3.13-1.93-4.84c-0.16-0.75-0.2-1.52-0.09-2.29c0.05-0.57,0.35-1.09,0.82-1.42C4.83,0.59,6.27,1.1,7.74,2.41
		C8.97,3.56,10,4.9,10.82,6.37c0.9,1.47,1.55,3.06,1.95,4.74c0.17,0.78,0.2,1.58,0.08,2.37c-0.06,0.59-0.37,1.12-0.85,1.46
		C11.77,15.06,11.51,15.12,11.24,15.12z M5.77,9.29c0.83,1.48,1.89,2.81,3.14,3.96c1.29,1.11,2.3,1.34,2.74,1.09
		c0.46-0.27,0.79-1.35,0.45-3.11c-0.38-1.6-1.01-3.12-1.87-4.52C9.45,5.3,8.46,4.02,7.29,2.91C5.9,1.69,4.78,1.41,4.32,1.68
		C4.03,1.91,3.86,2.25,3.83,2.63C3.74,3.3,3.77,3.99,3.92,4.66C4.29,6.29,4.91,7.86,5.77,9.29L5.77,9.29z"/>
</g>
</svg>
