<?xml version="1.0" encoding="utf-8"?>
<!-- Generator: Adobe Illustrator 24.0.3, SVG Export Plug-In . SVG Version: 6.00 Build 0)  -->
<svg version="1.1" id="Capa_1" xmlns="http://www.w3.org/2000/svg" xmlns:xlink="http://www.w3.org/1999/xlink" x="0px" y="0px"
	 viewBox="0 0 16 16" enable-background="new 0 0 16 16" xml:space="preserve">
<g>
	<path fill="#3FA9F5" d="M5.9,12.37c0,0-0.61,0.36,0.43,0.48c1.1,0.16,2.23,0.11,3.31-0.14c0.28,0.17,0.58,0.31,0.88,0.43
		C7.4,14.48,3.44,13.06,5.9,12.37"/>
	<path fill="#3FA9F5" d="M5.52,10.62c0,0-0.69,0.51,0.36,0.62c1.43,0.17,2.87,0.1,4.27-0.21c0.19,0.18,0.41,0.31,0.66,0.4
		C7.03,12.54,2.81,11.52,5.52,10.62"/>
	<path fill="#FF1D25" d="M8.74,7.65c0.41,0.5,0.34,1.24-0.15,1.65C8.57,9.31,8.56,9.33,8.54,9.34c0,0,1.96-1.01,1.06-2.28
		c-0.84-1.18-1.49-1.77,2-3.79C11.6,3.27,6.13,4.64,8.74,7.65"/>
	<path fill="#3FA9F5" d="M12.89,13.67c0,0,0.45,0.37-0.5,0.66c-1.81,0.55-7.52,0.71-9.11,0.02c-0.57-0.25,0.5-0.59,0.84-0.67
		c0.18-0.04,0.37-0.06,0.55-0.06c-0.63-0.45-4.1,0.88-1.76,1.26C9.29,15.92,14.54,14.42,12.89,13.67"/>
	<path fill="#3FA9F5" d="M6.19,8.81c0,0-2.91,0.69-1.03,0.94c1.28,0.1,2.57,0.09,3.85-0.04c1.2-0.1,2.41-0.32,2.41-0.32
		c-0.25,0.11-0.5,0.24-0.73,0.39C7.74,10.56,2.03,10.2,3.68,9.4C4.46,9.01,5.32,8.8,6.19,8.81"/>
	<path fill="#3FA9F5" d="M11.41,11.72c3-1.56,1.61-3.06,0.65-2.86c-0.12,0.02-0.23,0.05-0.34,0.09c0.06-0.09,0.15-0.16,0.26-0.2
		c1.92-0.67,3.39,1.99-0.62,3.04C11.38,11.78,11.4,11.75,11.41,11.72"/>
	<path fill="#FF1D25" d="M9.6,0c0,0,1.66,1.66-1.58,4.22c-2.6,2.05-0.59,3.22,0,4.56C6.51,7.41,5.39,6.21,6.14,5.08
		C7.24,3.44,10.27,2.64,9.6,0"/>
	<path fill="#3FA9F5" d="M6.49,15.95c2.88,0.18,7.31-0.1,7.41-1.47c0,0-0.2,0.51-2.38,0.93c-2.41,0.41-4.87,0.45-7.29,0.11
		C4.23,15.53,4.6,15.83,6.49,15.95"/>
</g>
</svg>
