<?xml version="1.0" encoding="utf-8"?>
<!-- Generator: Adobe Illustrator 24.0.3, SVG Export Plug-In . SVG Version: 6.00 Build 0)  -->
<svg version="1.1" id="Capa_1" xmlns="http://www.w3.org/2000/svg" xmlns:xlink="http://www.w3.org/1999/xlink" x="0px" y="0px"
	 viewBox="0 0 16 16" enable-background="new 0 0 16 16" xml:space="preserve">
<g>
	<path fill="#3FA9F5" d="M1.76,11.72l3.24-4.05c0.1-0.12,0.24-0.19,0.4-0.2H5.4c0.15,0,0.3,0.07,0.4,0.19l2.37,2.85l2.79-0.93
		c0.17-0.06,0.36-0.02,0.5,0.1l2.78,2.39V3.32H1.76V11.72z M10.08,5.4c0.86,0,1.56,0.7,1.56,1.56c0,0.86-0.7,1.56-1.56,1.56
		c-0.86,0-1.56-0.7-1.56-1.56C8.52,6.1,9.22,5.4,10.08,5.4z"/>
	<path fill="#FF731E" d="M10.08,7.48c0.29,0,0.52-0.23,0.52-0.52c0-0.29-0.23-0.52-0.52-0.52c-0.29,0-0.52,0.23-0.52,0.52
		C9.56,7.25,9.79,7.48,10.08,7.48z"/>
	<path fill="#7AC943" d="M8.16,11.62c-0.2,0.07-0.43,0-0.56-0.16L5.41,8.82l-3.09,3.86h11.04l-2.35-2.01L8.16,11.62z"/>
	<path opacity="0.5" fill="#BDCCD4" d="M15.19,1.56H0.81C0.36,1.56,0,1.92,0,2.37v11.26c0,0.45,0.36,0.81,0.81,0.81h14.38
		c0.45,0,0.81-0.36,0.81-0.81V2.37C16,1.92,15.64,1.56,15.19,1.56z M15.28,13.2c0,0.29-0.23,0.52-0.52,0.52H1.24
		c-0.29,0-0.52-0.23-0.52-0.52V2.8c0-0.29,0.23-0.52,0.52-0.52h13.53c0.29,0,0.52,0.23,0.52,0.52V13.2z"/>
</g>
</svg>
