<?xml version="1.0" encoding="utf-8"?>
<!-- Generator: Adobe Illustrator 24.0.3, SVG Export Plug-In . SVG Version: 6.00 Build 0)  -->
<svg version="1.1" id="Capa_1" xmlns="http://www.w3.org/2000/svg" xmlns:xlink="http://www.w3.org/1999/xlink" x="0px" y="0px"
	 viewBox="0 0 16 16" enable-background="new 0 0 16 16" xml:space="preserve">
<g>
	<path fill="#7AC943" d="M3.37,14.1c-1.5-0.42-2.25-1.39-2.25-2.91V9.95c0-0.88-0.37-1.32-1.11-1.32V7.34c0.73,0,1.1-0.41,1.11-1.24
		V4.77c0-0.77,0.19-1.39,0.56-1.87s0.94-0.82,1.69-1.03l0.35,1.01C3.4,2.99,3.16,3.19,3,3.48s-0.25,0.69-0.26,1.2V6
		c0,0.94-0.37,1.6-1.12,1.98c0.75,0.38,1.12,1.05,1.12,2v1.33c0.02,0.98,0.35,1.57,0.98,1.79L3.37,14.1z"/>
	<path fill="#3FA9F5" d="M5.23,14.14l-0.94-0.49l0.23-0.41c0.28-0.51,0.42-1.02,0.43-1.52v-1.4h1.53l-0.01,1.25
		c0,0.46-0.12,0.93-0.35,1.4C5.88,13.44,5.59,13.83,5.23,14.14z M4.6,5.84c0-0.29,0.1-0.52,0.29-0.7c0.19-0.18,0.44-0.27,0.73-0.27
		c0.3,0,0.54,0.09,0.73,0.27c0.19,0.18,0.29,0.41,0.29,0.7c0,0.28-0.1,0.51-0.29,0.69C6.17,6.71,5.92,6.8,5.62,6.8
		c-0.3,0-0.54-0.09-0.73-0.27C4.7,6.36,4.6,6.13,4.6,5.84z"/>
	<path fill="#FF731E" d="M8.55,12.63H7.21l3.35-9.89h1.34L8.55,12.63z"/>
	<path fill="#7AC943" d="M12.28,13.09c0.63-0.23,0.96-0.83,0.98-1.81V9.95c0-0.94,0.38-1.6,1.14-1.96c-0.76-0.37-1.14-1.03-1.14-2
		V4.68c-0.02-0.97-0.34-1.58-0.98-1.81l0.35-1.01c0.75,0.21,1.31,0.55,1.68,1.02c0.38,0.47,0.57,1.09,0.57,1.86v1.34
		C14.9,6.92,15.27,7.34,16,7.34v1.29c-0.74,0-1.11,0.44-1.11,1.31v1.36c-0.03,1.46-0.78,2.4-2.25,2.81L12.28,13.09z"/>
</g>
</svg>
