<?xml version="1.0" encoding="utf-8"?>
<!-- Generator: Adobe Illustrator 24.0.3, SVG Export Plug-In . SVG Version: 6.00 Build 0)  -->
<svg version="1.1" id="Capa_1" xmlns="http://www.w3.org/2000/svg" xmlns:xlink="http://www.w3.org/1999/xlink" x="0px" y="0px"
	 viewBox="0 0 16 16" enable-background="new 0 0 16 16" xml:space="preserve">
<g>
	<path fill="#7AC943" d="M5.08,15.96c-1.96-0.55-2.94-1.81-2.94-3.79v-1.62c0-1.15-0.48-1.72-1.45-1.72V7.14
		c0.95,0,1.43-0.54,1.45-1.62V3.78c0-1.01,0.24-1.82,0.73-2.44S4.1,0.28,5.08,0l0.46,1.31C5.12,1.47,4.81,1.73,4.6,2.11
		c-0.21,0.38-0.32,0.9-0.33,1.57v1.71c0,1.23-0.49,2.09-1.46,2.59c0.97,0.5,1.46,1.37,1.46,2.6v1.73c0.03,1.27,0.45,2.05,1.27,2.33
		L5.08,15.96z"/>
	<path fill="#3FA9F5" d="M7.51,16l-1.23-0.64l0.29-0.53c0.36-0.66,0.55-1.32,0.56-1.98v-1.83h1.99l-0.01,1.63
		c-0.01,0.6-0.16,1.21-0.46,1.83C8.36,15.09,7.97,15.6,7.51,16z M6.69,5.19c0-0.38,0.13-0.68,0.38-0.91s0.57-0.35,0.95-0.35
		c0.39,0,0.71,0.12,0.96,0.35c0.25,0.23,0.38,0.54,0.38,0.91c0,0.37-0.13,0.67-0.38,0.9S8.41,6.43,8.02,6.43
		c-0.39,0-0.7-0.12-0.95-0.35S6.69,5.56,6.69,5.19z"/>
	<path fill="#7AC943" d="M10.47,14.64c0.83-0.29,1.25-1.08,1.27-2.36v-1.73c0-1.23,0.5-2.08,1.49-2.56
		c-0.99-0.48-1.49-1.35-1.49-2.6v-1.7c-0.02-1.27-0.45-2.06-1.27-2.36L10.92,0c0.97,0.27,1.7,0.72,2.19,1.33
		c0.49,0.62,0.74,1.43,0.74,2.43v1.75c0.02,1.08,0.51,1.62,1.45,1.62v1.69c-0.97,0-1.45,0.57-1.45,1.7v1.77
		c-0.04,1.9-1.02,3.12-2.94,3.66L10.47,14.64z"/>
</g>
</svg>
