<?xml version="1.0" encoding="utf-8"?>
<!-- Generator: Adobe Illustrator 24.0.3, SVG Export Plug-In . SVG Version: 6.00 Build 0)  -->
<svg version="1.1" id="Capa_1" xmlns="http://www.w3.org/2000/svg" xmlns:xlink="http://www.w3.org/1999/xlink" x="0px" y="0px"
	 viewBox="0 0 16 16" enable-background="new 0 0 16 16" xml:space="preserve">
<g>
	<path fill="#3FA9F5" d="M3.72,16c-0.95,0-1.64-0.24-2.07-0.73c-0.43-0.48-0.65-1.35-0.65-2.59V10.5c0-1.12-0.33-1.67-0.99-1.67
		V7.15c0.66,0,0.99-0.58,0.99-1.74V3.39c0-1.25,0.21-2.13,0.64-2.63S2.76,0,3.72,0v1.7c-0.7,0-1.05,0.53-1.05,1.58v1.94
		c0,1.45-0.34,2.37-1.01,2.76v0.04c0.67,0.38,1.01,1.31,1.01,2.79v1.86c0,0.59,0.08,1.02,0.25,1.26c0.16,0.25,0.43,0.37,0.8,0.37V16
		z"/>
	<path fill="#3FA9F5" d="M16,8.83c-0.67,0-1,0.57-1,1.7v2.1c0,1.28-0.21,2.16-0.64,2.65C13.94,15.76,13.25,16,12.29,16v-1.7
		c0.37,0,0.63-0.12,0.8-0.37c0.17-0.25,0.25-0.66,0.25-1.25v-1.94c0-1.45,0.33-2.35,1-2.72V7.99c-0.67-0.38-1-1.33-1-2.85V3.28
		c0-1.05-0.35-1.58-1.05-1.58V0c0.95,0,1.64,0.25,2.07,0.76C14.79,1.26,15,2.13,15,3.35v2.08c0,1.15,0.33,1.72,1,1.72V8.83z"/>
	<circle fill="#7AC943" cx="8" cy="2.4" r="2"/>
	<polygon fill="#926DCC" points="10,10 6,6 10,6 	"/>
	<rect x="6" y="11.6" fill="#FF7BAC" width="4" height="4"/>
</g>
</svg>
