<?xml version="1.0" encoding="utf-8"?>
<!-- Generator: Adobe Illustrator 24.0.3, SVG Export Plug-In . SVG Version: 6.00 Build 0)  -->
<svg version="1.1" id="Capa_1" xmlns="http://www.w3.org/2000/svg" xmlns:xlink="http://www.w3.org/1999/xlink" x="0px" y="0px"
	 viewBox="0 0 16 16" enable-background="new 0 0 16 16" xml:space="preserve">
<g>
	<g>
		<g>
			<path fill="#FF731E" d="M3.91,12.1c-0.02-0.02-0.04-0.03-0.06-0.04c-0.64-0.62-1.26-0.84-1.83-0.64
				C0.51,11.93,0.05,15.25,0,15.62c-0.01,0.1,0.04,0.19,0.11,0.26C0.17,15.96,0.29,16,0.39,16c0.38-0.05,3.69-0.5,4.21-2.02
				C4.8,13.38,4.57,12.75,3.91,12.1z"/>
		</g>
	</g>
	<g>
		<g>
			<path fill="#3FA9F5" d="M15.67,0C11.7,0,8.02,3.24,5.6,6C0.39,6.05,0,10.93,0,10.98c-0.01,0.11,0.04,0.22,0.13,0.29
				c0.06,0.04,0.13,0.07,0.2,0.07c0.04,0,0.08-0.01,0.12-0.02l2.47-0.92l2.7,2.7l-0.92,2.47c-0.04,0.11-0.02,0.23,0.04,0.32
				C4.8,15.95,4.89,16,5,16c0.01,0,0.01,0,0.02,0c0.05,0,4.93-0.39,4.97-5.6c2.76-2.42,6-6.1,6-10.07C16,0.15,15.85,0,15.67,0z
				 M10.67,7.33c-1.1,0-2-0.9-2-2s0.9-2,2-2s2,0.9,2,2S11.77,7.33,10.67,7.33z"/>
		</g>
	</g>
	<g>
		<g>
			<circle fill="#0071BC" cx="10.67" cy="5.33" r="1.33"/>
		</g>
	</g>
</g>
</svg>
