<?xml version="1.0" encoding="utf-8"?>
<!-- Generator: Adobe Illustrator 24.0.3, SVG Export Plug-In . SVG Version: 6.00 Build 0)  -->
<svg version="1.1" id="Capa_1" xmlns="http://www.w3.org/2000/svg" xmlns:xlink="http://www.w3.org/1999/xlink" x="0px" y="0px"
	 viewBox="0 0 16 16" enable-background="new 0 0 16 16" xml:space="preserve">
<g>
	<g>
		<path fill="#926DCC" d="M15.18,10.18c0,0.75-0.61,1.37-1.37,1.37H2.31c-0.75,0-1.37-0.61-1.37-1.37V5.82
			c0-0.75,0.61-1.37,1.37-1.37h11.5c0.75,0,1.37,0.61,1.37,1.37V10.18z"/>
	</g>
	<path fill="#FFFFFF" d="M12.77,7.91c0.52,0.11,0.89,0.55,0.9,1.08c0.01,0.31-0.13,0.61-0.37,0.8c-0.31,0.22-0.68,0.34-1.06,0.32
		c-0.45-0.01-0.89-0.13-1.28-0.35c0.01-0.13,0.04-0.26,0.09-0.38c0.05-0.12,0.11-0.23,0.2-0.33c0.29,0.17,0.61,0.26,0.94,0.28
		c0.1,0.01,0.2-0.02,0.29-0.06c0.06-0.03,0.1-0.1,0.1-0.17c0-0.13-0.1-0.24-0.31-0.3L11.9,8.65c-0.56-0.21-0.85-0.54-0.85-1.01
		c-0.01-0.31,0.12-0.61,0.36-0.81c0.27-0.23,0.61-0.37,0.96-0.37c0.22,0,0.44,0.03,0.66,0.08c0.21,0.06,0.41,0.16,0.59,0.27
		c0.01,0.14-0.02,0.28-0.07,0.41c-0.04,0.12-0.12,0.24-0.22,0.32c-0.3-0.15-0.62-0.24-0.95-0.25c-0.07-0.01-0.15,0.02-0.21,0.06
		c-0.05,0.04-0.07,0.09-0.07,0.15c0,0.11,0.09,0.19,0.26,0.25L12.77,7.91L12.77,7.91z"/>
	<path fill="#FFFFFF" d="M9.77,7.91c0.52,0.11,0.89,0.55,0.9,1.08c0.01,0.31-0.13,0.61-0.37,0.8c-0.31,0.22-0.68,0.34-1.06,0.32
		C8.79,10.1,8.34,9.98,7.95,9.75c0.01-0.13,0.04-0.26,0.09-0.38c0.05-0.12,0.11-0.23,0.2-0.33c0.29,0.17,0.61,0.26,0.94,0.28
		c0.1,0.01,0.2-0.02,0.29-0.06c0.06-0.03,0.1-0.1,0.1-0.17c0-0.13-0.1-0.24-0.31-0.3L8.9,8.65C8.33,8.44,8.05,8.1,8.05,7.64
		C8.04,7.33,8.17,7.03,8.41,6.83c0.26-0.23,0.6-0.37,0.96-0.37c0.22,0,0.44,0.03,0.66,0.08c0.21,0.06,0.41,0.16,0.59,0.27
		c0.01,0.14-0.02,0.28-0.07,0.41c-0.04,0.12-0.12,0.24-0.22,0.32C10.02,7.4,9.7,7.31,9.37,7.29C9.3,7.28,9.22,7.31,9.16,7.35
		C9.12,7.39,9.09,7.45,9.09,7.5c0,0.11,0.09,0.19,0.26,0.25C9.35,7.76,9.77,7.91,9.77,7.91z"/>
	<path fill="#FFFFFF" d="M7.58,7.96c0-0.19-0.03-0.39-0.1-0.57C7.42,7.22,7.32,7.06,7.2,6.93c-0.13-0.13-0.28-0.23-0.44-0.3
		c-0.18-0.1-0.38-0.16-0.59-0.18C5.93,6.48,5.7,6.55,5.5,6.67C5.31,6.75,5.15,6.88,5.02,7.03C4.89,7.2,4.8,7.39,4.74,7.59
		C4.68,7.81,4.65,8.05,4.65,8.28c0,0.24,0.02,0.48,0.07,0.72c0.04,0.21,0.13,0.4,0.25,0.57C5.1,9.74,5.26,9.86,5.45,9.95
		c0.22,0.1,0.47,0.16,0.71,0.16C6.64,10.11,7.1,9.97,7.49,9.7C7.47,9.47,7.37,9.25,7.21,9.08C7.05,9.14,6.89,9.19,6.72,9.23
		C6.6,9.26,6.47,9.27,6.35,9.28C6.18,9.29,6.01,9.23,5.88,9.11c-0.1-0.12-0.16-0.28-0.15-0.44h1.76C7.55,8.44,7.58,8.2,7.58,7.96z
		 M5.72,8c0-0.2,0.04-0.39,0.12-0.57c0.07-0.1,0.19-0.16,0.32-0.15C6.3,7.27,6.42,7.33,6.5,7.44c0.08,0.15,0.12,0.32,0.11,0.49V8
		L5.72,8L5.72,8z"/>
	<path fill="#F6F6F6" stroke="#000000" stroke-width="0.1428" stroke-miterlimit="10" d="M15.53,8.45c-0.2,0.18-0.32,0.45-0.3,0.72
		v1.17c0.03,0.34-0.12,0.68-0.39,0.89c-0.27,0.2-0.6,0.31-0.95,0.31h-0.21v-0.59c0.13-0.03,0.25-0.1,0.34-0.19
		c0.16-0.16,0.25-0.37,0.24-0.6V9.23c-0.02-0.26,0.03-0.52,0.15-0.76c0.18-0.22,0.41-0.39,0.69-0.48c-0.33-0.13-0.59-0.37-0.76-0.67
		c-0.07-0.21-0.1-0.44-0.08-0.67V5.78c0.01-0.22-0.06-0.44-0.21-0.6c-0.1-0.1-0.23-0.16-0.37-0.18V4.45c0.25,0,0.38,0,0.53,0
		c0.22,0.02,0.42,0.1,0.58,0.25c0.18,0.15,0.32,0.35,0.38,0.58c0.04,0.13,0.05,0.26,0.05,0.4v1c-0.02,0.29,0.09,0.58,0.29,0.79
		C15.65,7.61,15.82,7.7,16,7.75V8.2C15.83,8.25,15.67,8.33,15.53,8.45L15.53,8.45z"/>
	<path fill="#F6F6F6" stroke="#000000" stroke-width="0.1428" stroke-miterlimit="10" d="M2.05,4.45H1.86
		c-0.22,0.01-0.42,0.1-0.58,0.25C1.08,4.85,0.95,5.05,0.89,5.28c-0.02,0.13-0.03,0.27-0.02,0.4v1c0.01,0.3-0.1,0.58-0.31,0.79
		C0.39,7.61,0.2,7.7,0,7.75V8.2c0.2,0.04,0.38,0.13,0.54,0.24c0.21,0.18,0.33,0.44,0.33,0.72v1.17c-0.04,0.34,0.1,0.67,0.36,0.89
		c0.27,0.2,0.6,0.31,0.95,0.31h0.24v-0.59c-0.14-0.03-0.26-0.1-0.37-0.19c-0.15-0.16-0.23-0.38-0.21-0.6V9.23
		C1.85,8.96,1.79,8.7,1.67,8.47C1.49,8.25,1.25,8.08,0.98,7.99c0.33-0.13,0.59-0.36,0.76-0.67c0.08-0.21,0.12-0.44,0.1-0.67V5.78
		c-0.02-0.22,0.04-0.43,0.18-0.6c0.1-0.08,0.21-0.13,0.33-0.15H2.6V4.45H2.05z"/>
	<path fill="#FFFFFF" d="M4.31,9.21H4.12c-0.2,0-0.27-0.1-0.27-0.31V5.03C3.86,4.86,3.81,4.68,3.7,4.54
		C3.61,4.45,3.46,4.45,3.25,4.45H2.84H2.79v4.63c-0.02,0.25,0.05,0.5,0.2,0.71c0.17,0.17,0.41,0.25,0.65,0.22
		c0.24,0,0.49-0.03,0.73-0.07c0.02-0.1,0.02-0.19,0.02-0.29C4.39,9.51,4.36,9.35,4.31,9.21L4.31,9.21z"/>
</g>
</svg>
