<?xml version="1.0" encoding="utf-8"?>
<!-- Generator: Adobe Illustrator 24.0.3, SVG Export Plug-In . SVG Version: 6.00 Build 0)  -->
<svg version="1.1" id="Capa_1" xmlns="http://www.w3.org/2000/svg" xmlns:xlink="http://www.w3.org/1999/xlink" x="0px" y="0px"
	 viewBox="0 0 16 16" enable-background="new 0 0 16 16" xml:space="preserve">
<g>
	<path id="_x30_2_30_" fill="#CCCCCC" d="M10.42,0H3.67c-1.1,0-2,0.9-2,2v12c0,1.1,0.9,2,2,2h8.67c1.1,0,2-0.9,2-2V3.92L10.42,0z"/>
	<g>
		<path id="_x30_2_29_" fill="#4D4D4D" d="M10.14,0.67l3.53,3.53V14c0,0.74-0.6,1.33-1.33,1.33H3.67c-0.74,0-1.33-0.6-1.33-1.33V2
			c0-0.74,0.6-1.33,1.33-1.33H10.14 M10.42,0H3.67c-1.1,0-2,0.9-2,2v12c0,1.1,0.9,2,2,2h8.67c1.1,0,2-0.9,2-2V3.92L10.42,0L10.42,0z
			"/>
		<path id="_x30_2_28_" fill="#4D4D4D" d="M10.21,2.02V0l4.12,4.12h-2.02C11.16,4.12,10.21,3.18,10.21,2.02z"/>
	</g>
	<g>
		<path fill="#4D4D4D" d="M11.5,7.11c0-1.93-1.57-3.5-3.5-3.5s-3.5,1.57-3.5,3.5c0,1.32,0.73,2.46,1.8,3.06V14L8,12.3L9.7,14v-3.83
			C10.77,9.57,11.5,8.42,11.5,7.11z M8,9.65c-1.41,0-2.55-1.14-2.55-2.55S6.59,4.56,8,4.56s2.55,1.14,2.55,2.55S9.41,9.65,8,9.65z"
			/>
		<circle fill="#7AC943" cx="8" cy="7.11" r="1.63"/>
	</g>
</g>
</svg>
