<?xml version="1.0" encoding="utf-8"?>
<!-- Generator: Adobe Illustrator 24.0.3, SVG Export Plug-In . SVG Version: 6.00 Build 0)  -->
<svg version="1.1" id="Capa_1" xmlns="http://www.w3.org/2000/svg" xmlns:xlink="http://www.w3.org/1999/xlink" x="0px" y="0px"
	 viewBox="0 0 16 16" enable-background="new 0 0 16 16" xml:space="preserve">
<g>
	<path fill="#FFFFFF" d="M8.28,16l-0.01-0.18c0.23-0.01,0.46-0.03,0.68-0.05l0.02,0.18C8.75,15.97,8.51,15.99,8.28,16z M7.59,15.99
		c-0.23-0.01-0.47-0.03-0.69-0.07l0.03-0.18c0.22,0.03,0.45,0.05,0.68,0.07L7.59,15.99z M9.67,15.83l-0.04-0.18
		c0.22-0.05,0.44-0.11,0.66-0.17l0.05,0.18C10.12,15.72,9.89,15.78,9.67,15.83z M6.2,15.8c-0.23-0.05-0.45-0.11-0.67-0.19l0.06-0.17
		c0.22,0.07,0.44,0.13,0.66,0.18L6.2,15.8z M11,15.42l-0.07-0.17c0.21-0.08,0.42-0.18,0.62-0.28h0l0.08,0.16l0,0
		C11.43,15.23,11.21,15.33,11,15.42L11,15.42z M4.88,15.37c-0.21-0.09-0.43-0.19-0.63-0.3l0.09-0.16c0.2,0.11,0.41,0.2,0.62,0.29
		L4.88,15.37z M12.24,14.78l-0.1-0.16c0.19-0.12,0.38-0.25,0.56-0.39l0.11,0.15C12.63,14.53,12.44,14.66,12.24,14.78L12.24,14.78z
		 M3.64,14.71c-0.19-0.13-0.39-0.26-0.57-0.4l0.11-0.14c0.18,0.14,0.37,0.27,0.56,0.39L3.64,14.71z M13.36,13.94l-0.12-0.14
		c0.17-0.15,0.33-0.31,0.49-0.48l0.13,0.13C13.69,13.62,13.53,13.79,13.36,13.94L13.36,13.94z M2.54,13.86
		c-0.17-0.16-0.33-0.33-0.49-0.5l0.14-0.12c0.15,0.17,0.31,0.33,0.48,0.49L2.54,13.86z M14.31,12.92l-0.14-0.11
		c0.14-0.18,0.27-0.37,0.4-0.56l0.15,0.1C14.58,12.55,14.45,12.74,14.31,12.92z M1.61,12.82c-0.14-0.19-0.27-0.38-0.4-0.58l0.16-0.1
		c0.12,0.19,0.25,0.38,0.39,0.56L1.61,12.82z M15.06,11.75l-0.16-0.09c0.11-0.2,0.2-0.41,0.29-0.62l0.17,0.07
		C15.27,11.34,15.17,11.55,15.06,11.75L15.06,11.75z M0.87,11.64L0.87,11.64c-0.11-0.21-0.2-0.42-0.29-0.64l0.17-0.07
		c0.08,0.21,0.18,0.41,0.28,0.61l0,0.01L0.87,11.64z M15.61,10.47l-0.17-0.06c0.07-0.22,0.13-0.44,0.18-0.66l0.18,0.04
		C15.74,10.02,15.68,10.25,15.61,10.47z M0.35,10.35C0.28,10.12,0.22,9.9,0.17,9.67l0.18-0.04c0.05,0.22,0.11,0.44,0.17,0.66
		L0.35,10.35z M15.92,9.11l-0.18-0.03c0.03-0.22,0.05-0.45,0.07-0.68l0.18,0.01C15.98,8.65,15.95,8.88,15.92,9.11z M0.06,8.98
		C0.03,8.75,0.01,8.52,0,8.29l0.18-0.01c0.01,0.23,0.03,0.46,0.05,0.68L0.06,8.98z M15.81,7.73c-0.01-0.23-0.03-0.46-0.05-0.68
		l0.18-0.02c0.03,0.23,0.05,0.46,0.06,0.7L15.81,7.73z M0.19,7.6L0.01,7.59c0.01-0.23,0.03-0.47,0.07-0.69l0.18,0.03
		C0.22,7.14,0.2,7.37,0.19,7.6z M15.65,6.38c-0.05-0.22-0.11-0.44-0.17-0.66l0.18-0.06c0.07,0.22,0.13,0.45,0.18,0.68L15.65,6.38z
		 M0.38,6.25L0.2,6.21c0.05-0.23,0.11-0.45,0.19-0.67l0.17,0.06C0.49,5.81,0.43,6.03,0.38,6.25z M15.25,5.07
		c-0.09-0.21-0.18-0.42-0.29-0.62l0.16-0.08c0.11,0.21,0.2,0.42,0.29,0.63L15.25,5.07z M0.8,4.95L0.63,4.88
		c0.09-0.21,0.19-0.43,0.3-0.63l0.16,0.09C0.98,4.54,0.89,4.74,0.8,4.95z M1.44,3.75l-0.15-0.1c0.13-0.19,0.26-0.39,0.4-0.57
		l0.15,0.11C1.69,3.37,1.56,3.56,1.44,3.75z M2.27,2.67L2.14,2.55c0.16-0.17,0.33-0.33,0.5-0.49L2.76,2.2
		C2.59,2.34,2.43,2.51,2.27,2.67z M3.28,1.76L3.17,1.61c0.18-0.14,0.38-0.27,0.58-0.4l0.1,0.16C3.65,1.5,3.46,1.63,3.28,1.76
		L3.28,1.76z M12.25,1.44l-0.01-0.01l0.1-0.15l0.01,0.01L12.25,1.44z M11.66,1.09c-0.2-0.11-0.41-0.2-0.62-0.29l0.07-0.17
		c0.21,0.09,0.43,0.19,0.63,0.3L11.66,1.09z M4.44,1.04L4.35,0.88l0.01-0.01c0.2-0.1,0.41-0.2,0.62-0.29l0.07,0.17
		C4.85,0.84,4.65,0.93,4.45,1.04L4.44,1.04z M10.4,0.56c-0.22-0.07-0.44-0.13-0.66-0.18L9.79,0.2c0.23,0.05,0.45,0.11,0.67,0.19
		L10.4,0.56z M5.7,0.53L5.65,0.35C5.87,0.28,6.1,0.22,6.32,0.18l0.04,0.18C6.14,0.4,5.92,0.46,5.7,0.53z M9.07,0.26
		C8.85,0.22,8.62,0.2,8.39,0.19L8.4,0.01C8.63,0.02,8.87,0.04,9.1,0.07L9.07,0.26z M7.03,0.24L7.01,0.06C7.24,0.03,7.47,0.01,7.7,0
		l0.01,0.18C7.49,0.2,7.26,0.21,7.03,0.24L7.03,0.24z"/>
	<circle fill="#3FA9F5" cx="8" cy="8" r="6.12"/>
	<circle fill="#FFFFFF" cx="10.53" cy="5.47" r="1.79"/>
	<circle fill="#3FA9F5" cx="14.11" cy="1.88" r="1.79"/>
</g>
</svg>
