<?xml version="1.0" encoding="utf-8"?>
<!-- Generator: Adobe Illustrator 24.0.3, SVG Export Plug-In . SVG Version: 6.00 Build 0)  -->
<svg version="1.1" id="Capa_1" xmlns="http://www.w3.org/2000/svg" xmlns:xlink="http://www.w3.org/1999/xlink" x="0px" y="0px"
	 viewBox="0 0 16 16" enable-background="new 0 0 16 16" xml:space="preserve">
<g>
	<path fill="#FFFFFF" d="M3.05,9.52C2.97,9.64,2.84,9.69,2.7,9.65C2.54,9.59,2.36,9.6,2.21,9.7C2.03,9.82,1.85,9.73,1.88,9.5
		c0.01-0.23,0.14-0.43,0.33-0.55c0.48-0.27,0.15-0.46,0.41-0.74s0.2-0.36,0.19-0.73C2.04,7.42,1.33,7.02,0.87,6.39
		C0.35,5.8,0.06,5.04,0.04,4.24c-0.1-0.74,0.03-1.5,0.37-2.17c0.31-0.64,0.82-1.14,1.46-1.44c0.61-0.32,1.3-0.47,1.99-0.44
		c0.48-0.03,0.96,0.06,1.39,0.26c0.27,0.2,0.56,0.36,0.88,0.46C6.3,0.92,6.46,0.87,6.59,0.78C6.61,1.46,6,1.52,5.46,1.53
		S4.57,1.32,4.07,1.41c-0.7,0.07-1.33,0.44-1.73,1.01C2.03,2.86,1.89,3.41,1.96,3.95c0.02,0.49,0.35,0.9,0.82,1.03
		c0.29,0,0.35-0.08,0.6-0.24C3.63,4.58,4.9,3,5.34,2.65c0.37-0.31,0.84-0.48,1.33-0.47c0.33-0.03,0.66,0.03,0.95,0.16
		c0.32,0.18,0.62,0.38,0.9,0.6c0.14-0.1,0.27-0.21,0.39-0.33c0.37-0.34,0.87-0.49,1.37-0.41c0.38,0.05,0.74,0.21,1.04,0.46
		c0.43,0.42,0.82,0.88,1.15,1.38C12.68,4.42,13,4.72,13.39,4.9c0.44,0.14,0.77-0.44,0.82-0.75c0.04-0.18,0.06-0.35,0.06-0.53
		c0-0.22-0.02-0.43-0.08-0.64c-0.06-0.2-0.15-0.4-0.26-0.58c-0.18-0.3-0.44-0.54-0.74-0.71c-0.25-0.13-0.52-0.21-0.79-0.24
		c-0.27,0.02-0.53,0.06-0.8,0.11c-0.33,0.02-0.93,0.1-1.19-0.16c-0.14-0.13-0.21-0.3-0.22-0.49c0.08,0.06,0.17,0.1,0.27,0.11
		c0.21,0.02,0.4-0.15,0.57-0.25c0.17-0.11,0.34-0.21,0.52-0.3c0.5-0.16,1.02-0.21,1.54-0.13c0.44,0.06,0.87,0.2,1.26,0.41
		c0.36,0.22,0.68,0.51,0.93,0.84c0.29,0.35,0.49,0.77,0.59,1.22c0.16,0.72,0.17,1.47,0.01,2.2c-0.2,0.6-0.54,1.15-0.98,1.61
		c-0.37,0.34-0.83,0.56-1.32,0.63c0.01,0.09,0.03,0.19,0.05,0.28c0.04,0.12,0.11,0.25,0.25,0.21c0.06-0.03,0.13-0.01,0.16,0.04
		c0.08,0.07,0.04,0.32-0.18,0.44c-0.12,0.06-0.26,0.08-0.4,0.07c-0.21,0.01-0.42,0-0.63-0.03c-0.19-0.03-0.3-0.18-0.51-0.21
		c-0.31-0.08-0.59-0.23-0.83-0.44c-0.07-0.04-0.14-0.08-0.21-0.11c0.03,0.1,0.08,0.21,0.1,0.31c0.02,0.1,0.01,0.19,0.02,0.27
		s0.03,0.14,0.05,0.2c0.05,0.05,0.07,0.11,0.16,0.14c0.1,0.01,0.21,0,0.31-0.02c0.09-0.01,0.15-0.06,0.22-0.05
		c0.07,0.02,0.14,0.06,0.19,0.11c0.06,0.05,0.11,0.05,0.16,0.17c0.06,0.17,0.09,0.34,0.1,0.51c0.01,0.15-0.01,0.29-0.06,0.43
		c-0.04,0.12-0.12,0.23-0.22,0.31c-0.17,0.16-0.35,0.31-0.55,0.44c0.03,0.06,0.07,0.12,0.11,0.17c0.06,0.06,0.18,0.13,0.24,0.2
		c0.05,0.05,0.08,0.11,0.08,0.18c0.01,0.09-0.01,0.17-0.06,0.25c-0.14,0.16-0.33,0.27-0.53,0.33c0.05,0.2,0.05,0.4,0.01,0.61
		c-0.02,0.09-0.07,0.3-0.18,0.35c-0.15,0.03-0.31,0.05-0.46,0.05c-0.14,0.02-0.21,0.04-0.32,0.06c-0.07,0.09-0.14,0.18-0.19,0.28
		c-0.03,0.06-0.03,0.14,0,0.2c0.03,0.09,0.12,0.21,0.15,0.31c0.03,0.1,0.03,0.21,0.01,0.31c-0.02,0.1-0.08,0.19-0.15,0.26
		c-0.09,0.09-0.25,0.16-0.34,0.23c-0.08,0.07-0.17,0.08-0.15,0.2c0.08,0.22,0.24,0.39,0.45,0.49c0.12,0.04,0.25,0.03,0.37-0.03
		c-0.01,0.14-0.13,0.24-0.21,0.33c0.22-0.06,0.41-0.17,0.57-0.34c-0.1,0.21-0.24,0.4-0.43,0.55c-0.1,0.09-0.22,0.17-0.34,0.23
		c0.19,0.04,0.38,0.04,0.57,0c-0.13,0.07-0.28,0.12-0.43,0.14c-0.16,0.02-0.33,0.01-0.49-0.04c-0.19-0.09-0.37-0.19-0.54-0.31
		c0.01,0.1,0.06,0.18,0.12,0.25c0.11,0.08,0.24,0.14,0.36,0.19c-0.18-0.01-0.37-0.03-0.55-0.07c-0.11-0.02-0.22-0.06-0.32-0.11
		c-0.09-0.05-0.18-0.11-0.26-0.18c0.03,0.08,0.07,0.16,0.12,0.23c0.08,0.06,0.18,0.1,0.27,0.13c-0.1,0.01-0.19,0.01-0.29-0.01
		c-0.11-0.03-0.21-0.07-0.3-0.14c-0.11-0.08-0.21-0.17-0.3-0.26c-0.09-0.09-0.17-0.19-0.23-0.31c-0.03-0.09,0.02-0.15,0.03-0.22
		c-0.07,0.03-0.13,0.07-0.18,0.12c-0.06,0.05-0.08,0.13-0.07,0.21c0.04,0.12,0.1,0.23,0.18,0.34c-0.2-0.16-0.31-0.22-0.35-0.42
		c-0.02-0.18,0.04-0.35,0.16-0.48c0.04-0.07,0.11-0.13,0.15-0.2c-0.09-0.08-0.18-0.17-0.27-0.26c-0.08-0.1-0.11-0.23-0.19-0.33
		c-0.08-0.09-0.17-0.16-0.27-0.23c0.09,0.16,0.17,0.34,0.24,0.51c0.02,0.1-0.01,0.21-0.08,0.29c-0.05,0.07-0.12,0.09-0.2,0.13
		c-0.07,0.04-0.18,0.01-0.23,0.07c-0.05,0.07-0.05,0.16-0.01,0.23l0.17,0.27c-0.08-0.05-0.16-0.11-0.22-0.19
		c-0.05-0.07-0.12-0.12-0.13-0.21c-0.02-0.08,0-0.17,0.04-0.24c0.06-0.08,0.21-0.1,0.28-0.16c0.07-0.06,0.11-0.1,0.1-0.18
		s-0.08-0.13-0.14-0.18c-0.22-0.14-0.43-0.29-0.62-0.47c-0.07-0.07-0.13-0.16-0.16-0.25c-0.01-0.07,0-0.15,0.05-0.21
		c0.05-0.09,0.21-0.2,0.23-0.29c0.02-0.09-0.06-0.11-0.14-0.15c-0.07-0.03-0.21,0.02-0.29-0.04c-0.07-0.06,0.02-0.18-0.06-0.24
		c-0.08-0.07-0.25-0.03-0.34-0.1c-0.08-0.07-0.14-0.16-0.16-0.26c-0.03-0.09-0.04-0.19-0.01-0.29c0.02-0.07,0.09-0.09,0.12-0.13
		c0.04-0.04,0.07-0.07,0.02-0.13c-0.05-0.06-0.22,0-0.32-0.07c-0.1-0.07-0.04-0.25-0.11-0.33c-0.07-0.08-0.19-0.05-0.26-0.07
		c-0.06-0.02-0.09,0.06-0.13-0.07c-0.04-0.13-0.04-0.53-0.09-0.68c-0.05-0.15-0.16-0.01-0.21-0.16C4.7,9.82,4.69,9.62,4.7,9.42
		L4.6,8.81C4.25,9.04,3.15,9.34,3.05,9.52"/>
	<path d="M8.36,3.59C8.35,3.77,8.37,3.95,8.41,4.12C8.42,4.28,8.5,4.41,8.62,4.5c0.26,0.2,0.43,0.16,0.64,0.28
		c0.11,0.05,0.2,0.14,0.25,0.24c0.03,0.09-0.01,0.19-0.1,0.24c0.11,0.01,0.21-0.07,0.22-0.19c0-0.03,0-0.06-0.01-0.09
		C9.6,4.91,9.46,4.88,9.42,4.81C9.38,4.74,9.37,4.66,9.39,4.58c0.04-0.13,0.3-0.26,0.4-0.36c0.15-0.13,0.2-0.34,0.12-0.51
		c-0.2-0.3-0.49-0.53-0.83-0.65C8.99,3.02,8.9,2.99,8.8,2.97c0.22,0.09,0.4,0.25,0.5,0.46c0.08,0.21,0.01,0.29,0.01,0.48
		c0,0.09,0.11,0.13,0.16,0.18c0.05,0.05,0.04,0.08,0.01,0.15c0-0.05-0.03-0.1-0.07-0.13C9.33,4.05,9.25,4.06,9.21,3.95
		C9.15,3.79,9.27,3.63,9.14,3.45C9.05,3.29,8.9,3.18,8.72,3.15c-0.08,0-0.16,0.01-0.24,0.04L8.36,3.04l0,0
		C8.14,2.81,7.88,2.61,7.59,2.47c-0.28-0.14-0.6-0.2-0.92-0.17C6.21,2.28,5.76,2.43,5.42,2.74c-0.46,0.4-1.65,1.92-1.94,2.11
		C3.28,5.03,3.03,5.13,2.76,5.11C2.23,4.99,1.84,4.52,1.82,3.97C1.75,3.39,1.89,2.81,2.23,2.34C2.64,1.71,3.32,1.3,4.07,1.25
		c0.47,0,0.93,0.04,1.39,0.13c0.44,0,0.88-0.08,1-0.43C6.35,1.02,6.22,1.05,6.09,1.03C5.75,0.91,5.44,0.76,5.15,0.56
		C4.74,0.39,4.29,0.32,3.85,0.34c-0.63-0.04-1.27,0.1-1.84,0.38c-0.63,0.3-1.14,0.8-1.47,1.41C0.19,2.77,0.06,3.5,0.16,4.22
		C0.2,4.98,0.49,5.7,0.97,6.28c0.45,0.6,1.13,0.97,1.88,1.02l0.19-0.83L2.71,6.96l0.01-0.53L2.41,6.8L2.28,6.29L2.04,6.69L1.91,6.12
		L1.56,6.41l0.11-0.47L1.2,5.99l0.22-0.33L0.99,5.67l0.25-0.44L0.86,5.17l0.3-0.39L0.69,4.64l0.39-0.37L0.7,3.96L1,3.73L0.72,3.36
		l0.3-0.35L0.9,2.56l0.25-0.22l0.08-0.52l0.29-0.14l0.24-0.41l0.45-0.05l0.22-0.37l0.45,0.02l0.43-0.23l0.44,0.1l0.5-0.15l0.37,0.09
		l0.49,0.07l0.47,0.38L4.87,0.87L4.5,1.04L4.2,0.86L4,1L3.63,1.04L3.3,1.02L3.06,1.31L2.58,1.32L2.41,1.71L1.98,1.86L1.94,2.31
		L1.63,2.56l0.1,0.43L1.46,3.42l0.21,0.39l-0.2,0.35l0.27,0.18L1.67,4.91L2.05,5l0.08,0.42l0.41-0.04l0.25,0.29L3.1,5.36
		c0.48-0.21,0.91-0.53,1.25-0.93C4.76,3.88,5.26,3.39,5.83,3c0.42-0.27,0.93-0.37,1.42-0.27c0.51,0.09,0.68,0.39,1.06,0.72
		c0.02-0.06,0.06-0.11,0.11-0.14C8.4,3.4,8.38,3.49,8.36,3.59L8.36,3.59z M11.03,6.97c-0.03,0.03-0.07,0.06-0.11,0.08
		c-0.06,0.02-0.13,0.04-0.2,0.05c0.1,0.15,0.2,0.31,0.3,0.47c0.09,0.16,0.18,0.34,0.27,0.51c0-0.1,0-0.19-0.01-0.29
		c-0.03-0.1-0.06-0.21-0.1-0.31C11.13,7.35,11.08,7.16,11.03,6.97L11.03,6.97z M10.99,6.09c0.04,0.01,0.07,0.03,0.1,0.05
		c0.06,0.04,0.11,0.09,0.15,0.15c0.03,0.09,0.04,0.18,0.03,0.27c-0.03-0.01-0.08,0-0.11-0.03c-0.03-0.03-0.05-0.09-0.1-0.12
		c-0.04-0.02-0.08-0.03-0.13-0.03c0.03,0.06,0.03,0.13,0.02,0.2C10.94,6.7,10.84,6.8,10.72,6.8c-0.07,0-0.13-0.01-0.2-0.02
		c0.02,0.05,0.06,0.1,0.08,0.15c0.08,0,0.17-0.02,0.25-0.04c0.06-0.04,0.13-0.08,0.2-0.11c0.07-0.02,0.15-0.03,0.23-0.04
		c-0.06,0.06-0.11,0.11-0.17,0.17l0.14,0.42c0.1,0.06,0.2,0.1,0.32,0.17c0.14,0.11,0.29,0.21,0.45,0.29
		c0.14,0.07,0.29,0.12,0.44,0.15c0.17,0.03,0.31,0.17,0.48,0.2c0.21,0.02,0.41,0.03,0.62,0.01c0.15-0.01,0.34-0.09,0.36-0.26
		c-0.18,0.05-0.36-0.06-0.41-0.23c-0.04-0.1-0.02-0.3-0.09-0.42c-0.07-0.12-0.16-0.16-0.27-0.32c-0.14-0.19-0.27-0.39-0.39-0.6
		c-0.1-0.2-0.12-0.44-0.21-0.62c-0.09-0.17-0.19-0.32-0.31-0.47c-0.17-0.3-0.43-0.53-0.75-0.67c-0.18-0.06-0.36-0.11-0.55-0.14
		c-0.07,0.03-0.18,0.07-0.2,0.16c-0.02,0.1,0.01,0.2,0.08,0.28c0.14,0.11,0.25,0.24,0.32,0.4c0.04,0.19,0.05,0.39,0.02,0.59
		C11.14,5.94,11.07,6.02,10.99,6.09L10.99,6.09z M10.16,6.19c0.15-0.07,0.32-0.12,0.49-0.14c0.07,0,0.18,0.01,0.26,0.01
		c0.07-0.08,0.13-0.17,0.17-0.27c0.02-0.16,0.01-0.32-0.02-0.47c-0.1-0.24-0.19-0.25-0.33-0.39c-0.08-0.13-0.13-0.27-0.13-0.42
		c-0.01-0.06-0.04-0.14-0.06-0.21c-0.19-0.03-0.38-0.04-0.57-0.03c0.11-0.08,0.19-0.19,0.22-0.32c0.03-0.15,0-0.31-0.08-0.45
		c-0.09-0.13-0.2-0.24-0.33-0.34c-0.12-0.1-0.29-0.19-0.4-0.28c0.14-0.06,0.29-0.12,0.44-0.16c0.37-0.06,0.75,0.04,1.05,0.26
		c0.22,0.13,0.43,0.29,0.6,0.48c0.22,0.23,0.49,0.65,0.7,0.9c0.17,0.22,0.36,0.41,0.57,0.6c0.17,0.11,0.34,0.21,0.53,0.29l0.27,0.29
		l0.22-0.27l0.36,0.04l0.07-0.4l0.33-0.09l-0.05-0.54l0.24-0.17l-0.18-0.34l0.18-0.37l-0.23-0.42l0.09-0.4L14.3,2.34l-0.04-0.43
		l-0.38-0.14l-0.15-0.37L13.3,1.38l-0.21-0.28l-0.29,0.02l-0.32-0.03l-0.18-0.13l-0.26,0.17l-0.32-0.17L11.1,1.2l0.41-0.36
		l0.43-0.07l0.32-0.08l0.44,0.15l0.39-0.1l0.37,0.22l0.4-0.02l0.19,0.35l0.39,0.05l0.21,0.39l0.25,0.14l0.07,0.5l0.22,0.21
		l-0.1,0.44l0.26,0.33l-0.24,0.35l0.26,0.22l-0.33,0.3l0.34,0.35l-0.41,0.13l0.27,0.38l-0.33,0.06l0.22,0.42l-0.38-0.01l0.19,0.31
		l-0.41-0.05l0.1,0.45l-0.31-0.27l-0.11,0.54l-0.22-0.39L13.88,6.6l-0.27-0.36l0.01,0.51L13.32,6.3c0.02,0.27,0.09,0.54,0.22,0.79
		c0.48-0.04,0.94-0.25,1.28-0.59c0.42-0.44,0.74-0.98,0.93-1.56c0.14-0.68,0.14-1.38,0.01-2.07c-0.11-0.44-0.31-0.85-0.6-1.2
		c-0.27-0.32-0.58-0.61-0.93-0.84c-0.56-0.29-1.19-0.43-1.83-0.4c-0.26,0-0.52,0.05-0.76,0.14c-0.35,0.13-0.63,0.41-0.99,0.55
		c-0.1,0.05-0.21,0.05-0.3,0c0.08,0.17,0.23,0.29,0.41,0.33c0.27,0.03,0.55,0.03,0.82-0.01c0.27-0.06,0.55-0.09,0.83-0.11
		c0.3,0.01,0.59,0.09,0.85,0.24c0.33,0.18,0.6,0.43,0.8,0.75c0.11,0.19,0.2,0.4,0.26,0.62c0.05,0.22,0.08,0.44,0.09,0.67
		c0.01,0.2-0.01,0.4-0.06,0.59c-0.12,0.45-0.39,0.9-0.94,0.83c-0.34-0.04-0.84-0.67-1.01-0.9c-0.33-0.49-0.71-0.95-1.12-1.37
		c-0.27-0.24-0.61-0.39-0.97-0.43C9.78,2.23,9.26,2.4,8.92,2.79c0.1,0.03,0.2,0.06,0.3,0.1c0.23,0.1,0.44,0.24,0.62,0.41
		c0.18,0.13,0.29,0.33,0.29,0.55c0,0.17-0.14,0.31-0.27,0.43c-0.08,0.08-0.18,0.15-0.25,0.2C9.54,4.56,9.43,4.65,9.54,4.77
		C9.59,4.82,9.65,4.86,9.71,4.9C9.8,4.96,9.76,5.22,9.64,5.29C9.49,5.38,9.29,5.37,9.16,5.25C9.32,5.23,9.43,5.2,9.42,5.07
		c0-0.08-0.1-0.14-0.2-0.19C9,4.83,8.79,4.74,8.58,4.63C8.35,4.46,8.34,4.37,8.28,4.1C8.16,4.11,8.03,4.13,7.91,4.17
		c-0.15,0.05-0.32,0.17-0.46,0.2c-0.2,0.06-0.41,0.07-0.6,0c-0.41-0.04-0.82,0.03-1.2,0.2C5.46,4.57,5.28,4.6,5.1,4.64
		C4.74,4.77,4.42,4.97,4.12,5.2C3.56,5.87,3.17,6.67,2.99,7.52c-0.03,0.33,0.06,0.55-0.14,0.7c-0.21,0.16-0.2,0.57-0.27,0.68
		c-0.07,0.11-0.15,0.06-0.3,0.22S2.06,9.26,2.06,9.57C2.2,9.46,2.37,9.4,2.54,9.38c0.15-0.01,0.15,0.19,0.52-0.18
		c0.2-0.2,0.59-0.2,0.86-0.29c0.48-0.15,0.9-0.43,1.23-0.81c0.48-0.53,0.76-1.21,0.81-1.93C5.99,6.4,5.98,6.64,5.94,6.88
		C5.8,7.33,5.83,7.83,6.02,8.27L6.2,8.61C6.06,8.44,5.93,8.26,5.83,8.06L5.69,7.68c-0.2,0.37-0.49,0.7-0.84,0.95
		C4.82,8.85,4.84,9.08,4.9,9.29c0.07,0.21-0.04,0.46,0.01,0.6c0.06,0.14,0.18,0.06,0.22,0.2c0.04,0.14-0.02,0.42,0.04,0.56
		c0.06,0.14,0.22,0.06,0.3,0.1c0.06,0.04,0.11,0.1,0.14,0.16c0.04,0.06-0.02,0.2,0.07,0.24s0.21,0.01,0.3,0.05
		c0.08,0.05,0.11,0.15,0.08,0.24c-0.02,0.09-0.11,0.14-0.16,0.23c-0.04,0.08-0.04,0.17,0.01,0.25C6,12.02,6.09,12.08,6.2,12.11
		c0.11,0.04,0.26,0.02,0.37,0.08c0.11,0.07,0.2,0.16,0.27,0.27c0.05,0.07,0.08,0.16,0.07,0.24c-0.01,0.1-0.04,0.2-0.09,0.29
		c-0.05,0.09-0.16,0.2,0.01,0.37c0.17,0.17,0.16,0.1,0.26,0.21c-0.01-0.19-0.09-0.35-0.03-0.49c0.06-0.14,0.23-0.17,0.32-0.23
		c0.08-0.07,0.15-0.14,0.22-0.23c0.01,0.09,0.01,0.19,0,0.28c-0.02,0.15-0.07,0.29,0.16,0.31c0.11-0.01,0.21-0.04,0.31-0.09
		c-0.06,0.1-0.15,0.18-0.17,0.3c-0.02,0.13,0.01,0.26,0.09,0.37c0.09,0.11,0.21,0.21,0.33,0.28c0.08,0.05,0.16,0.08,0.24,0.11
		c0,0.12-0.02,0.24-0.01,0.35c0.01,0.11,0.05,0.21,0.11,0.3c0.08,0.09,0.17,0.16,0.27,0.21c-0.05-0.12-0.16-0.24-0.16-0.37
		c0-0.13,0.06-0.26,0.17-0.34c0.13-0.11,0.43-0.22,0.57-0.33c0.1-0.07,0.19-0.17,0.24-0.29c0.03-0.12,0.05-0.25,0.05-0.38
		c0.04,0.1,0.06,0.21,0.07,0.32c-0.01,0.16-0.05,0.31-0.13,0.45c0.15-0.07,0.27-0.2,0.34-0.35c0.04,0.02,0.02,0.08,0.03,0.2
		c0.06-0.06,0.13-0.11,0.19-0.17c0.07-0.05,0.12-0.12,0.16-0.19c0.03-0.09,0.02-0.18,0-0.26c-0.05-0.11-0.11-0.21-0.18-0.31
		c-0.06-0.1,0.01-0.2,0.01-0.33c-0.11-0.04-0.23-0.06-0.34-0.06c-0.13,0.02-0.28,0.17-0.41,0.17s-0.21-0.12-0.32-0.16
		c-0.11-0.02-0.22-0.04-0.33-0.05c0.33-0.15,0.69-0.23,1.05-0.26c0.32-0.05,0.65-0.08,0.98-0.09c0.15,0.02,0.29,0.02,0.44,0.02
		c0.1-0.03,0.08-0.1,0.11-0.18c0.06-0.2,0.06-0.42,0-0.62c-0.3-0.05-0.6-0.06-0.9-0.05c-0.29,0.02-0.64,0.16-0.94,0.17
		c-0.3,0.01-0.6-0.05-0.87-0.19c-0.23-0.17-0.42-0.39-0.56-0.64c-0.12-0.19-0.28-0.56-0.37-0.73c-0.05-0.11-0.11-0.2-0.19-0.29
		C7.53,9.71,7.43,9.67,7.33,9.65c0.11,0.01,0.22-0.02,0.32,0.03c0.15,0.08,0.31,0.43,0.4,0.58c0.1-0.32,0.07-0.45,0.35-0.63
		c-0.17,0.21-0.27,0.47-0.29,0.74c0.19,0.31,0.45,0.8,0.79,0.93c0.15,0.05,0.31,0.08,0.47,0.1c0.41,0.02,0.83-0.05,1.22-0.18
		c0.32-0.06,0.64-0.06,0.96-0.02c0.12,0.01,0.41-0.07,0.47-0.19c0.03-0.07,0.03-0.16-0.02-0.22c-0.05-0.07-0.17-0.11-0.24-0.17
		c-0.06-0.07-0.11-0.14-0.16-0.21c-0.23,0.05-0.47,0.07-0.71,0.08c0.15-0.06,0.29-0.1,0.44-0.15c0.16-0.06,0.31-0.15,0.45-0.24
		c0.11-0.06,0.2-0.14,0.29-0.22c0.1-0.09,0.19-0.2,0.27-0.31c0.06-0.12,0.09-0.25,0.08-0.39c0.01-0.16-0.01-0.31-0.06-0.46
		c-0.05-0.09-0.14-0.16-0.25-0.18c-0.09-0.03-0.14,0.04-0.23,0.05c-0.09,0.01-0.17,0.07-0.3,0c-0.17-0.09-0.31-0.21-0.41-0.37
		c-0.13-0.18-0.22-0.48-0.36-0.71c-0.24-0.39-0.5-0.77-0.79-1.13c-0.03-0.11-0.05-0.22-0.07-0.34C9.95,5.82,9.96,5.6,10.02,5.39
		c0.03-0.17,0.14-0.31,0.29-0.39c0.07-0.03,0.14-0.03,0.21-0.01c0.07,0.02,0.11,0.1,0.1,0.17c-0.03,0.09-0.09,0.09-0.13,0.13
		c-0.06,0.06-0.1,0.14-0.12,0.22c0.08-0.01,0.16,0,0.24,0.01c0.09,0.02,0.17,0.09,0.19,0.19c-0.06-0.08-0.16-0.12-0.26-0.13
		c-0.06,0-0.12,0.01-0.18,0.03c-0.02,0.07-0.04,0.15-0.07,0.22c-0.03,0.06-0.09,0.04-0.11,0.11C10.15,6.01,10.15,6.1,10.16,6.19
		L10.16,6.19z M10.47,6.3c-0.12,0.01-0.15-0.01-0.24,0.06l0.15,0.24C10.37,6.49,10.4,6.38,10.47,6.3L10.47,6.3z M6.44,5.24
		c0-0.04,0.01-0.07,0.02-0.11C6.29,5.08,6.22,5.19,6.12,5.4c-0.04,0.08,0,0.12-0.04,0.17C6.03,5.63,5.97,5.62,5.9,5.67
		C5.84,5.72,5.77,5.81,5.71,5.86C5.57,5.96,5.42,6.04,5.27,6.1C5.4,6.03,5.52,5.93,5.62,5.81C5.66,5.75,5.65,5.65,5.7,5.6
		c0.05-0.05,0.07-0.09,0.14-0.1C5.91,5.48,5.88,5.41,5.9,5.34c0.03-0.06,0.07-0.12,0.11-0.17C6.06,5.1,6.12,5.03,6.21,4.99
		c0.09-0.03,0.23,0,0.3-0.02s0.03-0.07,0.08-0.1S6.73,4.86,6.8,4.83c0.1-0.06,0.19-0.15,0.24-0.25c0.02,0.2,0,0.39-0.07,0.58
		C6.9,5.37,6.75,5.56,6.54,5.66C6.47,5.7,6.38,5.73,6.3,5.75c0.04-0.06,0.1-0.08,0.13-0.17C6.44,5.47,6.44,5.35,6.44,5.24L6.44,5.24
		z M7.54,6.09c0.09-0.01,0.2,0.02,0.29,0.01C7.9,6.1,7.97,6.08,8.04,6.06c-0.01-0.13,0-0.36-0.12-0.44c-0.15-0.03-0.31-0.03-0.47,0
		c-0.2,0.06-0.39,0.13-0.58,0.22C7.03,5.72,7.21,5.62,7.4,5.55C7.58,5.5,7.76,5.48,7.94,5.5C8,5.52,8.01,5.54,8.05,5.59
		C8.15,5.75,8.2,5.92,8.2,6.1c0.03,0.04,0.06,0.09,0.09,0.13C8.32,6.3,8.33,6.36,8.34,6.43c-0.03-0.05-0.01-0.1-0.1-0.14
		C8.12,6.27,8.01,6.27,7.9,6.3c0.13,0.09,0.17,0.27,0.09,0.4C7.93,6.78,7.85,6.83,7.76,6.83C7.61,6.87,7.45,6.79,7.4,6.64
		C7.38,6.57,7.37,6.49,7.39,6.41C7.24,6.4,7.09,6.45,6.99,6.56c0.07,0.12,0.17,0.22,0.3,0.29C7.38,6.9,7.48,6.94,7.58,6.96
		C7.7,6.98,7.83,6.99,7.96,6.98c0.1-0.01,0.19-0.05,0.25-0.12c0.06-0.08,0.1-0.17,0.12-0.27c0,0.08-0.02,0.17-0.05,0.25
		C8.2,6.99,8.03,7.09,7.85,7.07c-0.2,0-0.4-0.04-0.58-0.11C7.09,6.88,6.94,6.76,6.85,6.6c-0.02-0.1-0.02-0.21-0.01-0.32
		C7.03,6.15,7.07,6.18,7.3,6.15C7.39,6.13,7.45,6.1,7.54,6.09L7.54,6.09z M8.05,4.84c0.09,0.06,0.19,0.1,0.3,0.12
		c0.08,0,0.11-0.06,0.16-0.09c0.07,0.26,0.17,0.52,0.3,0.76c0.06,0.1,0.09,0.05,0.13,0.15C8.98,5.88,9,6.08,9.04,6.2
		c0.04,0.11,0.09,0.22,0.14,0.32C9.06,6.36,8.94,6.19,8.84,6.01C8.78,5.87,8.82,5.86,8.77,5.73C8.72,5.6,8.61,5.39,8.53,5.23
		c-0.06,0.01-0.11,0.01-0.17,0C8.32,5.22,8.32,5.17,8.29,5.14C8.25,5.11,8.18,5.12,8.13,5.08C8.07,5.01,8.05,4.93,8.05,4.84
		L8.05,4.84z M6.93,9.28c0.08-0.06,0.29-0.01,0.45,0L7.04,9.36C7.03,9.4,7.03,9.45,7.01,9.48C6.98,9.51,6.93,9.52,6.89,9.55
		C6.9,9.44,6.85,9.34,6.93,9.28L6.93,9.28z M8.4,7.14C8.45,7.03,8.49,6.92,8.52,6.8C8.5,6.94,8.53,7.1,8.46,7.21
		c-0.07,0.1-0.19,0.09-0.3,0.11C8.25,7.26,8.34,7.23,8.4,7.14L8.4,7.14z M8.26,8.74c-0.01-0.21,0.1-0.41,0.29-0.51
		c0.12-0.07,0.26-0.12,0.4-0.14c0.23-0.02,0.46,0.01,0.68,0.09c0.14,0.08,0.27,0.17,0.4,0.26c0.14,0.08,0.23,0.13,0.36,0.23
		c0.2,0.14,0.32,0.29,0.46,0.38c0.08,0.03,0.16,0.05,0.25,0.06c-0.07,0.03-0.15,0.03-0.23,0.02c-0.11-0.04-0.21-0.1-0.29-0.17
		c-0.1-0.09-0.21-0.17-0.33-0.24c-0.08-0.05-0.22-0.1-0.31-0.16C9.84,8.49,9.68,8.36,9.59,8.31C9.45,8.26,9.31,8.23,9.16,8.23
		C8.96,8.22,8.77,8.28,8.61,8.38C8.49,8.47,8.43,8.62,8.46,8.76C8.5,8.7,8.54,8.64,8.59,8.59c0.1-0.08,0.23-0.1,0.35-0.07
		C9.07,8.53,9.17,8.62,9.2,8.75C9.16,8.72,9.11,8.69,9.06,8.66c-0.1-0.04-0.2-0.03-0.29,0.03c-0.12,0.06-0.09,0.16-0.1,0.26
		C8.66,9,8.65,9.04,8.63,9.09C8.58,9.08,8.54,9.05,8.51,9.02c0,0.05,0,0.1,0,0.15c0.02,0.06,0.03,0.12,0.06,0.18
		C8.48,9.27,8.41,9.18,8.35,9.08C8.29,8.98,8.26,8.86,8.26,8.74L8.26,8.74z M9.34,8.92c0.09,0,0.17,0.02,0.25,0.07
		c0.06,0.04,0.12,0.08,0.18,0.13c0.14,0.14,0.24,0.31,0.29,0.5c0.02,0.14,0.04,0.28,0.04,0.43c-0.03-0.13-0.08-0.26-0.13-0.39
		c-0.09-0.2-0.25-0.36-0.45-0.46c-0.04-0.02-0.1-0.03-0.14-0.02C9.39,9.2,9.42,9.22,9.42,9.26C9.43,9.32,9.4,9.38,9.35,9.41
		c-0.1,0.05-0.23,0.02-0.31-0.06c-0.08-0.08-0.11-0.2-0.07-0.31C9.02,8.92,9.22,8.92,9.34,8.92L9.34,8.92z M3.4,9.29
		C3.25,9.3,3.12,9.39,3.05,9.52C2.98,9.63,2.84,9.69,2.71,9.65C2.55,9.58,2.36,9.6,2.21,9.7C2.04,9.82,1.85,9.73,1.88,9.5
		C1.9,9.27,2.02,9.07,2.22,8.95c0.47-0.27,0.15-0.46,0.41-0.74s0.2-0.36,0.2-0.73C2.04,7.42,1.33,7.02,0.88,6.39
		c-0.52-0.6-0.82-1.36-0.84-2.15c-0.1-0.74,0.03-1.5,0.37-2.17c0.31-0.64,0.83-1.15,1.47-1.44c0.62-0.32,1.3-0.47,1.99-0.44
		c0.48-0.03,0.96,0.06,1.39,0.26c0.27,0.2,0.56,0.36,0.88,0.46C6.3,0.91,6.46,0.87,6.59,0.78C6.61,1.45,6,1.51,5.46,1.53
		S4.57,1.32,4.07,1.4c-0.7,0.07-1.33,0.44-1.73,1.01C2.03,2.86,1.89,3.4,1.96,3.94c0.02,0.49,0.35,0.9,0.82,1.03
		c0.29,0,0.35-0.08,0.6-0.24C3.63,4.57,4.9,2.99,5.34,2.64c0.37-0.31,0.84-0.48,1.33-0.47C6.99,2.14,7.32,2.2,7.62,2.33
		c0.32,0.18,0.62,0.38,0.91,0.61c0.14-0.1,0.27-0.21,0.39-0.33c0.37-0.34,0.87-0.49,1.37-0.41c0.38,0.05,0.74,0.21,1.04,0.46
		c0.43,0.42,0.82,0.88,1.15,1.38c0.21,0.37,0.54,0.67,0.93,0.85c0.44,0.14,0.77-0.44,0.82-0.75c0.04-0.18,0.06-0.35,0.06-0.53
		c0-0.22-0.02-0.43-0.08-0.64c-0.06-0.2-0.15-0.4-0.26-0.58c-0.18-0.3-0.44-0.54-0.74-0.71c-0.25-0.13-0.52-0.21-0.79-0.24
		c-0.27,0.02-0.53,0.06-0.8,0.11c-0.33,0.02-0.93,0.1-1.19-0.16c-0.14-0.13-0.21-0.3-0.22-0.49c0.08,0.06,0.17,0.1,0.27,0.11
		c0.21,0.02,0.4-0.15,0.57-0.25c0.17-0.11,0.34-0.21,0.52-0.3c0.5-0.16,1.02-0.21,1.54-0.13c0.44,0.06,0.87,0.2,1.26,0.41
		c0.36,0.22,0.68,0.51,0.93,0.84c0.29,0.36,0.5,0.78,0.59,1.23c0.16,0.72,0.17,1.47,0.01,2.2c-0.2,0.6-0.54,1.15-0.98,1.61
		c-0.37,0.34-0.83,0.56-1.32,0.63c0.02,0.1,0.02,0.2,0.05,0.28c0.04,0.12,0.11,0.25,0.25,0.21c0.06-0.03,0.13-0.01,0.16,0.04
		c0.08,0.07,0.04,0.32-0.18,0.44c-0.12,0.06-0.26,0.08-0.4,0.07c-0.21,0.01-0.42,0-0.63-0.03c-0.19-0.03-0.3-0.18-0.51-0.21
		c-0.31-0.08-0.59-0.23-0.83-0.44c-0.07-0.04-0.14-0.08-0.21-0.11c0.03,0.1,0.08,0.21,0.1,0.31c0.02,0.1,0.01,0.19,0.02,0.27
		s0.03,0.14,0.05,0.2c0.05,0.05,0.07,0.11,0.16,0.14c0.1,0.01,0.21,0,0.31-0.02c0.09-0.01,0.15-0.06,0.22-0.05
		c0.07,0.02,0.14,0.06,0.19,0.11c0.06,0.05,0.11,0.05,0.16,0.17c0.06,0.17,0.09,0.34,0.1,0.51c0.01,0.15-0.01,0.29-0.06,0.43
		c-0.04,0.12-0.12,0.23-0.22,0.31c-0.17,0.16-0.35,0.31-0.55,0.44c0.03,0.06,0.07,0.12,0.11,0.17c0.06,0.06,0.18,0.13,0.24,0.2
		c0.05,0.05,0.08,0.11,0.08,0.18c0.01,0.09-0.01,0.17-0.06,0.25c-0.14,0.16-0.33,0.27-0.53,0.33c0.05,0.2,0.05,0.4,0.01,0.61
		c-0.02,0.09-0.07,0.3-0.18,0.35c-0.15,0.03-0.31,0.05-0.46,0.05c-0.14,0.02-0.21,0.04-0.32,0.06c-0.07,0.09-0.14,0.18-0.19,0.28
		c-0.03,0.06-0.03,0.14,0,0.2c0.03,0.09,0.12,0.21,0.15,0.31c0.03,0.1,0.03,0.21,0.01,0.31c-0.03,0.1-0.08,0.19-0.15,0.26
		c-0.09,0.09-0.25,0.16-0.34,0.23S9.98,14.2,10,14.32c0.08,0.22,0.24,0.39,0.45,0.49c0.12,0.04,0.25,0.03,0.37-0.03
		c-0.01,0.14-0.13,0.24-0.21,0.33c0.22-0.06,0.41-0.17,0.57-0.34c-0.1,0.21-0.24,0.4-0.43,0.54c-0.1,0.09-0.22,0.17-0.34,0.23
		c0.19,0.04,0.38,0.04,0.57,0c-0.13,0.07-0.28,0.12-0.43,0.14c-0.16,0.02-0.33,0.01-0.49-0.04c-0.19-0.09-0.37-0.19-0.54-0.31
		c0.01,0.1,0.06,0.18,0.12,0.25c0.11,0.08,0.24,0.14,0.36,0.19c-0.18-0.01-0.37-0.03-0.55-0.07c-0.11-0.02-0.22-0.06-0.32-0.11
		c-0.09-0.05-0.18-0.11-0.26-0.18c0.03,0.08,0.07,0.16,0.12,0.23c0.08,0.06,0.18,0.1,0.27,0.13C9.19,15.82,9.09,15.82,9,15.8
		c-0.11-0.03-0.21-0.07-0.3-0.14c-0.11-0.08-0.21-0.17-0.3-0.26c-0.09-0.09-0.17-0.19-0.23-0.31C8.14,15,8.19,14.94,8.2,14.87
		c-0.07,0.03-0.13,0.07-0.18,0.12c-0.06,0.05-0.08,0.13-0.07,0.21c0.04,0.12,0.1,0.23,0.18,0.34c-0.2-0.16-0.31-0.22-0.35-0.42
		c-0.02-0.18,0.04-0.35,0.16-0.48c0.04-0.07,0.11-0.13,0.15-0.2c-0.09-0.08-0.18-0.17-0.27-0.26c-0.08-0.1-0.11-0.23-0.19-0.33
		c-0.08-0.09-0.18-0.16-0.27-0.23c0.09,0.16,0.17,0.34,0.24,0.51c0.02,0.1-0.01,0.21-0.08,0.29c-0.05,0.07-0.12,0.09-0.2,0.13
		s-0.18,0.01-0.23,0.07c-0.05,0.07-0.05,0.16-0.01,0.23l0.17,0.27c-0.08-0.05-0.16-0.11-0.22-0.19c-0.05-0.06-0.12-0.12-0.13-0.21
		c-0.02-0.08,0-0.17,0.04-0.24c0.06-0.08,0.21-0.1,0.28-0.16s0.11-0.1,0.1-0.18S7.25,14,7.19,13.96c-0.22-0.14-0.43-0.29-0.62-0.47
		c-0.07-0.07-0.13-0.16-0.16-0.25c-0.01-0.07,0-0.15,0.05-0.21c0.05-0.09,0.21-0.2,0.23-0.29c0.02-0.09-0.06-0.11-0.14-0.15
		c-0.07-0.03-0.21,0.02-0.29-0.04c-0.07-0.06,0.02-0.18-0.06-0.24c-0.08-0.07-0.25-0.03-0.34-0.1c-0.08-0.07-0.14-0.16-0.16-0.26
		c-0.03-0.09-0.04-0.19-0.01-0.29c0.02-0.07,0.09-0.09,0.12-0.13c0.04-0.04,0.07-0.07,0.02-0.13s-0.22,0-0.32-0.07
		c-0.1-0.07-0.04-0.25-0.11-0.33c-0.07-0.07-0.19-0.05-0.26-0.07c-0.06-0.02-0.09,0.06-0.13-0.07c-0.04-0.13-0.04-0.53-0.09-0.68
		c-0.05-0.15-0.16-0.01-0.21-0.16C4.7,9.82,4.69,9.62,4.7,9.41L4.6,8.81c-0.28,0.2-0.61,0.33-0.95,0.37
		c-0.1,0.83-0.04,1.67,0.19,2.47c0.31,1.01,0.94,1.61,1.79,2.47c-0.89-0.58-1.58-1.41-1.99-2.39C3.38,10.94,3.3,10.11,3.4,9.29"/>
</g>
</svg>
