<?xml version="1.0" encoding="utf-8"?>
<!-- Generator: Adobe Illustrator 24.0.3, SVG Export Plug-In . SVG Version: 6.00 Build 0)  -->
<svg version="1.1" id="Capa_1" xmlns="http://www.w3.org/2000/svg" xmlns:xlink="http://www.w3.org/1999/xlink" x="0px" y="0px"
	 viewBox="0 0 16 16" enable-background="new 0 0 16 16" xml:space="preserve">
<g>
	<path fill="#3FA9F5" d="M10,13.05c-0.92,0.42-1.92,0.62-2.93,0.58c-1.39,0.07-2.75-0.46-3.71-1.47c-0.94-1.08-1.42-2.49-1.35-3.92
		C1.94,6.67,2.49,5.15,3.53,4c1.02-1.08,2.46-1.68,3.94-1.62C8.33,2.35,9.19,2.49,10,2.77v2.36C9.3,4.69,8.48,4.47,7.65,4.48
		C6.77,4.45,5.92,4.8,5.32,5.44C4.7,6.17,4.39,7.1,4.44,8.06c-0.05,0.91,0.25,1.81,0.84,2.51c0.57,0.63,1.4,0.98,2.25,0.94
		c0.87,0.01,1.73-0.24,2.47-0.7V13.05z"/>
	<polygon fill="#FF731E" points="8.33,7.47 8.33,6.42 9.38,6.42 9.38,7.47 10.43,7.47 10.43,8.53 9.38,8.53 9.38,9.58 8.33,9.58 
		8.33,8.53 7.28,8.53 7.28,7.47 	"/>
	<polygon fill="#FF731E" points="12.01,7.47 12.01,6.42 13.06,6.42 13.06,7.47 14.11,7.47 14.11,8.53 13.06,8.53 13.06,9.58 
		12.01,9.58 12.01,8.53 10.96,8.53 10.96,7.47 	"/>
	<polygon fill="#926DCC" points="0.02,16 0.02,0 3.41,0 3.41,1.27 1.56,1.27 1.56,14.73 3.41,14.73 3.41,16 	"/>
	<polygon fill="#926DCC" points="15.98,16 12.59,16 12.59,14.73 14.44,14.73 14.44,1.27 12.59,1.27 12.59,0 15.98,0 	"/>
</g>
</svg>
