<?xml version="1.0" encoding="utf-8"?>
<!-- Generator: Adobe Illustrator 24.0.3, SVG Export Plug-In . SVG Version: 6.00 Build 0)  -->
<svg version="1.1" id="Capa_1" xmlns="http://www.w3.org/2000/svg" xmlns:xlink="http://www.w3.org/1999/xlink" x="0px" y="0px"
	 viewBox="0 0 16 16" enable-background="new 0 0 16 16" xml:space="preserve">
<g>
	<g>
		<path d="M5.92,13.09c-1.12,0.92-2.78,0.77-3.71-0.35C1.42,11.52,1.77,9.89,2.99,9.1C4.11,8.17,5.77,8.33,6.7,9.45
			C7.49,10.67,7.14,12.3,5.92,13.09z"/>
		<path d="M4.16,13.72c-0.09,0-0.18,0-0.26-0.01c-1.28-0.09-2.25-1.19-2.16-2.48c0.01-0.13,0.03-0.27,0.06-0.4
			C2.15,9.31,3.61,8.3,5.17,8.5c1.27,0.17,2.16,1.34,1.99,2.61c-0.01,0.08-0.03,0.17-0.05,0.25c-0.16,0.72-0.58,1.35-1.18,1.77l0,0
			C5.42,13.51,4.8,13.72,4.16,13.72z M4.76,8.54C4.13,8.55,3.52,8.75,3.01,9.13c-0.58,0.42-0.99,1.03-1.15,1.73
			c-0.3,1.21,0.44,2.42,1.65,2.72c0.13,0.03,0.26,0.05,0.39,0.06c0.08,0.01,0.17,0.01,0.26,0.01c0.63-0.01,1.23-0.21,1.74-0.58l0,0
			c0.58-0.42,0.99-1.03,1.15-1.73c0.3-1.2-0.44-2.42-1.64-2.72C5.32,8.6,5.24,8.59,5.16,8.57C5.03,8.55,4.89,8.54,4.76,8.54z"/>
		<path d="M5.23,3.05c1.54,1.13,1.98,3.16,0.98,4.53S3.14,9.15,1.59,8.02s-1.98-3.16-0.98-4.53S3.69,1.92,5.23,3.05z"/>
		<path d="M3.78,8.82C2.98,8.81,2.2,8.55,1.55,8.07C0.81,7.54,0.29,6.75,0.08,5.86C-0.3,4.3,0.66,2.73,2.22,2.34
			c0.16-0.04,0.33-0.07,0.5-0.08C3.63,2.19,4.54,2.45,5.27,3c0.8,0.57,1.34,1.44,1.51,2.41C7.05,6.99,6,8.49,4.42,8.77
			C4.32,8.79,4.21,8.8,4.11,8.81C4,8.82,3.89,8.82,3.78,8.82z M3.04,2.38c-0.93-0.02-1.81,0.4-2.37,1.14
			C0.19,4.19,0.02,5.03,0.21,5.83c0.2,0.86,0.7,1.62,1.42,2.14C2.25,8.43,3,8.69,3.78,8.69c0.11,0,0.21,0,0.32-0.01
			c1.53-0.1,2.69-1.42,2.59-2.95c-0.01-0.1-0.02-0.2-0.04-0.3C6.49,4.49,5.97,3.66,5.19,3.11l0,0C4.57,2.64,3.82,2.39,3.04,2.38z"/>
		<path d="M13.2,9.12c1.22,0.79,1.57,2.42,0.78,3.65c-0.93,1.12-2.59,1.28-3.71,0.36C9.05,12.32,8.7,10.7,9.49,9.47
			C10.42,8.35,12.08,8.19,13.2,9.12z"/>
		<path d="M12.03,13.75c-0.64-0.01-1.27-0.21-1.78-0.6c-1.23-0.81-1.59-2.46-0.79-3.7c0.41-0.55,1.04-0.9,1.72-0.95
			c1.51-0.11,2.87,0.89,3.22,2.36c0.3,1.25-0.46,2.51-1.71,2.81c-0.13,0.03-0.26,0.05-0.39,0.06
			C12.21,13.74,12.12,13.75,12.03,13.75z M11.44,8.56c-0.09,0-0.17,0-0.26,0.01c-0.66,0.05-1.27,0.39-1.67,0.92
			c-0.77,1.21-0.43,2.81,0.77,3.59c0.5,0.37,1.11,0.58,1.74,0.58c0.75,0.02,1.47-0.33,1.92-0.93c0.39-0.54,0.52-1.22,0.37-1.87
			c-0.16-0.7-0.56-1.31-1.14-1.73l0,0C12.68,8.78,12.07,8.57,11.44,8.56z"/>
		<path d="M8.05,11.24c-0.68,0.01-1.34-0.21-1.88-0.62c-0.49-0.36-0.78-0.92-0.79-1.53c0-1.19,1.2-2.15,2.67-2.15
			s2.67,0.97,2.67,2.15c-0.01,0.6-0.3,1.17-0.79,1.53C9.4,11.03,8.73,11.25,8.05,11.24z M8.05,7.08c-1.39,0-2.52,0.9-2.52,2
			s1.13,2,2.52,2s2.52-0.9,2.52-2S9.44,7.08,8.05,7.08L8.05,7.08z"/>
		<path d="M6.27,9.15c-0.62,0-1.13-0.51-1.13-1.13c0-0.62,0.51-1.13,1.13-1.13C6.9,6.89,7.4,7.4,7.4,8.02
			C7.4,8.64,6.9,9.15,6.27,9.15z M6.27,7.07c-0.52,0-0.95,0.42-0.95,0.95s0.42,0.95,0.95,0.95s0.95-0.42,0.95-0.95
			C7.22,7.49,6.8,7.07,6.27,7.07L6.27,7.07z"/>
		<path d="M14.42,8.15c-1.53,1.12-3.59,0.93-4.59-0.44s-0.57-3.38,0.97-4.5s3.59-0.93,4.59,0.44S15.95,7.02,14.42,8.15z"/>
		<path d="M12.25,8.94c-0.11,0-0.22-0.01-0.33-0.02c-1.59-0.11-2.8-1.49-2.69-3.08c0.01-0.17,0.04-0.33,0.08-0.49
			c0.43-1.83,2.13-3.07,4-2.93c1.59,0.11,2.8,1.49,2.69,3.08C15.98,5.67,15.96,5.84,15.92,6c-0.2,0.89-0.72,1.67-1.46,2.2l0,0
			C13.82,8.67,13.04,8.93,12.25,8.94z M12.97,2.54c-0.77,0.01-1.51,0.26-2.13,0.72c-1.5,1.1-1.93,3.08-0.95,4.41
			c0.49,0.65,1.23,1.06,2.05,1.12c0.88,0.07,1.75-0.18,2.45-0.7l0,0c1.5-1.1,1.93-3.08,0.95-4.41c-0.49-0.65-1.23-1.06-2.05-1.12
			C13.19,2.55,13.08,2.54,12.97,2.54z"/>
		<path d="M9.71,9.15c-0.62,0-1.13-0.51-1.13-1.13c0-0.62,0.51-1.13,1.13-1.13c0.62,0,1.13,0.51,1.13,1.13
			C10.84,8.64,10.33,9.15,9.71,9.15z M9.71,7.07c-0.52,0-0.95,0.42-0.95,0.95s0.42,0.95,0.95,0.95s0.95-0.42,0.95-0.95
			C10.66,7.49,10.23,7.07,9.71,7.07L9.71,7.07z"/>
		<path d="M7.64,6.99c-0.01-0.21,0-0.42,0.02-0.62c0.06-0.36,0.03-0.73-0.1-1.07v0L7.41,4.94L7.28,5.15l0.09,0.02L7.34,5.34
			L7.12,5.3C7.07,5.29,7.04,5.24,7.05,5.19c0-0.01,0.01-0.02,0.01-0.03l0.28-0.47c0.03-0.04,0.08-0.06,0.12-0.03
			C7.49,4.67,7.5,4.69,7.51,4.7l0.22,0.52c0.14,0.37,0.18,0.77,0.12,1.16c-0.02,0.2-0.03,0.4-0.02,0.6L7.64,6.99z"/>
		<path d="M8.45,6.99L8.28,6.98c0.01-0.2,0-0.4-0.02-0.6C8.19,5.99,8.23,5.59,8.38,5.22l0.21-0.51c0.02-0.05,0.07-0.07,0.12-0.05
			c0.02,0.01,0.03,0.02,0.04,0.04l0.28,0.47C9.06,5.21,9.05,5.27,9,5.29C9,5.3,8.99,5.3,8.98,5.3L8.76,5.35L8.72,5.17l0.09-0.02
			L8.69,4.94L8.54,5.29v0c-0.13,0.34-0.16,0.71-0.1,1.07C8.46,6.58,8.47,6.78,8.45,6.99z"/>
		<path d="M7.82,12.5l-0.37-0.61c-0.01-0.01-0.01-0.03-0.01-0.04v-0.67h0.16v0.65l0.36,0.59L7.82,12.5z"/>
		<path d="M8.64,12.5l-0.37-0.61c-0.01-0.01-0.01-0.03-0.01-0.04v-0.67h0.16v0.65l0.36,0.59L8.64,12.5z"/>
	</g>
	<rect x="5.19" y="8.46" width="0.1" height="0.08"/>
	<path d="M5.3,8.55H5.18v-0.1H5.3V8.55z M5.2,8.54h0.09V8.47H5.2V8.54z"/>
	<path fill="#1A1A1A" d="M5.92,13.09c-1.12,0.92-2.78,0.77-3.71-0.35C1.42,11.52,1.77,9.89,2.99,9.1C4.11,8.17,5.77,8.33,6.7,9.45
		C7.49,10.67,7.14,12.3,5.92,13.09z"/>
	<path d="M4.16,13.72c-0.09,0-0.18,0-0.26-0.01c-1.28-0.09-2.25-1.19-2.16-2.48c0.01-0.13,0.03-0.27,0.06-0.4
		C2.15,9.31,3.61,8.3,5.17,8.5c1.27,0.17,2.16,1.34,1.99,2.61c-0.01,0.08-0.03,0.17-0.05,0.25c-0.16,0.72-0.58,1.35-1.18,1.77l0,0
		C5.42,13.51,4.8,13.72,4.16,13.72z M4.76,8.54C4.13,8.55,3.52,8.75,3.01,9.13c-0.58,0.42-0.99,1.03-1.15,1.73
		c-0.3,1.21,0.44,2.42,1.65,2.72c0.13,0.03,0.26,0.05,0.39,0.06c0.08,0.01,0.17,0.01,0.26,0.01c0.63-0.01,1.23-0.21,1.74-0.58l0,0
		c0.58-0.42,0.99-1.03,1.15-1.73c0.3-1.2-0.44-2.42-1.64-2.72C5.32,8.6,5.24,8.59,5.16,8.57C5.03,8.55,4.89,8.54,4.76,8.54z"/>
	<path fill="#1A1A1A" d="M5.23,3.05c1.54,1.13,1.98,3.16,0.98,4.53S3.14,9.15,1.59,8.02s-1.98-3.16-0.98-4.53S3.69,1.92,5.23,3.05z"
		/>
	<path d="M3.78,8.82C2.98,8.81,2.2,8.55,1.55,8.07C0.81,7.54,0.29,6.75,0.08,5.86C-0.3,4.3,0.66,2.73,2.22,2.34
		c0.16-0.04,0.33-0.07,0.5-0.08C3.63,2.19,4.54,2.45,5.27,3c0.8,0.57,1.34,1.44,1.51,2.41C7.05,6.99,6,8.49,4.42,8.77
		C4.32,8.79,4.21,8.8,4.11,8.81C4,8.82,3.89,8.82,3.78,8.82z M3.04,2.38c-0.93-0.02-1.81,0.4-2.37,1.14
		C0.19,4.19,0.02,5.03,0.21,5.83c0.2,0.86,0.7,1.62,1.42,2.14C2.25,8.43,3,8.69,3.78,8.69c0.11,0,0.21,0,0.32-0.01
		c1.53-0.1,2.69-1.42,2.59-2.95c-0.01-0.1-0.02-0.2-0.04-0.3C6.49,4.49,5.97,3.66,5.19,3.11l0,0C4.57,2.64,3.82,2.39,3.04,2.38z"/>
	<path fill="#7AC943" d="M3.88,6.48C3.3,5.94,3.26,5.02,3.81,4.43c0.47-0.65,1.37-0.79,2.02-0.33C6.41,4.65,6.45,5.57,5.9,6.16
		C5.43,6.8,4.53,6.95,3.88,6.48z"/>
	<path fill="none" d="M3.88,6.48C3.3,5.94,3.26,5.02,3.81,4.43c0.47-0.65,1.37-0.79,2.02-0.33C6.41,4.65,6.45,5.57,5.9,6.16
		C5.43,6.8,4.53,6.95,3.88,6.48z"/>
	<path d="M3.39,6.36C2.81,5.82,2.78,4.9,3.32,4.31c0.47-0.65,1.38-0.79,2.03-0.33c0.58,0.55,0.62,1.46,0.07,2.05
		C4.95,6.68,4.04,6.83,3.39,6.36z"/>
	<path fill="none" d="M3.39,6.36C2.81,5.82,2.78,4.9,3.32,4.31c0.47-0.65,1.38-0.79,2.03-0.33c0.58,0.55,0.62,1.46,0.07,2.05
		C4.95,6.68,4.04,6.83,3.39,6.36z"/>
	<path fill="#3FA9F5" d="M4.5,7.96C4.21,7.78,3.89,7.6,3.58,7.42C2.84,7.09,2.19,6.6,1.67,5.98C1.58,5.85,1.49,5.74,1.41,5.63
		C1.1,5.24,0.81,4.88,1.29,4.28c0.11-0.13,0.21-0.27,0.3-0.4C1.84,3.4,2.28,3.05,2.8,2.91c0.02,0,0.04,0,0.06,0l0.03,0
		c0.74,0.1,1.38,0.18,1.89,1.07C4.79,4.03,4.8,4.07,4.8,4.11C4.79,4.2,4.79,4.33,4.78,4.47C4.78,5.02,4.77,5.78,4.21,6.22
		C4.2,6.22,4.19,6.23,4.18,6.23L3.21,6.77c0.18,0.11,0.37,0.21,0.56,0.31c0.32,0.18,0.65,0.36,0.95,0.56L4.5,7.96z M2.83,3.3
		C2.43,3.37,2.2,3.7,1.91,4.1c-0.1,0.14-0.2,0.28-0.32,0.42C1.3,4.88,1.4,5.01,1.71,5.39C1.79,5.5,1.89,5.62,1.99,5.76
		C2.26,6.12,2.61,6.43,3,6.65L2.92,6.49L3.98,5.9C4.32,5.5,4.47,4.98,4.4,4.46c0-0.12,0-0.23,0.01-0.33C4,3.46,3.53,3.39,2.83,3.3
		L2.83,3.3z"/>
	<path fill="#FF7BAC" d="M3.02,5.81C2.5,5.8,2.08,5.37,2.09,4.84C2.1,4.32,2.54,3.9,3.06,3.91c0.52,0.01,0.93,0.43,0.93,0.95
		C3.98,5.39,3.55,5.81,3.02,5.81z"/>
	<path fill="none" d="M3.02,5.81C2.5,5.8,2.08,5.37,2.09,4.84C2.1,4.32,2.54,3.9,3.06,3.91c0.52,0.01,0.93,0.43,0.93,0.95
		C3.98,5.39,3.55,5.81,3.02,5.81z"/>
	<path fill="#3FA9F5" d="M3.45,5.4c-0.2,0.17-0.5,0.15-0.67-0.05c-0.17-0.2-0.15-0.5,0.05-0.67c0.2-0.17,0.5-0.15,0.67,0.05
		c0,0,0,0,0.01,0.01C3.68,4.93,3.65,5.23,3.45,5.4z"/>
	<path fill="none" d="M3.45,5.4c-0.2,0.17-0.5,0.15-0.67-0.05c-0.17-0.2-0.15-0.5,0.05-0.67c0.2-0.17,0.5-0.15,0.67,0.05
		c0,0,0,0,0.01,0.01C3.68,4.93,3.65,5.23,3.45,5.4z"/>
	<path fill="#3FA9F5" d="M4.58,8.03C4.18,7.79,3.76,7.61,3.32,7.49C2.66,7.37,2.07,7.03,1.62,6.52C1.56,6.44,1.51,6.35,1.44,6.25
		c-0.22-0.29-0.41-0.6-0.56-0.94C0.72,4.98,0.76,4.58,0.99,4.28c0.36-0.74,1.08-1.23,1.89-1.29h0.02C3.3,3.04,3.67,3.14,4.02,3.31
		c0.34,0.15,0.6,0.43,0.73,0.78c0.01,0.03,0.01,0.05,0.01,0.08C4.75,4.25,4.74,4.35,4.74,4.44c0.05,0.6-0.19,1.18-0.63,1.58
		L3.09,6.83l-0.24-0.3l1.02-0.81l0,0C4.22,5.39,4.4,4.91,4.35,4.43c0-0.09,0.01-0.17,0.02-0.26c-0.15-0.39-0.7-0.69-1.49-0.79
		C2.2,3.46,1.6,3.88,1.31,4.5c0,0.01-0.01,0.01-0.01,0.02C0.99,4.89,1.29,5.38,1.75,6.03c0.07,0.1,0.13,0.19,0.19,0.28
		c0.4,0.43,0.92,0.71,1.49,0.82c0.48,0.13,0.93,0.32,1.36,0.58L4.58,8.03z"/>
	<path fill="#0000FF" d="M5.11,8.11C5.04,8.22,4.76,8.18,4.49,8.03C4.21,7.87,4.04,7.64,4.1,7.53c0.07-0.11,0.34-0.08,0.62,0.08
		C5,7.77,5.17,7.99,5.11,8.11z"/>
	<path fill="#3FA9F5" d="M5.11,8.11C5.04,8.22,4.76,8.18,4.49,8.03C4.21,7.87,4.04,7.64,4.1,7.53c0.07-0.11,0.34-0.08,0.62,0.08
		C5,7.77,5.17,7.99,5.11,8.11z"/>
	<path fill="#1A1A1A" d="M13.2,9.12c1.22,0.79,1.57,2.42,0.78,3.65c-0.93,1.12-2.59,1.28-3.71,0.36C9.05,12.32,8.7,10.7,9.49,9.47
		C10.42,8.35,12.08,8.19,13.2,9.12z"/>
	<path d="M12.03,13.75c-0.64-0.01-1.27-0.21-1.78-0.6c-1.23-0.81-1.59-2.46-0.79-3.7c0.41-0.55,1.04-0.9,1.72-0.95
		c1.51-0.11,2.87,0.89,3.22,2.36c0.3,1.25-0.46,2.51-1.71,2.81c-0.13,0.03-0.26,0.05-0.39,0.06C12.21,13.74,12.12,13.75,12.03,13.75
		z M11.44,8.56c-0.09,0-0.17,0-0.26,0.01c-0.66,0.05-1.27,0.39-1.67,0.92c-0.77,1.21-0.43,2.81,0.77,3.59
		c0.5,0.37,1.11,0.58,1.74,0.58c0.75,0.02,1.47-0.33,1.92-0.93c0.39-0.54,0.52-1.22,0.37-1.87c-0.16-0.7-0.56-1.31-1.14-1.73l0,0
		C12.68,8.78,12.07,8.57,11.44,8.56z"/>
	<path fill="#F4FF1F" d="M8.05,11.16c-1.43,0-2.6-0.93-2.6-2.08S6.62,7,8.05,7s2.6,0.93,2.6,2.08S9.49,11.16,8.05,11.16z"/>
	<path d="M8.05,11.24c-0.68,0.01-1.34-0.21-1.88-0.62c-0.49-0.36-0.78-0.92-0.79-1.53c0-1.19,1.2-2.15,2.67-2.15
		s2.67,0.97,2.67,2.15c-0.01,0.6-0.3,1.17-0.79,1.53C9.4,11.03,8.73,11.25,8.05,11.24z M8.05,7.08c-1.39,0-2.52,0.9-2.52,2
		s1.13,2,2.52,2s2.52-0.9,2.52-2S9.44,7.08,8.05,7.08L8.05,7.08z"/>
	<path fill="#F2F2F2" d="M6.27,9.06c-0.57,0-1.04-0.47-1.04-1.04c0-0.57,0.47-1.04,1.04-1.04c0.57,0,1.04,0.47,1.04,1.04
		C7.31,8.59,6.85,9.06,6.27,9.06C6.27,9.06,6.27,9.06,6.27,9.06z"/>
	<path d="M6.27,9.15c-0.62,0-1.13-0.51-1.13-1.13c0-0.62,0.51-1.13,1.13-1.13C6.9,6.89,7.4,7.4,7.4,8.02
		C7.4,8.64,6.9,9.15,6.27,9.15z M6.27,7.07c-0.52,0-0.95,0.42-0.95,0.95s0.42,0.95,0.95,0.95s0.95-0.42,0.95-0.95
		C7.22,7.49,6.8,7.07,6.27,7.07L6.27,7.07z"/>
	<path fill="#1A1A1A" d="M14.42,8.15c-1.53,1.12-3.59,0.93-4.59-0.44s-0.57-3.38,0.97-4.5s3.59-0.93,4.59,0.44
		S15.95,7.02,14.42,8.15z"/>
	<path d="M12.25,8.94c-0.11,0-0.22-0.01-0.33-0.02c-1.59-0.11-2.8-1.49-2.69-3.08c0.01-0.17,0.04-0.33,0.08-0.49
		c0.43-1.83,2.13-3.07,4-2.93c1.59,0.11,2.8,1.49,2.69,3.08C15.98,5.67,15.96,5.84,15.92,6c-0.2,0.89-0.72,1.67-1.46,2.2l0,0
		C13.82,8.67,13.04,8.93,12.25,8.94z M12.97,2.54c-0.77,0.01-1.51,0.26-2.13,0.72c-1.5,1.1-1.93,3.08-0.95,4.41
		c0.49,0.65,1.23,1.06,2.05,1.12c0.88,0.07,1.75-0.18,2.45-0.7l0,0c1.5-1.1,1.93-3.08,0.95-4.41c-0.49-0.65-1.23-1.06-2.05-1.12
		C13.19,2.55,13.08,2.54,12.97,2.54z"/>
	<path fill="#7AC943" d="M14.76,7.27c-0.65,0.46-1.55,0.32-2.01-0.33c-0.54-0.58-0.51-1.49,0.07-2.04c0.65-0.46,1.55-0.32,2.01,0.33
		C15.37,5.82,15.34,6.73,14.76,7.27z"/>
	<path fill="none" d="M14.76,7.27c-0.65,0.46-1.55,0.32-2.01-0.33c-0.54-0.58-0.51-1.49,0.07-2.04c0.65-0.46,1.55-0.32,2.01,0.33
		C15.37,5.82,15.34,6.73,14.76,7.27z"/>
	<path d="M14.28,7.27c-0.65,0.46-1.55,0.32-2.01-0.33c-0.54-0.58-0.51-1.49,0.07-2.04c0.65-0.46,1.54-0.32,2.01,0.32
		C14.89,5.82,14.86,6.73,14.28,7.27z"/>
	<path fill="none" d="M14.28,7.27c-0.65,0.46-1.55,0.32-2.01-0.33c-0.54-0.58-0.51-1.49,0.07-2.04c0.65-0.46,1.54-0.32,2.01,0.32
		C14.89,5.82,14.86,6.73,14.28,7.27z"/>
	<path fill="#3FA9F5" d="M11.54,7.87c-0.29-0.02-0.56-0.18-0.71-0.43c-0.26-0.32-0.45-0.69-0.53-1.1c-0.08-0.4-0.01-0.82,0.22-1.16
		l0.1-0.14c0.25-0.46,0.63-0.83,1.09-1.08l0.23-0.15c0.69-0.44,1.53-0.58,2.33-0.38c0.41,0.14,0.73,0.47,0.85,0.89l-0.37,0.11
		c-0.08-0.3-0.31-0.54-0.61-0.64c-0.68-0.16-1.39-0.03-1.98,0.34l-0.23,0.15l-0.05,0.04l0.6,0.41l0.01,0.01
		c0.35,0.26,0.66,0.57,0.92,0.93c0.28,0.34,0.38,0.8,0.27,1.23c-0.21,0.69-0.52,0.73-1.26,0.83h-0.01
		c-0.15,0.02-0.29,0.05-0.43,0.08C11.82,7.84,11.68,7.86,11.54,7.87z M11.6,4.49c-0.28,0.19-0.51,0.45-0.67,0.76l-0.1,0.14
		c-0.3,0.6-0.18,1.32,0.29,1.8c0.27,0.34,0.36,0.32,0.74,0.23c0.16-0.04,0.31-0.07,0.47-0.09h0.01c0.71-0.09,0.8-0.11,0.94-0.56
		c0.2-0.65-0.57-1.36-1.04-1.73l-0.69-0.48L11.6,4.49z"/>
	<path fill="#FF7BAC" d="M11.86,7.05c-0.48,0.01-0.87-0.37-0.88-0.85c-0.01-0.48,0.37-0.87,0.85-0.88c0.48-0.01,0.87,0.37,0.88,0.85
		c0,0.01,0,0.01,0,0.02C12.71,6.66,12.33,7.04,11.86,7.05C11.86,7.05,11.86,7.05,11.86,7.05z"/>
	<path fill="none" d="M11.86,7.05c-0.48,0.01-0.87-0.37-0.88-0.85c-0.01-0.48,0.37-0.87,0.85-0.88c0.48-0.01,0.87,0.37,0.88,0.85
		c0,0.01,0,0.01,0,0.02C12.71,6.66,12.33,7.04,11.86,7.05C11.86,7.05,11.86,7.05,11.86,7.05z"/>
	<path fill="#0000FF" d="M12.16,6.68c-0.2,0.17-0.5,0.15-0.67-0.05c-0.17-0.2-0.15-0.5,0.05-0.67c0.2-0.17,0.5-0.15,0.67,0.05
		c0,0,0,0,0,0C12.38,6.22,12.35,6.51,12.16,6.68z"/>
	<path fill="#3FA9F5" d="M12.16,6.68c-0.2,0.17-0.5,0.15-0.67-0.05c-0.17-0.2-0.15-0.5,0.05-0.67c0.2-0.17,0.5-0.15,0.67,0.05
		c0,0,0,0,0,0C12.38,6.22,12.35,6.51,12.16,6.68z"/>
	<path fill="#3FA9F5" d="M11.66,8c-0.38,0-0.74-0.19-0.95-0.5c-0.29-0.37-0.49-0.79-0.6-1.24c-0.13-0.44-0.08-0.92,0.14-1.32
		l0.14-0.22c0.25-0.45,0.63-0.82,1.09-1.05l0.16-0.11C12,3.36,12.4,3.23,12.81,3.2c0.48-0.07,0.98-0.03,1.44,0.12
		c0.46,0.14,0.83,0.5,0.98,0.95l-0.37,0.11c-0.11-0.34-0.39-0.61-0.74-0.7c-0.75-0.23-1.56-0.16-2.26,0.2L11.7,3.99
		c-0.41,0.21-0.76,0.54-0.98,0.94l-0.14,0.22c-0.34,0.51-0.04,1.51,0.44,2.1c0.34,0.42,0.56,0.39,1.12,0.31
		c0.07-0.01,0.15-0.02,0.23-0.03l0.17-0.02c0.58-0.07,0.71-0.09,0.83-0.5c0.23-0.65,0.06-1.38-0.45-1.86l-1.34-0.56l0.15-0.36
		L13.1,4.8c0.02,0.01,0.03,0.02,0.04,0.03c0.34,0.27,0.57,0.64,0.65,1.07c0.09,0.41,0.07,0.83-0.05,1.23
		c-0.2,0.65-0.54,0.69-1.15,0.77l-0.17,0.02c-0.08,0.01-0.15,0.02-0.23,0.03C12.01,7.98,11.84,7.99,11.66,8z"/>
	<path fill="#F2F2F2" d="M9.71,9.06c-0.57,0-1.04-0.46-1.04-1.04s0.46-1.04,1.04-1.04c0.57,0,1.04,0.46,1.04,1.04l0,0
		C10.75,8.59,10.28,9.06,9.71,9.06z"/>
	<path d="M9.71,9.15c-0.62,0-1.13-0.51-1.13-1.13c0-0.62,0.51-1.13,1.13-1.13c0.62,0,1.13,0.51,1.13,1.13
		C10.84,8.64,10.33,9.15,9.71,9.15z M9.71,7.07c-0.52,0-0.95,0.42-0.95,0.95s0.42,0.95,0.95,0.95s0.95-0.42,0.95-0.95
		C10.66,7.49,10.23,7.07,9.71,7.07L9.71,7.07z"/>
	<path fill="#1A1A1A" d="M6.3,8.53c-0.29,0-0.52-0.23-0.52-0.52c0-0.29,0.23-0.52,0.52-0.52c0.29,0,0.52,0.23,0.52,0.52c0,0,0,0,0,0
		C6.82,8.3,6.59,8.53,6.3,8.53z"/>
	<path fill="none" d="M6.3,8.53c-0.29,0-0.52-0.23-0.52-0.52c0-0.29,0.23-0.52,0.52-0.52c0.29,0,0.52,0.23,0.52,0.52c0,0,0,0,0,0
		C6.82,8.3,6.59,8.53,6.3,8.53z"/>
	<path fill="#1A1A1A" d="M9.75,8.48c-0.29,0-0.52-0.23-0.52-0.52c0-0.29,0.23-0.52,0.52-0.52s0.52,0.23,0.52,0.52
		C10.27,8.24,10.04,8.48,9.75,8.48z"/>
	<path fill="none" d="M9.75,8.48c-0.29,0-0.52-0.23-0.52-0.52c0-0.29,0.23-0.52,0.52-0.52s0.52,0.23,0.52,0.52
		C10.27,8.24,10.04,8.48,9.75,8.48z"/>
	<path fill="#FF3366" d="M8.31,10.51c-0.3-0.01-0.59-0.09-0.85-0.24C7.21,10.16,7.04,9.9,7.05,9.62l0.23,0.03
		c-0.03,0.2,0.2,0.36,0.3,0.42c0.32,0.22,0.73,0.26,1.08,0.12c0.12-0.1,0.16-0.26,0.1-0.41c0-0.01,0-0.02,0-0.03V9.7H9v0.05
		c0.08,0.23,0,0.49-0.2,0.63C8.65,10.47,8.48,10.52,8.31,10.51z"/>
	<path d="M7.64,6.99c-0.01-0.21,0-0.42,0.02-0.62c0.06-0.36,0.03-0.73-0.1-1.07v0L7.41,4.94L7.28,5.15l0.09,0.02L7.34,5.34L7.12,5.3
		C7.07,5.29,7.04,5.24,7.05,5.19c0-0.01,0.01-0.02,0.01-0.03l0.28-0.47c0.03-0.04,0.08-0.06,0.12-0.03C7.49,4.67,7.5,4.69,7.51,4.7
		l0.22,0.52c0.14,0.37,0.18,0.77,0.12,1.16c-0.02,0.2-0.03,0.4-0.02,0.6L7.64,6.99z"/>
	<path d="M8.45,6.99L8.28,6.98c0.01-0.2,0-0.4-0.02-0.6C8.19,5.99,8.23,5.59,8.38,5.22l0.21-0.51c0.02-0.05,0.07-0.07,0.12-0.05
		c0.02,0.01,0.03,0.02,0.04,0.04l0.28,0.47C9.06,5.21,9.05,5.27,9,5.29C9,5.3,8.99,5.3,8.98,5.3L8.76,5.35L8.72,5.17l0.09-0.02
		L8.69,4.94L8.54,5.29v0c-0.13,0.34-0.16,0.71-0.1,1.07C8.46,6.58,8.47,6.78,8.45,6.99z"/>
	<path fill="#FF7BAC" d="M3.16,12.56c-0.6-0.58-0.62-1.54-0.04-2.15c0.49-0.68,1.43-0.85,2.12-0.37c0.6,0.58,0.62,1.54,0.04,2.15
		C4.79,12.87,3.85,13.04,3.16,12.56z"/>
	<path fill="none" d="M3.16,12.56c-0.6-0.58-0.62-1.54-0.04-2.15c0.49-0.68,1.43-0.85,2.12-0.37c0.6,0.58,0.62,1.54,0.04,2.15
		C4.79,12.87,3.85,13.04,3.16,12.56z"/>
	<path fill="#1A1A1A" d="M7.82,12.5l-0.37-0.61c-0.01-0.01-0.01-0.03-0.01-0.04v-0.67h0.16v0.65l0.36,0.59L7.82,12.5z"/>
	<path fill="#1A1A1A" d="M8.64,12.5l-0.37-0.61c-0.01-0.01-0.01-0.03-0.01-0.04v-0.67h0.16v0.65l0.36,0.59L8.64,12.5z"/>
	<path fill="#3FA9F5" d="M3.86,11.77c-0.27-0.22-0.23-0.72,0.1-1.11s0.8-0.53,1.07-0.31s0.22,0.72-0.1,1.11
		C4.61,11.85,4.13,11.99,3.86,11.77z"/>
	<path fill="none" d="M3.86,11.77c-0.27-0.22-0.23-0.72,0.1-1.11s0.8-0.53,1.07-0.31s0.22,0.72-0.1,1.11
		C4.61,11.85,4.13,11.99,3.86,11.77z"/>
	<path fill="#FF7BAC" d="M12.92,12.57c-0.69,0.48-1.64,0.31-2.12-0.38c-0.58-0.61-0.56-1.57,0.04-2.15
		c0.69-0.48,1.64-0.31,2.12,0.37C13.54,11.02,13.52,11.98,12.92,12.57z"/>
	<path fill="none" d="M12.92,12.57c-0.69,0.48-1.64,0.31-2.12-0.38c-0.58-0.61-0.56-1.57,0.04-2.15c0.69-0.48,1.64-0.31,2.12,0.37
		C13.54,11.02,13.52,11.98,12.92,12.57z"/>
	<path fill="#0000FF" d="M12.14,11.83c-0.27,0.22-0.75,0.08-1.07-0.31c-0.32-0.39-0.37-0.89-0.09-1.11s0.75-0.08,1.07,0.31
		C12.37,11.11,12.41,11.61,12.14,11.83z"/>
	<path fill="#3FA9F5" d="M12.14,11.83c-0.27,0.22-0.75,0.08-1.07-0.31c-0.32-0.39-0.37-0.89-0.09-1.11s0.75-0.08,1.07,0.31
		C12.37,11.11,12.41,11.61,12.14,11.83z"/>
	<path fill="#0000FF" d="M15.29,4.76c-0.14,0.09-0.43-0.1-0.66-0.43C14.4,4,14.32,3.66,14.45,3.56c0.13-0.09,0.43,0.1,0.66,0.43
		S15.43,4.67,15.29,4.76z"/>
	<path fill="#3FA9F5" d="M15.29,4.76c-0.14,0.09-0.43-0.1-0.66-0.43C14.4,4,14.32,3.66,14.45,3.56c0.13-0.09,0.43,0.1,0.66,0.43
		S15.43,4.67,15.29,4.76z"/>
	<rect x="10.68" y="8.54" width="0.1" height="0.08"/>
	<path d="M10.79,8.64h-0.12v-0.1h0.12V8.64z M10.69,8.62h0.09V8.55h-0.09V8.62z"/>
</g>
</svg>
