<?xml version="1.0" encoding="utf-8"?>
<!-- Generator: Adobe Illustrator 24.0.3, SVG Export Plug-In . SVG Version: 6.00 Build 0)  -->
<svg version="1.1" id="Capa_1" xmlns="http://www.w3.org/2000/svg" xmlns:xlink="http://www.w3.org/1999/xlink" x="0px" y="0px"
	 viewBox="0 0 16 16" enable-background="new 0 0 16 16" xml:space="preserve">
<path fill="#926DCC" d="M8.4,9.6C7.6,9.6,6,10.4,6,11.2c0,1.6,2.4,1.6,2.4,1.6V12c-0.44,0-0.8-0.36-0.8-0.8s0.36-0.8,0.8-0.8V9.6
	 M8.4,13.6c0,0-3.2-0.4-3.2-2c0-2.4,2.4-3,3.2-3v-1c-0.8,0-4,1.2-4,3.6c0,3.2,4,3.2,4,3.2V13.6 M6.86,4.02l0.95,0.42
	C8.15,2.5,9.07,1.2,9.07,1.2C8.73,2.02,8.5,2.7,8.36,3.24C9.33,1.24,11.29,0,11.29,0c-0.94,0.94-1.64,1.97-2.11,2.82
	c1.26-1.34,3.02-2.22,3.02-2.22c-2.15,1.38-3.12,3.56-3.36,4.17l0.44,0.06c0,0.42,0,0.8,0.2,1.1c0.61,1.51,3.73,1.64,3.73,5.26
	S9.98,16,8.26,16S2.8,15.22,2.8,11.2s3.96-4.06,4.66-5.66C7.56,5.23,6.86,4.02,6.86,4.02z"/>
</svg>
