<?xml version="1.0" encoding="utf-8"?>
<!-- Generator: Adobe Illustrator 24.0.3, SVG Export Plug-In . SVG Version: 6.00 Build 0)  -->
<svg version="1.1" id="Capa_1" xmlns="http://www.w3.org/2000/svg" xmlns:xlink="http://www.w3.org/1999/xlink" x="0px" y="0px"
	 viewBox="0 0 16 16" enable-background="new 0 0 16 16" xml:space="preserve">
<path fill-rule="evenodd" clip-rule="evenodd" fill="#3FA9F5" d="M8,12.05c-4.42,0-8-1.81-8-4.05s3.58-4.05,8-4.05S16,5.76,16,8
	S12.42,12.05,8,12.05 M4.54,6.75c0.36,0,0.61,0.07,0.73,0.21c0.12,0.13,0.15,0.37,0.09,0.69C5.29,8,5.16,8.23,4.97,8.37
	C4.78,8.52,4.49,8.59,4.11,8.59H3.53l0.35-1.84L4.54,6.75 M2.21,10.45h0.96l0.23-1.17h0.82c0.36,0,0.65-0.04,0.89-0.11
	c0.23-0.08,0.45-0.21,0.64-0.39C5.9,8.64,6.03,8.48,6.13,8.3c0.1-0.17,0.17-0.37,0.21-0.59C6.44,7.19,6.37,6.79,6.11,6.5
	C5.85,6.21,5.45,6.07,4.9,6.07H3.06L2.21,10.45 M7.04,4.9L6.19,9.29h0.95l0.49-2.51h0.76c0.24,0,0.4,0.04,0.47,0.12
	c0.07,0.08,0.09,0.23,0.05,0.44L8.53,9.29h0.97l0.39-2.05c0.09-0.41,0.02-0.71-0.18-0.91c-0.2-0.18-0.57-0.27-1.1-0.27H7.76L8,4.9
	L7.04,4.9 M12,6.75c0.37,0,0.61,0.07,0.73,0.21c0.12,0.13,0.15,0.37,0.09,0.69C12.75,8,12.62,8.23,12.43,8.37
	c-0.19,0.15-0.48,0.22-0.87,0.22H11l0.33-1.84L12,6.75 M9.67,10.45h0.96l0.23-1.17h0.81c0.37,0,0.67-0.04,0.9-0.11
	C12.8,9.09,13,8.97,13.2,8.79c0.16-0.15,0.29-0.31,0.39-0.49c0.1-0.17,0.17-0.37,0.21-0.59c0.1-0.52,0.03-0.93-0.23-1.21
	c-0.24-0.29-0.66-0.43-1.21-0.43h-1.83L9.67,10.45z"/>
</svg>
