<?xml version="1.0" encoding="utf-8"?>
<!-- Generator: Adobe Illustrator 24.0.3, SVG Export Plug-In . SVG Version: 6.00 Build 0)  -->
<svg version="1.1" id="Capa_1" xmlns="http://www.w3.org/2000/svg" xmlns:xlink="http://www.w3.org/1999/xlink" x="0px" y="0px"
	 viewBox="0 0 16 16" enable-background="new 0 0 16 16" xml:space="preserve">
<g>
	<path id="_x30_2_3_" fill="#FFFFFF" d="M10.42,0H3.67c-1.1,0-2,0.9-2,2v12c0,1.1,0.9,2,2,2h8.67c1.1,0,2-0.9,2-2V3.92L10.42,0z"/>
	<g>
		<path id="_x30_2_2_" fill="#3FA9F5" d="M10.14,0.67l3.53,3.53V14c0,0.74-0.6,1.33-1.33,1.33H3.67c-0.74,0-1.33-0.6-1.33-1.33V2
			c0-0.74,0.6-1.33,1.33-1.33H10.14 M10.42,0H3.67c-1.1,0-2,0.9-2,2v12c0,1.1,0.9,2,2,2h8.67c1.1,0,2-0.9,2-2V3.92L10.42,0L10.42,0z
			"/>
		<path id="_x30_2_1_" fill="#3FA9F5" d="M10.21,2.02V0l4.12,4.12h-2.02C11.16,4.12,10.21,3.18,10.21,2.02z"/>
	</g>
	<g>
		<rect x="4.29" y="5.96" fill="#3FA9F5" width="7.43" height="1.02"/>
		<rect x="4.29" y="7.97" fill="#3FA9F5" width="6.47" height="1.02"/>
		<rect x="4.29" y="9.97" fill="#3FA9F5" width="3.58" height="1.02"/>
		<rect x="4.29" y="11.98" fill="#3FA9F5" width="7.43" height="1.02"/>
	</g>
</g>
</svg>
