<?xml version="1.0" encoding="utf-8"?>
<!-- Generator: Adobe Illustrator 24.0.3, SVG Export Plug-In . SVG Version: 6.00 Build 0)  -->
<svg version="1.1" id="Capa_1" xmlns="http://www.w3.org/2000/svg" xmlns:xlink="http://www.w3.org/1999/xlink" x="0px" y="0px"
	 viewBox="0 0 16 16" enable-background="new 0 0 16 16" xml:space="preserve">
<g>
	<rect x="4.77" y="4.77" fill="#3FA9F5" width="1.29" height="1.29"/>
	<rect x="7.35" y="12.53" fill="#FF7BAC" width="1.29" height="1.29"/>
	<rect x="7.35" y="9.94" fill="#FF7BAC" width="1.29" height="1.29"/>
	<rect x="4.77" y="7.35" fill="#FF7BAC" width="1.29" height="1.29"/>
	<rect x="4.77" y="9.94" fill="#7AC943" width="1.29" height="1.29"/>
	<rect x="2.18" y="12.53" fill="#FF7BAC" width="1.29" height="1.29"/>
	<rect x="7.35" y="7.35" fill="#FF731E" width="1.29" height="1.29"/>
	<rect x="2.18" y="7.35" fill="#FF7BAC" width="1.29" height="1.29"/>
	<rect x="2.18" y="2.18" fill="#FF7BAC" width="1.29" height="1.29"/>
	<rect x="9.94" y="4.77" fill="#7AC943" width="1.29" height="1.29"/>
	<rect x="12.53" y="7.35" fill="#FF7BAC" width="1.29" height="1.29"/>
	<rect x="12.53" y="2.18" fill="#FF7BAC" width="1.29" height="1.29"/>
	<path opacity="0.5" fill="#BDCCD4" d="M15,0H1C0.45,0,0,0.45,0,1v14c0,0.55,0.45,1,1,1h14c0.55,0,1-0.45,1-1V1
		C16,0.45,15.55,0,15,0z M15.11,4.12c0,0.36-0.29,0.65-0.65,0.65h-1.94v1.29h1.94c0.36,0,0.65,0.29,0.65,0.65v2.59
		c0,0.36-0.29,0.65-0.65,0.65h-1.94v1.29h1.94c0.36,0,0.65,0.29,0.65,0.65v2.59c0,0.36-0.29,0.65-0.65,0.65h-2.59
		c-0.36,0-0.65-0.29-0.65-0.65v-1.94H9.94v1.94c0,0.36-0.29,0.65-0.65,0.65H6.71c-0.36,0-0.65-0.29-0.65-0.65v-1.94H4.77v1.94
		c0,0.36-0.29,0.65-0.65,0.65H1.54c-0.36,0-0.65-0.29-0.65-0.65v-2.59c0-0.36,0.29-0.65,0.65-0.65h1.94V9.94H1.54
		c-0.36,0-0.65-0.29-0.65-0.65V6.71c0-0.36,0.29-0.65,0.65-0.65h1.94V4.77H1.54c-0.36,0-0.65-0.29-0.65-0.65V1.54
		c0-0.36,0.29-0.65,0.65-0.65h2.59c0.36,0,0.65,0.29,0.65,0.65v1.94h1.29V1.54c0-0.36,0.29-0.65,0.65-0.65h2.59
		c0.36,0,0.65,0.29,0.65,0.65v1.94h1.29V1.54c0-0.36,0.29-0.65,0.65-0.65h2.59c0.36,0,0.65,0.29,0.65,0.65V4.12z"/>
	<rect x="7.35" y="4.77" fill="#FF7BAC" width="1.29" height="1.29"/>
	<rect x="12.53" y="12.53" fill="#FF7BAC" width="1.29" height="1.29"/>
	<rect x="7.35" y="2.18" fill="#FF7BAC" width="1.29" height="1.29"/>
	<rect x="9.94" y="7.35" fill="#FF7BAC" width="1.29" height="1.29"/>
	<rect x="9.94" y="9.94" fill="#3FA9F5" width="1.29" height="1.29"/>
</g>
</svg>
