<?xml version="1.0" encoding="utf-8"?>
<!-- Generator: Adobe Illustrator 24.0.3, SVG Export Plug-In . SVG Version: 6.00 Build 0)  -->
<svg version="1.1" id="Capa_1" xmlns="http://www.w3.org/2000/svg" xmlns:xlink="http://www.w3.org/1999/xlink" x="0px" y="0px"
	 viewBox="0 0 16 16" enable-background="new 0 0 16 16" xml:space="preserve">
<g>
	<path fill="#3FA9F5" d="M3,2h13l-3,12H0L3,2z"/>
	<g>
		<path fill="#FFFFFF" d="M9.62,8.09c0.03-0.18-0.03-0.36-0.15-0.5l-3.5-4C5.74,3.33,5.35,3.3,5.09,3.53
			C4.83,3.76,4.8,4.15,5.03,4.41l3.02,3.45l-4.89,3.11c-0.29,0.19-0.38,0.57-0.19,0.86c0.12,0.19,0.32,0.29,0.53,0.29
			c0.11,0,0.23-0.03,0.33-0.1l5.5-3.5C9.49,8.43,9.59,8.27,9.62,8.09z"/>
		<path fill="#FFFFFF" d="M11,10.88H8c-0.35,0-0.62,0.28-0.62,0.62S7.65,12.12,8,12.12h3c0.35,0,0.62-0.28,0.62-0.62
			S11.35,10.88,11,10.88z"/>
	</g>
</g>
</svg>
