<?xml version="1.0" encoding="utf-8"?>
<!-- Generator: Adobe Illustrator 24.0.3, SVG Export Plug-In . SVG Version: 6.00 Build 0)  -->
<svg version="1.1" id="Capa_1" xmlns="http://www.w3.org/2000/svg" xmlns:xlink="http://www.w3.org/1999/xlink" x="0px" y="0px"
	 viewBox="0 0 16 16" enable-background="new 0 0 16 16" xml:space="preserve">
<g>
	<path fill="#BDCCD4" d="M1.38,8.8H0.32C0.14,8.8,0,8.66,0,8.48V4.12C0,3.95,0.14,3.8,0.32,3.8h1.06c0.18,0,0.32,0.14,0.32,0.32
		v4.36C1.7,8.66,1.56,8.8,1.38,8.8z"/>
	<path fill="#666666" d="M2.04,4.33v3.8c0,0,0.99,0.07,2,0.97c0,0,0.94,0.56,2.3,0.44c0,0,0.57,0.07,1.91-0.15
		c0,0,0.46-0.18,1.47-0.01c0,0,1.34,0.16,1.38-0.58c0,0,0.26-0.98-1.37-1.37c0,0-1.13-0.16-2.33-0.31c0,0-1.16-0.52-0.1-1.43
		c0,0,1.16-0.28,1.72,0.15c0,0,0.74,0.63,0.91,0.52c0,0,0.65-0.69,1.84-0.91c0,0-2.46-2.56-4.75-1.94C7.03,3.51,2.81,4.39,2.04,4.33
		z"/>
	<path fill="#3FA9F5" d="M12.57,5.73c-1.12,0-2.12,0.54-2.74,1.37c0.71,0.17,1.2,0.47,1.45,0.89c0.23,0.38,0.19,0.73,0.16,0.85
		c-0.03,0.29-0.23,0.88-1.43,0.88c-0.18,0-0.32-0.01-0.33-0.02c0,0-0.01,0-0.01,0C9.5,9.69,9.34,9.67,9.18,9.66
		c0.24,1.66,1.67,2.93,3.39,2.93c1.89,0,3.43-1.53,3.43-3.43S14.47,5.73,12.57,5.73z"/>
</g>
</svg>
