<?xml version="1.0" encoding="utf-8"?>
<!-- Generator: Adobe Illustrator 24.0.3, SVG Export Plug-In . SVG Version: 6.00 Build 0)  -->
<svg version="1.1" id="Capa_1" xmlns="http://www.w3.org/2000/svg" xmlns:xlink="http://www.w3.org/1999/xlink" x="0px" y="0px"
	 viewBox="0 0 16 16" enable-background="new 0 0 16 16" xml:space="preserve">
<g transform="translate(-.25 -1.7109)">
	<path fill="#EFCCA3" d="M13.64,7.86c-0.02-0.55,0.05-1.04-0.2-1.45c-0.6-1.02-2.1-1.62-5.1-1.62v0.09H8.28h0.06V4.79
		c-3,0-4.57,0.6-5.17,1.64c-0.24,0.42-0.21,0.9-0.25,1.45C2.9,8.31,2.7,8.77,2.79,9.27c0.1,0.65,0.14,1.3,0.24,1.9
		c0.07,0.49,0.75,0.9,0.81,1.36c0.17,1.27,1.5,1.86,4.5,1.86v0.1H8.26h0.09v-0.1c3,0,4.27-0.59,4.43-1.86
		c0.06-0.47,0.69-0.87,0.76-1.36c0.1-0.6,0.14-1.25,0.24-1.9C13.86,8.77,13.66,8.3,13.64,7.86z"/>
	<path fill="#CCAC8D" d="M8.29,8.31c0.54,0.01,0.91,0.35,1.26,0.66c0.41,0.36,1.11,0.61,1.4,0.92s0.66,0.62,0.8,1.11
		c0.14,0.49,0.17,1.11,0.17,1.27s0.09,0.12,0.34,0c0.59-0.29,1.24-1.06,1.24-1.06c-0.07,0.49-0.71,0.92-0.77,1.39
		c-0.15,1.27-1.39,1.89-4.45,1.89H8.27h0.07"/>
	<path fill="#CCAC8D" d="M10.27,7.34c0.11,0.39,0.51,1.7-0.26,1.26c0,0,0.32,0.19,0.52,0.9c0.21,0.71,0.72,0.8,0.72,0.8
		s0.84,0.16,1.46-0.37c0.52-0.45,0.61-1.25,0.39-1.86c-0.22-0.6-0.62-0.79-1.21-0.91C11.3,7.01,10.13,6.9,10.27,7.34z"/>
	<circle cx="11.75" cy="8.76" r="1.1"/>
	<circle fill="#FFFFFF" cx="11.47" cy="8.27" r="0.29"/>
	<path fill="#EFCCA3" d="M10.08,8.71c0,0,0.99,0.67,1.52,1.34c0.54,0.66,0.52,0.79,0.52,0.79l-0.39,0.17c0,0-0.55-1.04-1.22-1.42
		C9.83,9.2,9.75,8.87,9.75,8.87L10.08,8.71z"/>
	<path fill="#CCAC8D" d="M8.33,8.31c-0.54,0.01-0.94,0.35-1.3,0.66C6.62,9.33,5.9,9.58,5.61,9.9s-0.67,0.62-0.81,1.11
		s-0.19,1.11-0.19,1.27s0.02,0.17-0.34,0c-0.59-0.27-1.24-1.06-1.24-1.06c0.07,0.49,0.71,0.92,0.77,1.39
		c0.17,1.27,1.41,1.89,4.47,1.89h0.06"/>
	<path fill="#56332B" d="M11.23,10.42C10.63,9.68,9.67,9,8.33,9H8.32c-1.34,0-2.3,0.69-2.9,1.42c-0.62,0.76-0.57,1.06-0.57,1.79
		c0,2.62,0.92,1.87,1.54,2.2c0.62,0.31,1.27,0.21,1.94,0.21h0.01c0.67,0,1.31,0.09,1.94-0.22c0.61-0.31,1.54,0.46,1.54-2.16
		C11.82,11.51,11.85,11.18,11.23,10.42z"/>
	<path fill="#442823" d="M8.27,9.65c0,0-0.09,1.21-0.26,1.45l0.32-0.07L8.27,9.65z"/>
	<path fill="#442823" d="M8.36,9.65c0,0,0.09,1.21,0.26,1.45l-0.32-0.07L8.36,9.65z"/>
	<path fill="#56332B" d="M7.31,9.36C7.18,9.07,7.63,8.61,8.34,8.6c0.71,0,1.16,0.46,1.04,0.76c-0.12,0.3-0.57,0.39-1.04,0.4
		C7.89,9.75,7.43,9.66,7.31,9.36z"/>
	<path d="M8.34,9.65c0-0.05,0.42-0.06,0.65-0.21c0,0-0.46,0.15-0.56,0.09c-0.1-0.05-0.12-0.2-0.12-0.2s-0.04,0.15-0.11,0.2
		C8.11,9.57,7.58,9.43,7.58,9.43s0.7,0.17,0.7,0.21S8.27,9.81,8.27,9.9c0,0.31,0,1.09,0.05,1.15c0.07,0.11,0.05-0.84,0.05-1.15
		C8.36,9.8,8.36,9.7,8.34,9.65z"/>
	<path fill="#7F4A41" d="M8.37,11.32c0.21,0,0.59,0.15,0.92,0.39c-0.32-0.36-0.71-0.61-0.92-0.61c-0.22,0-0.7,0.27-1.04,0.67
		C7.68,11.5,8.13,11.32,8.37,11.32z"/>
	<g>
		<path fill="#442823" d="M8.28,13.53c-0.47,0-0.94-0.15-1.36-0.26c-0.09-0.02-0.17,0.04-0.26,0.01c-0.79-0.25-1.42-0.67-1.81-1.21
			v0.12c0,2.62,0.92,1.89,1.54,2.2c0.62,0.31,1.27,0.21,1.94,0.21h0.01c0.67,0,1.31,0.09,1.94-0.22c0.61-0.31,1.54,0.45,1.54-2.17
			c0-0.1,0-0.2,0.01-0.29c-0.36,0.59-1.02,1.05-1.85,1.32c-0.07,0.02-0.25-0.04-0.32-0.02C9.19,13.37,8.79,13.53,8.28,13.53z"/>
		<path fill="#442823" d="M7.09,12.12c0,0-0.31,0.94-0.1,1.35l-0.29-0.12C6.71,13.34,6.92,12.39,7.09,12.12z"/>
		<path fill="#442823" d="M9.57,12.12c0,0,0.31,0.94,0.1,1.35l0.29-0.12C9.95,13.34,9.73,12.39,9.57,12.12z"/>
	</g>
	<path fill="#CCAC8D" d="M6.3,7.34C6.18,7.72,5.78,9.04,6.56,8.6c0,0-0.32,0.19-0.52,0.9s-0.72,0.8-0.72,0.8s-0.84,0.16-1.46-0.37
		C3.32,9.47,3.24,8.67,3.46,8.06s0.62-0.79,1.21-0.91C5.26,7.01,6.42,6.9,6.3,7.34z"/>
	<path d="M8.33,11.1c0.34,0,1.39,0.72,1.4,1.61v-0.05c0-0.92-0.85-1.66-1.4-1.66s-1.4,0.75-1.4,1.66v0.05
		C6.95,11.82,7.99,11.1,8.33,11.1z"/>
	<g>
		
			<ellipse transform="matrix(0.9683 -0.2497 0.2497 0.9683 -2.0225 2.4277)" fill="#331712" cx="8.56" cy="9.19" rx="0.1" ry="0.19"/>
		
			<ellipse transform="matrix(0.2963 -0.9551 0.9551 0.2963 -3.1315 14.1216)" fill="#331712" cx="8.02" cy="9.19" rx="0.19" ry="0.1"/>
	</g>
	<circle cx="4.87" cy="8.76" r="1.1"/>
	<circle fill="#FFFFFF" cx="5.16" cy="8.27" r="0.29"/>
	<path fill="#7F4A41" d="M8.66,8.77c0-0.01-0.29,0.12-0.36,0.14C8.22,8.9,7.93,8.76,7.93,8.77h0.36H8.66z"/>
	<path fill="#EFCCA3" d="M6.47,8.71c0,0-0.99,0.67-1.52,1.34s-0.52,0.79-0.52,0.79l0.39,0.17c0,0,0.55-1.04,1.22-1.42
		S6.8,8.87,6.8,8.87L6.47,8.71z"/>
	<g>
		<path fill="#CCAC8D" d="M4.31,6.71c0,0-0.34,0.92-1.09,1.31C3.22,8.02,4.4,7.89,4.31,6.71z"/>
		<path fill="#CCAC8D" d="M12.19,6.71c0,0,0.34,0.92,1.09,1.31C13.28,8.02,12.1,7.89,12.19,6.71z"/>
		<path fill="#CCAC8D" d="M10.05,8.44c0,0-0.74-0.77-1.72-0.8h0.01h0.01c-1,0.02-1.72,0.8-1.72,0.8c0.86-0.6,1.6-0.59,1.72-0.59
			C8.34,7.85,9.19,7.84,10.05,8.44z"/>
		<path fill="#CCAC8D" d="M9.19,6.81c0,0-0.37-0.52-0.87-0.54h0.01h0.01C7.97,6.29,7.48,6.81,7.48,6.81c0.42-0.41,0.86-0.4,0.86-0.4
			S8.76,6.4,9.19,6.81z"/>
		<path fill="#CCAC8D" d="M4.87,10.65c0,0-0.59,0.29-1.01,0.11H3.85c-0.37-0.21-0.56-0.85-0.56-0.85S3.66,11.03,4.87,10.65z"/>
		<path fill="#CCAC8D" d="M11.72,10.65c0,0,0.59,0.29,1.01,0.11c0.5-0.21,0.57-0.85,0.57-0.85S12.93,11.03,11.72,10.65z"/>
	</g>
	<path fill="#CCAC8D" d="M5.55,6.65c0.32-0.06,0.86-0.07,1.29,0.06c0.54,0.19,0.1,0.87,0.21,0.91S7.31,7.15,8.31,7.2
		c1.01,0.05,1.12,0.5,1.26,0.42c0.14-0.07-0.14-1.25,1.37-0.97c0,0-1.59-0.42-1.51,0.72c0,0-0.91-0.7-2.19-0.07
		C7.26,7.3,7.58,6.23,5.55,6.65z"/>
	<g>
		<path fill="#CCAC8D" d="M11.08,6.65c0.02,0,0.04,0.01,0.05,0.01C11.14,6.66,11.12,6.65,11.08,6.65z"/>
		<path fill="#CCAC8D" d="M11.08,6.65"/>
		<path fill="#CCAC8D" d="M5.11,5.11c0,0-1.35,1.7-1.55,2.35c-0.2,0.66-0.35,3.37-0.52,3.76L2.41,8.55l1.15-2.78L5.11,5.11z"/>
		<path fill="#CCAC8D" d="M11.45,5.11c0,0,1.35,1.7,1.55,2.35c0.2,0.66,0.35,3.37,0.52,3.76l0.62-2.67L13,5.76L11.45,5.11z"/>
	</g>
	<path fill="#56332B" d="M11.39,5.11c0,0,1.45,1.21,1.87,2.61s0.25,3.1,0.57,3.31c0.46,0.3,0.99-1.49,1.16-1.67
		c0.27-0.3,1.19-1.06,1.25-1.2c0.06-0.14-1.85-2.22-2.68-2.63C12.55,5.05,11.3,5.01,11.39,5.11z"/>
	<path fill="#442823" d="M12.63,5.86c0,0,1.71,2.19,1.69,4.91L15,9.37C14.99,9.37,14.39,7.59,12.63,5.86z"/>
	<path fill="#56332B" d="M5.11,5.11c0,0-1.45,1.21-1.87,2.61s-0.25,3.1-0.57,3.31C2.2,11.33,1.68,9.55,1.5,9.36
		c-0.27-0.3-1.19-1.06-1.25-1.2C0.19,8.02,2.1,5.94,2.94,5.53C3.95,5.05,5.2,5.01,5.11,5.11z"/>
	<path fill="#442823" d="M3.87,5.86c0,0-1.71,2.19-1.69,4.91l-0.67-1.4C1.51,9.37,2.11,7.59,3.87,5.86z"/>
	<path fill="#CCAC8D" d="M2.95,10.82c0,0,0.12,0.67,0.32,0.89c0.2,0.21,0.06-0.16,0.06-0.16s-0.21-0.11-0.17-0.97
		S2.95,10.82,2.95,10.82z"/>
	<path fill="#CCAC8D" d="M13.6,10.82c0,0-0.12,0.67-0.32,0.89s-0.06-0.16-0.06-0.16s0.21-0.11,0.17-0.97S13.6,10.82,13.6,10.82z"/>
	<g>
		<circle fill="#442823" cx="7.03" cy="10.31" r="0.1"/>
		<circle fill="#442823" cx="6.46" cy="10.91" r="0.1"/>
		<circle fill="#442823" cx="6.27" cy="10.31" r="0.1"/>
	</g>
	<g>
		<circle fill="#442823" cx="9.47" cy="10.31" r="0.1"/>
		<circle fill="#442823" cx="10.04" cy="10.91" r="0.1"/>
		<circle fill="#442823" cx="10.23" cy="10.31" r="0.1"/>
	</g>
</g>
</svg>
