<?xml version="1.0" encoding="utf-8"?>
<!-- Generator: Adobe Illustrator 24.0.3, SVG Export Plug-In . SVG Version: 6.00 Build 0)  -->
<svg version="1.1" id="Capa_1" xmlns="http://www.w3.org/2000/svg" xmlns:xlink="http://www.w3.org/1999/xlink" x="0px" y="0px"
	 viewBox="0 0 16 16" enable-background="new 0 0 16 16" xml:space="preserve">
<g>
	<path fill="#3FA9F5" d="M7.93,0.01c-4.06,0-3.8,1.77-3.8,1.77v1.83h3.86v0.58H2.6C2.6,4.18,0,3.86,0,8s2.29,3.97,2.29,3.97h1.32
		v-1.93c0,0-0.07-2.31,2.23-2.31h3.86c0,0,2.16,0.03,2.16-2.1v-3.5c0,0,0.33-2.13-3.91-2.13l0,0L7.93,0.01z M5.8,1.24
		c0.38-0.01,0.7,0.29,0.71,0.68C6.52,2.3,6.22,2.62,5.84,2.63s-0.7-0.29-0.71-0.68c0,0,0,0,0,0V1.94c0-0.39,0.31-0.7,0.69-0.7l0,0
		L5.8,1.24z"/>
	<path fill="#F4FF1F" d="M8.05,16c4.06,0,3.8-1.77,3.8-1.77V12.4H7.99v-0.58h5.41c0,0,2.6,0.29,2.6-3.83s-2.29-3.97-2.29-3.97h-1.34
		v1.91c0,0,0.07,2.31-2.23,2.31H6.27c0,0-2.16-0.03-2.16,2.1v3.53c0,0-0.33,2.13,3.91,2.13L8.05,16L8.05,16z M10.18,14.76
		c-0.38,0.01-0.7-0.29-0.71-0.68c-0.01-0.39,0.29-0.71,0.68-0.72c0.38-0.01,0.7,0.29,0.71,0.68c0,0,0,0,0,0v0.02
		c0,0.39-0.31,0.7-0.69,0.7c0,0,0,0,0,0H10.18L10.18,14.76z"/>
</g>
</svg>
