<?xml version="1.0" encoding="utf-8"?>
<!-- Generator: Adobe Illustrator 24.0.3, SVG Export Plug-In . SVG Version: 6.00 Build 0)  -->
<svg version="1.1" id="Capa_1" xmlns="http://www.w3.org/2000/svg" xmlns:xlink="http://www.w3.org/1999/xlink" x="0px" y="0px"
	 viewBox="0 0 16 16" enable-background="new 0 0 16 16" xml:space="preserve">
<path fill="#F2F2F2" d="M16,7.48c0-2.94-3.58-5.32-8-5.32c-4.42,0-8,2.38-8,5.32c0,2.53,2.66,4.65,6.22,5.19v1.18h2.29v-1.06
	c1.02-0.04,1.98-0.21,2.86-0.49l1.05,1.54h2.46v-0.08l-1.61-2.29C14.95,10.5,16,9.07,16,7.48z M3.17,7.85
	c0-2.02,2.74-3.66,6.12-3.66s6.12,1.64,6.12,3.66c0,1.23-1.02,2.32-2.58,2.98l-0.34-0.48c0.67-0.23,1.17-0.53,1.49-0.91
	c0.33-0.38,0.49-0.86,0.49-1.43c0-0.8-0.36-1.42-1.07-1.86c-0.71-0.44-1.73-0.66-3.04-0.66H6.22v5.52C4.4,10.38,3.17,9.2,3.17,7.85z
	 M11.7,9.06c-0.32,0.22-0.76,0.33-1.34,0.33H8.51V6.89h1.84c0.62,0,1.07,0.11,1.37,0.34c0.3,0.23,0.45,0.54,0.45,0.93
	C12.18,8.54,12.02,8.84,11.7,9.06z M9.29,11.51c-0.26,0-0.52-0.01-0.77-0.03v-0.69h1.83l0.42,0.62C10.29,11.47,9.8,11.51,9.29,11.51
	z"/>
</svg>
