<?xml version="1.0" encoding="utf-8"?>
<!-- Generator: Adobe Illustrator 24.0.3, SVG Export Plug-In . SVG Version: 6.00 Build 0)  -->
<svg version="1.1" id="Capa_1" xmlns="http://www.w3.org/2000/svg" xmlns:xlink="http://www.w3.org/1999/xlink" x="0px" y="0px"
	 viewBox="0 0 16 16" enable-background="new 0 0 16 16" xml:space="preserve">
<g>
	<polygon fill="#FF731E" points="0.95,0 2.55,14.36 8,16 13.45,14.36 15.05,0 	"/>
	<path fill="#F2F2F2" d="M12.29,10.88h1.14c-0.36,0.73-0.91,1.29-1.65,1.71c-0.85,0.47-1.88,0.71-3.1,0.71c-1.18,0-2.2-0.2-3.06-0.6
		c-0.86-0.4-1.5-0.99-1.91-1.76c-0.42-0.78-0.63-1.62-0.63-2.54c0-1,0.24-1.94,0.71-2.81c0.48-0.87,1.13-1.52,1.95-1.95
		s1.77-0.65,2.83-0.65c0.9,0,1.7,0.18,2.4,0.53c0.7,0.35,1.24,0.85,1.61,1.49c0.37,0.65,0.56,1.35,0.56,2.12
		c0,0.91-0.28,1.74-0.84,2.47c-0.7,0.93-1.61,1.39-2.71,1.39c-0.3,0-0.52-0.05-0.67-0.16c-0.15-0.1-0.25-0.26-0.3-0.46
		c-0.42,0.41-0.91,0.61-1.46,0.61c-0.59,0-1.09-0.2-1.48-0.61C5.3,9.96,5.1,9.42,5.1,8.74c0-0.84,0.24-1.61,0.71-2.3
		c0.57-0.84,1.31-1.27,2.2-1.27c0.64,0,1.11,0.24,1.41,0.73l0.13-0.6h1.42l-0.81,3.85c-0.05,0.24-0.08,0.4-0.08,0.47
		c0,0.09,0.02,0.16,0.06,0.2c0.04,0.04,0.09,0.07,0.15,0.07c0.17,0,0.39-0.1,0.67-0.31c0.36-0.27,0.66-0.64,0.89-1.09
		c0.23-0.46,0.34-0.93,0.34-1.42c0-0.88-0.32-1.62-0.95-2.21C10.59,4.27,9.7,3.97,8.56,3.97c-0.97,0-1.79,0.2-2.46,0.59
		c-0.67,0.4-1.18,0.95-1.52,1.67C4.23,6.95,4.06,7.69,4.06,8.47c0,0.75,0.19,1.44,0.57,2.06c0.38,0.62,0.92,1.07,1.6,1.35
		c0.69,0.28,1.48,0.43,2.36,0.43c0.85,0,1.59-0.12,2.2-0.36C11.42,11.72,11.91,11.36,12.29,10.88z M6.49,8.68
		c0,0.45,0.09,0.79,0.28,1C6.95,9.9,7.18,10,7.45,10c0.2,0,0.4-0.05,0.57-0.15c0.14-0.07,0.27-0.18,0.4-0.34
		C8.62,9.3,8.78,8.98,8.92,8.56c0.14-0.42,0.21-0.81,0.21-1.17c0-0.4-0.09-0.71-0.28-0.93C8.65,6.24,8.42,6.14,8.13,6.14
		c-0.31,0-0.59,0.12-0.85,0.36C7.02,6.73,6.82,7.07,6.69,7.51C6.56,7.95,6.49,8.34,6.49,8.68z"/>
</g>
</svg>
