<?xml version="1.0" encoding="utf-8"?>
<!-- Generator: Adobe Illustrator 24.0.3, SVG Export Plug-In . SVG Version: 6.00 Build 0)  -->
<svg version="1.1" id="Capa_1" xmlns="http://www.w3.org/2000/svg" xmlns:xlink="http://www.w3.org/1999/xlink" x="0px" y="0px"
	 viewBox="0 0 16 16" enable-background="new 0 0 16 16" xml:space="preserve">
<path fill="#FF731E" d="M7.5,1.89c0-0.26,0.21-0.48,0.48-0.48c0.26,0,0.48,0.21,0.48,0.48S8.24,2.36,7.98,2.36
	C7.71,2.36,7.5,2.15,7.5,1.89 M1.83,6.19c0-0.26,0.21-0.48,0.48-0.48c0.26,0,0.48,0.21,0.48,0.48c0,0.26-0.21,0.48-0.48,0.48
	C2.04,6.67,1.83,6.45,1.83,6.19 M13.17,6.21c0-0.26,0.21-0.48,0.48-0.48s0.48,0.21,0.48,0.48s-0.21,0.48-0.48,0.48
	S13.17,6.48,13.17,6.21L13.17,6.21 M3.2,6.86c0.22-0.1,0.32-0.35,0.22-0.57L3.21,5.81h0.83v3.74H2.37C2.16,8.83,2.1,8.07,2.18,7.32
	L3.2,6.86z M6.67,6.96v-1.1h1.98c0.1,0,0.72,0.12,0.72,0.58c0,0.38-0.47,0.52-0.86,0.52L6.67,6.96z M3.98,12.89
	c0-0.26,0.21-0.48,0.48-0.48c0.26,0,0.48,0.21,0.48,0.48c0,0.26-0.21,0.48-0.48,0.48C4.19,13.37,3.98,13.15,3.98,12.89 M11.02,12.91
	c0-0.26,0.21-0.48,0.48-0.48s0.48,0.21,0.48,0.48c0,0.26-0.21,0.48-0.48,0.48S11.02,13.18,11.02,12.91 M11.17,11.84
	c-0.23-0.05-0.46,0.1-0.51,0.33l-0.24,1.11c-1.55,0.7-3.34,0.7-4.88-0.02l-0.24-1.11c-0.05-0.23-0.28-0.38-0.51-0.33L3.8,12.02
	c-0.18-0.19-0.35-0.39-0.51-0.6h4.78c0.05,0,0.09-0.01,0.09-0.06V9.67c0-0.05-0.04-0.06-0.09-0.06h-1.4V8.54h1.51
	c0.14,0,0.74,0.04,0.93,0.81c0.06,0.24,0.19,1,0.28,1.25c0.09,0.28,0.46,0.83,0.85,0.83h2.47c-0.17,0.22-0.35,0.43-0.54,0.63
	L11.17,11.84z M13.83,7.37c0.03,0.34,0.04,0.68,0.01,1.02h-0.6c-0.06,0-0.08,0.04-0.08,0.1v0.28c0,0.65-0.37,0.79-0.69,0.83
	c-0.31,0.03-0.64-0.13-0.69-0.31c-0.18-1.01-0.48-1.23-0.95-1.6c0.59-0.37,1.2-0.93,1.2-1.66c0-0.8-0.55-1.3-0.92-1.55
	c-0.52-0.34-1.1-0.41-1.26-0.41H3.64C4.5,3.08,5.65,2.43,6.91,2.19l0.73,0.77c0.17,0.17,0.44,0.18,0.61,0.01l0.82-0.78
	c1.69,0.32,3.16,1.36,4.01,2.85l-0.56,1.27c-0.1,0.22,0,0.48,0.22,0.57L13.83,7.37z M15.23,7.39l-0.02-0.2l0.58-0.54
	c0.12-0.11,0.07-0.33-0.08-0.39l-0.74-0.28L14.91,5.8l0.46-0.64c0.09-0.13,0.01-0.34-0.15-0.36l-0.78-0.13l-0.09-0.17l0.33-0.72
	c0.07-0.15-0.06-0.33-0.22-0.33l-0.79,0.03l-0.12-0.15l0.18-0.77c0.04-0.16-0.12-0.32-0.28-0.28l-0.77,0.18l-0.15-0.12l0.03-0.79
	c0.01-0.16-0.18-0.29-0.33-0.22l-0.72,0.33l-0.17-0.09L11.2,0.78c-0.03-0.16-0.23-0.24-0.36-0.15L10.2,1.09l-0.19-0.06L9.73,0.29
	C9.68,0.14,9.46,0.1,9.35,0.22L8.81,0.79l-0.2-0.02L8.2,0.1c-0.08-0.14-0.31-0.14-0.39,0L7.39,0.77l-0.2,0.02L6.65,0.22
	C6.54,0.1,6.32,0.14,6.27,0.29L5.99,1.03L5.8,1.09L5.16,0.63C5.03,0.53,4.82,0.62,4.8,0.78L4.67,1.56L4.49,1.65L3.78,1.32
	C3.63,1.26,3.44,1.38,3.45,1.54l0.03,0.79L3.32,2.46L2.55,2.28C2.4,2.24,2.24,2.4,2.28,2.56l0.18,0.77L2.33,3.48L1.54,3.45
	c-0.16,0-0.29,0.18-0.22,0.33l0.33,0.72L1.56,4.67L0.78,4.8C0.62,4.82,0.53,5.03,0.63,5.16L1.09,5.8L1.03,5.99L0.29,6.27
	C0.14,6.32,0.1,6.54,0.22,6.65l0.58,0.54l-0.02,0.2L0.1,7.8c-0.14,0.08-0.14,0.31,0,0.39l0.67,0.42l0.02,0.2L0.22,9.35
	C0.1,9.46,0.14,9.68,0.29,9.73l0.74,0.28l0.06,0.19l-0.46,0.64c-0.09,0.13-0.01,0.34,0.15,0.36l0.78,0.13l0.09,0.18l-0.33,0.72
	c-0.07,0.15,0.06,0.33,0.22,0.33l0.79-0.03l0.12,0.15l-0.18,0.77c-0.04,0.16,0.12,0.31,0.28,0.28l0.77-0.18l0.15,0.12l-0.03,0.79
	c-0.01,0.16,0.18,0.29,0.33,0.22l0.72-0.33l0.17,0.09l0.13,0.78c0.03,0.16,0.23,0.24,0.36,0.15l0.64-0.46l0.19,0.06l0.28,0.74
	c0.06,0.15,0.28,0.19,0.39,0.08l0.54-0.58l0.2,0.02L7.8,15.9c0.08,0.14,0.31,0.14,0.39,0l0.42-0.67l0.2-0.02l0.54,0.58
	c0.11,0.12,0.33,0.07,0.39-0.08l0.28-0.74l0.19-0.06l0.64,0.46c0.13,0.09,0.34,0.01,0.36-0.15l0.13-0.78l0.17-0.09l0.72,0.33
	c0.15,0.07,0.33-0.06,0.33-0.22l-0.03-0.79l0.15-0.12l0.77,0.18c0.16,0.04,0.32-0.12,0.28-0.28l-0.18-0.77l0.12-0.15l0.79,0.03
	c0.16,0.01,0.29-0.18,0.22-0.33l-0.33-0.72l0.09-0.18l0.78-0.13c0.16-0.03,0.24-0.23,0.15-0.36l-0.46-0.64l0.06-0.19l0.74-0.28
	c0.15-0.06,0.19-0.28,0.08-0.39l-0.58-0.54l0.02-0.2L15.9,8.2c0.14-0.08,0.14-0.31,0-0.39L15.23,7.39z"/>
</svg>
