<?xml version="1.0" encoding="utf-8"?>
<!-- Generator: Adobe Illustrator 24.0.3, SVG Export Plug-In . SVG Version: 6.00 Build 0)  -->
<svg version="1.1" id="Capa_1" xmlns="http://www.w3.org/2000/svg" xmlns:xlink="http://www.w3.org/1999/xlink" x="0px" y="0px"
	 viewBox="0 0 16 16" enable-background="new 0 0 16 16" xml:space="preserve">
<g>
	<path fill="#3FA9F5" d="M2.74,9.16c0-0.19-0.07-0.34-0.2-0.44S2.16,8.51,1.81,8.4C1.46,8.29,1.19,8.18,0.98,8.07
		c-0.55-0.3-0.83-0.7-0.83-1.21c0-0.26,0.07-0.5,0.22-0.71s0.36-0.37,0.64-0.48C1.29,5.55,1.6,5.49,1.95,5.49
		c0.35,0,0.66,0.06,0.93,0.19s0.48,0.3,0.64,0.53C3.67,6.45,3.74,6.71,3.74,7H2.74c0-0.22-0.07-0.4-0.21-0.52
		C2.39,6.36,2.19,6.29,1.93,6.29c-0.25,0-0.44,0.05-0.57,0.16c-0.14,0.1-0.2,0.24-0.2,0.41c0,0.16,0.08,0.29,0.24,0.4
		c0.16,0.11,0.39,0.21,0.71,0.3C2.67,7.73,3.09,7.95,3.35,8.2c0.26,0.25,0.39,0.57,0.39,0.95c0,0.42-0.16,0.75-0.48,0.99
		s-0.75,0.36-1.29,0.36c-0.38,0-0.72-0.07-1.03-0.21S0.41,9.98,0.24,9.74C0.08,9.5,0,9.22,0,8.91h1.01c0,0.54,0.32,0.81,0.97,0.81
		c0.24,0,0.43-0.05,0.56-0.15C2.67,9.47,2.74,9.33,2.74,9.16z"/>
	<path fill="#3FA9F5" d="M8.26,8.81c-0.04,0.53-0.23,0.94-0.58,1.24c-0.35,0.3-0.81,0.45-1.38,0.45c-0.63,0-1.12-0.21-1.48-0.63
		c-0.36-0.42-0.54-1-0.54-1.73v-0.3c0-0.47,0.08-0.88,0.25-1.24c0.17-0.36,0.4-0.63,0.71-0.82C5.54,5.59,5.9,5.49,6.31,5.49
		c0.56,0,1.02,0.15,1.36,0.45c0.34,0.3,0.54,0.73,0.6,1.27H7.26C7.23,6.9,7.15,6.67,6.99,6.53C6.84,6.39,6.61,6.32,6.31,6.32
		c-0.34,0-0.59,0.12-0.75,0.36S5.3,7.29,5.3,7.8v0.37c0,0.53,0.08,0.91,0.24,1.16s0.41,0.37,0.76,0.37c0.31,0,0.54-0.07,0.7-0.21
		c0.15-0.14,0.24-0.36,0.26-0.66H8.26z"/>
	<path fill="#3FA9F5" d="M10.23,5.56l1.25,3.54l1.25-3.54h1.32v4.88h-1.01V9.11l0.1-2.3l-1.32,3.64h-0.69L9.82,6.81l0.1,2.3v1.33
		H8.92V5.56H10.23z"/>
	<path fill="#3FA9F5" d="M16,10.44h-1.01V5.56H16V10.44z"/>
</g>
</svg>
