<?xml version="1.0" encoding="utf-8"?>
<!-- Generator: Adobe Illustrator 24.0.3, SVG Export Plug-In . SVG Version: 6.00 Build 0)  -->
<svg version="1.1" id="Capa_1" xmlns="http://www.w3.org/2000/svg" xmlns:xlink="http://www.w3.org/1999/xlink" x="0px" y="0px"
	 viewBox="0 0 16 16" enable-background="new 0 0 16 16" xml:space="preserve">
<path fill="#FF7BAC" d="M13.78,8.9c-0.5,0-1,0.12-1.45,0.34C12.18,9,12.08,8.75,12,8.49c-0.04-0.21-0.05-0.42-0.03-0.63
	c0.05-0.23,0.11-0.46,0.19-0.68c0-0.03-0.03-0.17-0.36-0.17c-0.32,0-0.6,0.06-0.63,0.15c-0.06,0.16-0.1,0.31-0.13,0.48
	c-0.27,0.66-0.59,1.29-0.98,1.88c-0.22-0.35-0.3-0.77-0.25-1.18C9.86,8.1,9.92,7.87,10,7.65c0-0.03-0.03-0.17-0.36-0.17
	c-0.32,0-0.6,0.06-0.63,0.15C8.99,7.71,8.95,7.91,8.88,8.1c-0.07,0.19-0.85,1.93-1.05,2.38c-0.11,0.23-0.2,0.41-0.26,0.54l0,0
	c0,0.01-0.01,0.02-0.01,0.02c-0.06,0.11-0.09,0.17-0.09,0.17v0c-0.04,0.08-0.09,0.15-0.11,0.15c-0.04-0.16-0.04-0.33,0.01-0.5
	c0.11-0.61,0.39-1.55,0.39-1.58c0-0.02,0.05-0.18-0.18-0.27C7.46,8.98,7.33,9,7.24,9.09c-0.02,0-0.03,0.05-0.03,0.05
	s0.25-1.06-0.49-1.06C6.14,8.2,5.63,8.54,5.31,9.04c-0.2,0.11-0.62,0.34-1.08,0.59c-0.17,0.1-0.35,0.19-0.52,0.29
	C3.71,9.9,3.69,9.89,3.68,9.88C2.78,8.92,1.13,8.24,1.2,6.96c0.03-0.47,0.19-1.69,3.18-3.19C6.84,2.56,8.79,2.9,9.13,3.64
	c0.49,1.06-1.05,3.04-3.59,3.33C4.97,7.08,4.38,6.93,3.93,6.56C3.8,6.42,3.78,6.41,3.73,6.44c-0.08,0.04-0.03,0.18,0,0.25
	c0.2,0.35,0.53,0.61,0.92,0.72c1,0.22,2.04,0.11,2.98-0.3c1.54-0.6,2.74-2.25,2.39-3.64C9.67,2.06,7.33,1.6,5.12,2.39
	c-1.39,0.47-2.67,1.2-3.77,2.16C0.13,5.69-0.06,6.68,0.02,7.09c0.29,1.47,2.31,2.43,3.13,3.14c-0.04,0.02-0.08,0.04-0.11,0.06
	c-0.41,0.2-1.95,1.01-2.34,1.87c-0.44,0.97,0.07,1.67,0.41,1.76c1.04,0.25,2.12-0.19,2.69-1.09c0.48-0.74,0.57-1.67,0.24-2.49
	c0-0.01-0.01-0.01-0.01-0.02l0.32-0.19c0.21-0.12,0.41-0.24,0.59-0.33c-0.12,0.34-0.19,0.7-0.21,1.06
	c-0.04,0.56,0.13,1.11,0.48,1.54c0.11,0.09,0.25,0.14,0.39,0.13c0.34,0,0.5-0.29,0.67-0.63c0.21-0.41,0.4-0.9,0.4-0.9
	s-0.24,1.3,0.41,1.3c0.23,0,0.47-0.3,0.58-0.46v0c0,0,0.01-0.01,0.02-0.03l0.04-0.06v-0.01c0.09-0.16,0.3-0.53,0.62-1.15
	c0.4-0.79,0.79-1.79,0.79-1.79c0.04,0.22,0.09,0.43,0.15,0.65c0.09,0.26,0.21,0.51,0.33,0.75c-0.09,0.13-0.15,0.2-0.15,0.2l0,0
	c-0.08,0.1-0.16,0.21-0.25,0.31c-0.27,0.3-0.52,0.61-0.75,0.94c-0.07,0.11-0.04,0.27,0.07,0.34c0.12,0.06,0.26,0.09,0.39,0.06
	c0.2-0.01,0.4-0.06,0.59-0.13c0.18-0.06,0.35-0.15,0.51-0.27c0.32-0.22,0.51-0.6,0.49-1c-0.02-0.24-0.08-0.48-0.18-0.7
	c0.03-0.04,0.06-0.08,0.08-0.12c0.32-0.48,0.62-0.99,0.88-1.51c0.04,0.22,0.09,0.43,0.15,0.65c0.08,0.22,0.17,0.44,0.29,0.64
	c-0.37,0.29-0.67,0.67-0.86,1.1c-0.18,0.53-0.04,0.77,0.23,0.83c0.15,0.01,0.3-0.02,0.43-0.09c0.19-0.06,0.38-0.16,0.54-0.28
	c0.35-0.21,0.58-0.58,0.6-0.99c-0.01-0.2-0.06-0.4-0.13-0.58c0.49-0.19,1.03-0.25,1.55-0.18c1.39,0.16,1.67,1.03,1.61,1.4
	c-0.05,0.26-0.21,0.49-0.44,0.63c-0.1,0.06-0.13,0.08-0.12,0.13c0.01,0.06,0.06,0.06,0.14,0.05c0.43-0.13,0.73-0.52,0.76-0.97
	C16.04,9.83,15.22,8.89,13.78,8.9L13.78,8.9z M3.05,12.52c-0.46,0.5-1.1,0.69-1.38,0.53c-0.3-0.17-0.18-0.91,0.39-1.45
	c0.34-0.3,0.7-0.57,1.09-0.81c0.07-0.04,0.17-0.1,0.29-0.17l0.03-0.02l0,0l0.07-0.04C3.73,11.25,3.55,12,3.05,12.52z M6.41,10.23
	c-0.16,0.39-0.5,1.39-0.7,1.34c-0.18-0.05-0.29-0.81-0.03-1.56c0.13-0.36,0.31-0.7,0.55-1c0.25-0.28,0.53-0.37,0.6-0.26
	C6.75,9.26,6.61,9.76,6.41,10.23z M9.18,11.56c-0.07,0.03-0.13,0.06-0.16,0.04C9,11.59,9.05,11.54,9.05,11.54S9.39,11.17,9.53,11
	c0.08-0.1,0.17-0.22,0.27-0.35v0.04C9.8,11.14,9.37,11.44,9.18,11.56L9.18,11.56z M11.32,11.07c-0.05-0.03-0.04-0.15,0.13-0.52
	c0.12-0.23,0.28-0.44,0.48-0.61c0.03,0.09,0.05,0.18,0.05,0.27C11.97,10.61,11.71,10.97,11.32,11.07L11.32,11.07z"/>
</svg>
