<?xml version="1.0" encoding="utf-8"?>
<!-- Generator: Adobe Illustrator 24.0.3, SVG Export Plug-In . SVG Version: 6.00 Build 0)  -->
<svg version="1.1" id="Capa_1" xmlns="http://www.w3.org/2000/svg" xmlns:xlink="http://www.w3.org/1999/xlink" x="0px" y="0px"
	 viewBox="0 0 16 16" enable-background="new 0 0 16 16" xml:space="preserve">
<g>
	<path fill="#3FA9F5" d="M14.08,15.95c-0.18-0.06-1.02-0.82-2.21-2.02l-1.92-1.92l-0.65,0.3c-0.98,0.46-1.73,0.62-2.85,0.62
		c-2.12,0-3.87-0.88-5.16-2.58C-1.37,6.82,0.28,1.65,4.51,0.27C5.2,0.04,5.52,0,6.49,0c1.01,0,1.27,0.04,2,0.28
		c2.41,0.82,4.06,2.81,4.43,5.35c0.18,1.23-0.08,2.64-0.7,3.86L12,9.94l1.96,1.98c1.41,1.42,1.98,2.06,2.02,2.28
		c0.07,0.33-0.05,0.86-0.29,1.22C15.41,15.85,14.62,16.11,14.08,15.95z M7.84,11.87c2.44-0.63,4.18-2.88,4.18-5.39
		s-1.74-4.76-4.18-5.39c-0.75-0.19-2.04-0.19-2.8,0C3.2,1.57,1.6,3.18,1.11,5.02c-0.19,0.77-0.19,2.06,0,2.81
		c0.49,1.9,2.09,3.53,3.98,4.03C5.82,12.05,7.11,12.06,7.84,11.87z"/>
	<path fill="#7AC943" d="M4.33,7.86c-0.47-0.48-0.85-0.9-0.85-0.95c0-0.11,0.28-0.4,0.39-0.4c0.05,0,0.41,0.31,0.8,0.7l0.7,0.7
		l1.84-1.84C8.24,5.06,9.1,4.24,9.15,4.24c0.16,0,0.39,0.29,0.34,0.43c-0.02,0.08-0.92,1.02-1.99,2.1C5.98,8.31,5.53,8.72,5.38,8.72
		C5.23,8.72,4.98,8.51,4.33,7.86z"/>
</g>
</svg>
