<?xml version="1.0" encoding="utf-8"?>
<!-- Generator: Adobe Illustrator 24.0.3, SVG Export Plug-In . SVG Version: 6.00 Build 0)  -->
<svg version="1.1" id="Capa_1" xmlns="http://www.w3.org/2000/svg" xmlns:xlink="http://www.w3.org/1999/xlink" x="0px" y="0px"
	 viewBox="0 0 16 16" enable-background="new 0 0 16 16" xml:space="preserve">
<g>
	<path fill="#7AC943" d="M14.17,7.42c-0.05-0.59-0.18-1.16-0.39-1.7l1.44-1.15l-2.34-2.93l-1.43,1.15c-0.49-0.33-1.03-0.59-1.6-0.77
		V0.19H6.11v1.83C5.52,2.21,4.96,2.49,4.45,2.85L3,1.73L0.7,4.69l1.47,1.15c-0.2,0.55-0.31,1.12-0.35,1.7L0,7.97l0.87,3.65
		l1.28-0.31c0.63-0.63,1.2-1.2,1.95-1.95c-1-2.7,1.01-5.59,3.9-5.59c2.29,0,4.15,1.86,4.15,4.15c0,2.83-2.78,4.83-5.46,3.94
		c-0.21,0.21-2.43,2.43-2.78,2.78l2.47,1.17l0.82-1.74c0.57,0.07,1.13,0.07,1.69-0.01l0.84,1.72l3.37-1.65l-0.84-1.72
		c0.42-0.4,0.77-0.84,1.06-1.34l1.84,0.41L16,7.82L14.17,7.42z"/>
	<path fill="#CCCCCC" d="M10.67,6.85L10.4,6.18L8.82,8.77L7.11,7.06l2.58-1.58L9.03,5.21C6.44,4.18,4.05,7.01,5.4,9.38
		c-3.5,3.5-0.51,0.51-4.71,4.71l1.22,1.22c2.44-2.44,0.07-0.07,4.75-4.75C9.06,11.72,11.65,9.32,10.67,6.85z"/>
</g>
</svg>
