<?xml version="1.0" encoding="utf-8"?>
<!-- Generator: Adobe Illustrator 24.0.3, SVG Export Plug-In . SVG Version: 6.00 Build 0)  -->
<svg version="1.1" id="Capa_1" xmlns="http://www.w3.org/2000/svg" xmlns:xlink="http://www.w3.org/1999/xlink" x="0px" y="0px"
	 viewBox="0 0 16 16" enable-background="new 0 0 16 16" xml:space="preserve">
<g>
	<rect x="1.01" y="0.65" fill="#B3B3B3" width="13.05" height="15.35"/>
	<rect x="5.47" fill="#4D4D4D" width="9.52" height="6.92"/>
	<rect x="6.86" y="14.08" fill="#4D4D4D" width="6.39" height="0.74"/>
	<g>
		<path fill="#333333" d="M9.46,12.2H8.88l-0.22,1.23H8.12l0.22-1.23H7.66v-0.51h0.77l0.15-0.85H7.88v-0.52h0.79l0.22-1.25h0.54
			l-0.22,1.25h0.58l0.22-1.25h0.55l-0.22,1.25H11v0.52h-0.75l-0.15,0.85h0.67v0.51h-0.76l-0.22,1.23H9.25L9.46,12.2z M8.97,11.68
			h0.58l0.15-0.85H9.12L8.97,11.68z"/>
		<path fill="#333333" d="M11.97,12.56c0.15,0,0.26,0.04,0.35,0.13c0.09,0.09,0.13,0.2,0.13,0.33c0,0.13-0.04,0.24-0.13,0.33
			c-0.09,0.09-0.21,0.13-0.35,0.13c-0.14,0-0.26-0.04-0.35-0.13c-0.09-0.09-0.13-0.19-0.13-0.33c0-0.13,0.04-0.24,0.13-0.33
			C11.71,12.6,11.83,12.56,11.97,12.56z M12.33,12.09h-0.72l-0.1-3.02h0.92L12.33,12.09z"/>
	</g>
</g>
</svg>
