<?xml version="1.0" encoding="utf-8"?>
<!-- Generator: Adobe Illustrator 24.0.3, SVG Export Plug-In . SVG Version: 6.00 Build 0)  -->
<svg version="1.1" id="Capa_1" xmlns="http://www.w3.org/2000/svg" xmlns:xlink="http://www.w3.org/1999/xlink" x="0px" y="0px"
	 viewBox="0 0 16 16" enable-background="new 0 0 16 16" xml:space="preserve">
<g>
	<g>
		<path fill="#333333" d="M13.66,2.34C12.15,0.83,10.14,0,8,0C5.86,0,3.85,0.83,2.34,2.34C0.83,3.85,0,5.86,0,8
			c0,2.14,0.83,4.15,2.34,5.66C3.86,15.17,5.86,16,8,16c2.14,0,4.15-0.83,5.66-2.34C15.17,12.14,16,10.14,16,8
			C16,5.86,15.17,3.85,13.66,2.34L13.66,2.34z M8.45,14.16"/>
	</g>
	<path fill="#7AC943" d="M14.17,8c0,0.97-0.23,1.89-0.63,2.71h-2.89c0.2-0.19,0.37-0.4,0.52-0.63l0,0l0.08-0.14
		c0.02-0.03,0.04-0.06,0.05-0.09l2.41-4.17C14.01,6.4,14.17,7.18,14.17,8L14.17,8z"/>
	<path fill="#7AC943" d="M4.83,5.92L4.74,6.05C4.72,6.08,4.71,6.12,4.69,6.15l-2.41,4.17C1.99,9.6,1.83,8.82,1.83,8
		c0-0.97,0.23-1.89,0.63-2.71h2.89C5.16,5.48,4.98,5.69,4.83,5.92L4.83,5.92z"/>
	<path fill="#7AC943" d="M13.13,4.56l-1.45,2.5c-0.11-0.42-0.29-0.82-0.52-1.17L8.81,1.88C10.61,2.12,12.16,3.13,13.13,4.56
		L13.13,4.56z"/>
	<path fill="#7AC943" d="M7.54,1.84L9,4.34C8.73,4.27,8.45,4.22,8.16,4.21l-5.03,0C4.17,2.87,5.75,1.98,7.54,1.84L7.54,1.84z"/>
	<path fill="#7AC943" d="M2.87,11.44l1.45-2.5C4.39,9.2,4.49,9.46,4.61,9.7l2.56,4.42C5.39,13.88,3.84,12.87,2.87,11.44L2.87,11.44z
		"/>
	<path fill="#7AC943" d="M8.45,14.16l-1.46-2.5c0.24,0.07,0.49,0.11,0.75,0.13l5.13,0.01C11.82,13.13,10.24,14.03,8.45,14.16
		L8.45,14.16z"/>
	<path fill="#3FA9F5" d="M6.2,8.57C5.89,8.57,5.63,8.32,5.63,8c0-1.31,1.06-2.37,2.37-2.37c0.31,0,0.57,0.25,0.57,0.57
		c0,0.31-0.25,0.57-0.57,0.57C7.32,6.77,6.76,7.32,6.76,8C6.76,8.31,6.51,8.57,6.2,8.57L6.2,8.57z"/>
</g>
</svg>
