<?xml version="1.0" encoding="utf-8"?>
<!-- Generator: Adobe Illustrator 24.0.3, SVG Export Plug-In . SVG Version: 6.00 Build 0)  -->
<svg version="1.1" id="Capa_1" xmlns="http://www.w3.org/2000/svg" xmlns:xlink="http://www.w3.org/1999/xlink" x="0px" y="0px"
	 viewBox="0 0 16 16" enable-background="new 0 0 16 16" xml:space="preserve">
<g>
	<path fill="#F4FF1F" d="M3.75,7.57C5.11,8.05,6.55,8.29,8,8.26c1.45,0.03,2.89-0.2,4.25-0.68c1.07-0.42,1.44-0.88,1.44-1.14V4.4
		c-0.37,0.25-0.77,0.46-1.19,0.61C11.06,5.53,9.53,5.78,8,5.76C6.47,5.78,4.94,5.53,3.5,5.02C3.08,4.86,2.68,4.65,2.31,4.4v2.03
		C2.31,6.7,2.69,7.16,3.75,7.57z"/>
	<path fill="#F4FF1F" d="M3.75,11.41c0.48,0.18,0.98,0.33,1.49,0.42c0.91,0.18,1.84,0.26,2.76,0.26c0.93,0,1.85-0.08,2.76-0.26
		c0.51-0.1,1-0.24,1.49-0.42c1.07-0.42,1.44-0.88,1.44-1.14V8.33c-0.31,0.19-0.63,0.34-0.97,0.47C11.21,9.34,9.61,9.6,8,9.57
		C6.39,9.59,4.79,9.33,3.27,8.8C2.94,8.67,2.61,8.51,2.31,8.32v1.94C2.31,10.53,2.69,10.99,3.75,11.41z"/>
	<path fill="#F4FF1F" d="M8,16c3.14,0,5.69-1,5.69-2.23v-1.62c-0.28,0.17-0.57,0.31-0.88,0.44l-0.09,0.04
		c-1.52,0.54-3.12,0.8-4.73,0.77c-1.61,0.03-3.21-0.23-4.73-0.77c-0.03-0.01-0.06-0.02-0.09-0.04c-0.3-0.12-0.6-0.27-0.88-0.44v1.62
		C2.31,15,4.86,16,8,16z"/>
	<ellipse fill="#F4FF1F" cx="8" cy="2.2" rx="5.69" ry="2.2"/>
</g>
</svg>
