<?xml version="1.0" encoding="utf-8"?>
<!-- Generator: Adobe Illustrator 24.0.3, SVG Export Plug-In . SVG Version: 6.00 Build 0)  -->
<svg version="1.1" id="Capa_1" xmlns="http://www.w3.org/2000/svg" xmlns:xlink="http://www.w3.org/1999/xlink" x="0px" y="0px"
	 viewBox="0 0 16 16" enable-background="new 0 0 16 16" xml:space="preserve">
<g>
	<path fill="#FF731E" d="M2.47,10.73c0.41-0.5,0.46-1.01,0.14-1.96C2.4,8.17,2.07,7.7,2.31,7.33c0.26-0.4,0.83-0.01,0.36,0.52
		l0.09,0.07c0.56,0.07,0.84-0.7,0.42-0.92C2.08,6.41,1.11,7.52,1.54,8.81c0.18,0.55,0.44,1.12,0.23,1.58
		c-0.13,0.33-0.41,0.57-0.76,0.64c-0.48,0.02-0.16-1.09,0.39-1.36c0.05-0.02,0.12-0.06,0.05-0.14c-0.55-0.1-1.09,0.18-1.32,0.69
		C-0.54,11.5,1.42,11.97,2.47,10.73z"/>
	<path fill="#FF731E" d="M14.55,6.94c0.16,0.39,0.4,0.78,0.26,1.12c-0.12,0.29-0.27,0.41-0.44,0.44c-0.24,0.04-0.17-0.71,0.24-0.94
		c0.04-0.02,0.09-0.12,0.04-0.17c-0.41-0.05-0.8,0.17-0.97,0.55c-0.46,0.96,1.04,1.23,1.78,0.28c0.29-0.38,0.31-0.75,0.02-1.43
		c-0.18-0.43-0.45-0.75-0.28-1.04c0.18-0.3,0.62-0.04,0.29,0.36l0.07,0.04c0.43,0.02,0.6-0.55,0.28-0.69
		c-0.54-0.2-1.14,0.09-1.34,0.63C14.39,6.37,14.41,6.68,14.55,6.94z"/>
	<path fill="#FF731E" d="M9.11,5.91c-0.3-0.24-1.13,0.16-1.37,0.74c-0.28,0.82-0.67,1.6-1.17,2.31c-0.46,0.5-0.5,0.11-0.46-0.17
		c0.22-0.96,0.61-1.87,1.13-2.7c-0.13-0.2-1.01-0.17-1.62,0.78C5.4,7.22,4.88,8.41,4.31,9.35c-0.13,0.2-0.29,0.06-0.16-0.41
		c0.27-1.11,0.63-2.19,1.07-3.25c1.3-0.27,2.62-0.43,3.95-0.47c0.15-0.04,0.25-0.17,0-0.18c-1.26,0-2.52,0.08-3.77,0.25
		c0.18-0.43,0.46-0.82,0.83-1.11C5.75,3.97,5.2,4.15,4.93,4.59C4.76,4.86,4.6,5.14,4.47,5.42C3.7,5.52,2.93,5.69,2.19,5.92
		c-0.45,0.17-0.4,0.71-0.13,0.61C2.78,6.27,3.51,6.06,4.25,5.9C3.78,6.94,3.43,8.03,3.18,9.14C2.93,10.57,3.81,10.56,4.24,10
		c0.47-0.61,1.44-2.77,1.59-3c0.04-0.08,0.11-0.04,0.07,0.03c-1.09,2.18-1,3.02-0.11,2.83c0.53-0.24,0.97-0.63,1.27-1.12
		C7.1,8.66,7.17,8.66,7.16,8.7C6.47,10.49,5.59,11.95,5,12.4c-0.54,0.41-0.94-0.48,0.96-1.76c0.28-0.19,0.15-0.45-0.17-0.36l0,0
		c-1.76,0.36-3.46,1.01-5.02,1.9C0.68,12.25,0.6,12.3,0.6,12.43c0,0.08,0.14,0.05,0.2,0.01c1.35-0.81,2.84-1.37,4.4-1.64
		c0.02,0.01,0.04,0.01,0.07,0c0.07-0.02,0.07,0.02,0.02,0.05c-0.1,0.06-0.2,0.11-0.23,0.12c-1.01,0.39-1.62,1.27-1.4,1.71
		c0.18,0.38,1.17,0.24,1.64-0.01c1.15-0.62,1.98-1.84,2.55-3.53C8.34,7.65,8.97,5.96,9.11,5.91z"/>
	<path fill="#FF731E" d="M15.78,9.35c-2.57-0.18-5.15,0.01-7.67,0.55c-0.53,0.14-0.38,0.42-0.11,0.37c0,0,0.12-0.03,0.12-0.03
		c2.34-0.39,4.72-0.44,7.07-0.14C15.43,10.15,16.18,9.41,15.78,9.35z"/>
	<path fill="#FF731E" d="M9.63,9.13c0.52-0.26,1.29-1.87,1.8-2.75c0.04-0.07,0.1-0.01,0.07,0.03c-1.29,2.21-0.74,2.47-0.23,2.44
		c0.68-0.04,1.31-1.02,1.44-1.24c0.06-0.09,0.09-0.02,0.06,0.04c-0.03,0.1-0.15,0.28-0.26,0.53c-0.15,0.35,0.01,0.48,0.14,0.54
		c0.21,0.1,0.79,0.04,0.88-0.32c-0.58-0.01,0.81-2.74,0.95-2.9c-0.5-0.19-1.06,0.06-1.26,0.56c-0.58,1.15-1.07,2.08-1.38,2.1
		c-0.59,0.03,0.69-2.57,0.89-2.65C12.61,5.32,11.8,5.4,11.35,6.1c-0.16,0.25-1.16,2.01-1.4,2.3C9.52,8.91,9.49,8.47,9.61,7.96
		c0.05-0.22,0.12-0.44,0.2-0.65c0.18-0.4,0.44-0.76,0.78-1.05c1.26-1.4,1.98-2.53,1.69-2.97c-0.25-0.39-1.09-0.22-1.64,0.59
		c-1,1.49-1.92,3.54-2.03,4.47S9.17,9.36,9.63,9.13z M10.16,6.4c0.04-0.1,0.07-0.13,0.15-0.3l0,0c0.38-0.88,0.85-1.72,1.4-2.51
		c0.24-0.25,0.58,0.09-0.03,1.03c-0.35,0.54-0.75,1.05-1.21,1.51v0c-0.11,0.13-0.22,0.23-0.26,0.29C10.17,6.46,10.14,6.45,10.16,6.4
		z"/>
</g>
</svg>
