<?xml version="1.0" encoding="utf-8"?>
<!-- Generator: Adobe Illustrator 24.0.3, SVG Export Plug-In . SVG Version: 6.00 Build 0)  -->
<svg version="1.1" id="Capa_1" xmlns="http://www.w3.org/2000/svg" xmlns:xlink="http://www.w3.org/1999/xlink" x="0px" y="0px"
	 viewBox="0 0 16 16" enable-background="new 0 0 16 16" xml:space="preserve">
<g>
	<path fill="#FF7BAC" d="M12.53,4.77h-0.65c-0.36,0-0.65-0.29-0.65-0.65V3.47H4.77v0.65c0,0.36-0.29,0.65-0.65,0.65H3.47v6.46h0.65
		c0.36,0,0.65,0.29,0.65,0.65v0.65h6.46v-0.65c0-0.36,0.29-0.65,0.65-0.65h0.65V4.77z"/>
	<rect x="2.18" y="2.18" fill="#7AC943" width="1.29" height="1.29"/>
	<rect x="2.18" y="12.53" fill="#FF1D25" width="1.29" height="1.29"/>
	<rect x="12.53" y="12.53" fill="#FF731E" width="1.29" height="1.29"/>
	<path opacity="0.5" fill="#BDCCD4" d="M15.11,0H0.89C0.4,0,0,0.4,0,0.89v14.22C0,15.6,0.4,16,0.89,16h14.22
		C15.6,16,16,15.6,16,15.11V0.89C16,0.4,15.6,0,15.11,0z M15.11,4.12c0,0.36-0.29,0.65-0.65,0.65h-0.65v6.46h0.65
		c0.36,0,0.65,0.29,0.65,0.65v2.59c0,0.36-0.29,0.65-0.65,0.65h-2.59c-0.36,0-0.65-0.29-0.65-0.65v-0.65H4.77v0.65
		c0,0.36-0.29,0.65-0.65,0.65H1.54c-0.36,0-0.65-0.29-0.65-0.65v-2.59c0-0.36,0.29-0.65,0.65-0.65h0.65V4.77H1.54
		c-0.36,0-0.65-0.29-0.65-0.65V1.54c0-0.36,0.29-0.65,0.65-0.65h2.59c0.36,0,0.65,0.29,0.65,0.65v0.65h6.46V1.54
		c0-0.36,0.29-0.65,0.65-0.65h2.59c0.36,0,0.65,0.29,0.65,0.65V4.12z"/>
	<rect x="12.53" y="2.18" fill="#3FA9F5" width="1.29" height="1.29"/>
</g>
</svg>
