<?xml version="1.0" encoding="utf-8"?>
<!-- Generator: Adobe Illustrator 24.0.3, SVG Export Plug-In . SVG Version: 6.00 Build 0)  -->
<svg version="1.1" id="Capa_1" xmlns="http://www.w3.org/2000/svg" xmlns:xlink="http://www.w3.org/1999/xlink" x="0px" y="0px"
	 viewBox="0 0 16 16" enable-background="new 0 0 16 16" xml:space="preserve">
<path fill="#FF731E" d="M12.07,14.17c-1.89,1.09-4.47,1.2-7.09,0.08C2.87,13.36,1.12,11.79,0,10c0.54,0.44,1.17,0.8,1.84,1.12
	c2.7,1.26,5.38,1.17,7.28,0c-2.7-2.07-4.99-4.77-6.69-6.97C2.06,3.79,1.8,3.35,1.53,2.95c6.62,4.84,6.33,6.07,1.93-0.81
	C7.37,6.09,11,8.33,11,8.33c0.13,0.07,0.2,0.13,0.29,0.18c0.08-0.2,0.15-0.41,0.21-0.62c0.63-2.28-0.09-4.89-1.66-7.05
	c3.64,2.2,5.8,6.33,4.89,9.79c-0.02,0.09-0.05,0.18-0.04,0.31c1.79,2.26,1.31,4.62,1.08,4.17C14.8,13.2,12.98,13.79,12.07,14.17z"/>
</svg>
