<?xml version="1.0" encoding="utf-8"?>
<!-- Generator: Adobe Illustrator 24.0.3, SVG Export Plug-In . SVG Version: 6.00 Build 0)  -->
<svg version="1.1" id="Capa_1" xmlns="http://www.w3.org/2000/svg" xmlns:xlink="http://www.w3.org/1999/xlink" x="0px" y="0px"
	 viewBox="0 0 16 16" enable-background="new 0 0 16 16" xml:space="preserve">
<g>
	<path fill="#CCCCCC" d="M11.81,0H0.71C0.32,0,0,0.32,0,0.71v2.76h12.52V0.71C12.52,0.32,12.2,0,11.81,0z"/>
	<path fill="#CCCCCC" d="M0.71,16h11.09c0.39,0,0.71-0.32,0.71-0.71v-2.76H0v2.76C0,15.68,0.32,16,0.71,16z"/>
	<rect y="4.17" fill="#CCCCCC" width="12.52" height="3.48"/>
	<path fill="#3FA9F5" d="M15.26,8.35H4.22c-0.41,0-0.74,0.33-0.74,0.74v2c0,0.41,0.33,0.74,0.74,0.74h11.04
		c0.41,0,0.74-0.33,0.74-0.74v-2C16,8.68,15.67,8.35,15.26,8.35z"/>
</g>
</svg>
