<?xml version="1.0" encoding="utf-8"?>
<!-- Generator: Adobe Illustrator 24.0.3, SVG Export Plug-In . SVG Version: 6.00 Build 0)  -->
<svg version="1.1" id="Capa_1" xmlns="http://www.w3.org/2000/svg" xmlns:xlink="http://www.w3.org/1999/xlink" x="0px" y="0px"
	 viewBox="0 0 16 16" enable-background="new 0 0 16 16" xml:space="preserve">
<g>
	<path fill="#BDCCD4" d="M15,16H1c-0.55,0-1-0.45-1-1V1c0-0.55,0.45-1,1-1h14c0.55,0,1,0.45,1,1v14C16,15.55,15.55,16,15,16z"/>
	<path fill="#926DCC" stroke="#000000" stroke-width="0.25" stroke-miterlimit="10" d="M6.62,10.26H3.77l-0.54,1.62H1.5L4.43,4h1.51
		l2.95,7.88H7.16L6.62,10.26z M4.21,8.95h1.97L5.19,6L4.21,8.95z"/>
	<path fill="#3FA9F5" stroke="#000000" stroke-width="0.25" stroke-miterlimit="10" d="M12.92,11.89c-0.07-0.14-0.12-0.32-0.16-0.53
		C12.38,11.78,11.89,12,11.28,12c-0.57,0-1.05-0.17-1.43-0.5s-0.57-0.75-0.57-1.26c0-0.62,0.23-1.1,0.69-1.43s1.13-0.5,2-0.5h0.72
		V7.97c0-0.27-0.07-0.49-0.21-0.65c-0.14-0.16-0.36-0.24-0.66-0.24c-0.26,0-0.47,0.06-0.62,0.19c-0.15,0.13-0.22,0.3-0.22,0.52H9.42
		c0-0.34,0.1-0.65,0.31-0.94c0.21-0.29,0.51-0.52,0.89-0.68c0.38-0.16,0.81-0.25,1.29-0.25c0.72,0,1.29,0.18,1.72,0.54
		c0.42,0.36,0.64,0.87,0.64,1.53v2.54c0,0.56,0.08,0.98,0.23,1.26v0.09H12.92z M11.62,10.8c0.23,0,0.44-0.05,0.64-0.15
		s0.34-0.24,0.43-0.41V9.22h-0.58c-0.78,0-1.2,0.27-1.25,0.81l-0.01,0.09c0,0.19,0.07,0.36,0.21,0.48S11.39,10.8,11.62,10.8z"/>
</g>
</svg>
