<?xml version="1.0" encoding="utf-8"?>
<!-- Generator: Adobe Illustrator 24.0.3, SVG Export Plug-In . SVG Version: 6.00 Build 0)  -->
<svg version="1.1" id="Capa_1" xmlns="http://www.w3.org/2000/svg" xmlns:xlink="http://www.w3.org/1999/xlink" x="0px" y="0px"
	 viewBox="0 0 16 16" enable-background="new 0 0 16 16" xml:space="preserve">
<g>
	<g>
		<path fill-rule="evenodd" clip-rule="evenodd" fill="#F2F2F2" d="M6.12,9.09l0,2.69c0,1.48,0,2.7,0.01,2.71l0.01,0.03h0.69
			c0.62,0,0.69,0,0.7-0.02c0-0.01,0.01-1.23,0.01-2.71V9.09l0.95,0l0.95,0V8.48c0-0.53,0-0.61-0.02-0.62
			C9.4,7.85,8.86,7.85,7.91,7.84h0l0,0c-0.32,0-0.68,0-1.08,0c-2.09,0-2.57,0.01-2.58,0.02C4.23,7.88,4.23,8,4.23,8.48v0.6l0.95,0
			L6.12,9.09z"/>
		<path fill-rule="evenodd" clip-rule="evenodd" fill="#F2F2F2" d="M11.72,14.57c0.23,0.03,0.61,0.04,0.88,0.02
			c0.18-0.01,0.35-0.05,0.54-0.1c0.69-0.2,1.16-0.63,1.33-1.22c0.07-0.24,0.1-0.53,0.08-0.78c-0.05-0.51-0.2-0.87-0.51-1.18
			c-0.29-0.29-0.68-0.52-1.46-0.86c-0.67-0.3-0.85-0.41-0.95-0.62c-0.08-0.18-0.07-0.43,0.04-0.58c0.12-0.18,0.38-0.27,0.66-0.23
			c0.26,0.03,0.43,0.14,0.6,0.37c0.09,0.12,0.15,0.18,0.17,0.18c0.03,0,0.15-0.08,0.53-0.33c0.38-0.26,0.51-0.34,0.51-0.37
			c0.01-0.04-0.05-0.14-0.22-0.35c-0.35-0.43-0.77-0.66-1.3-0.72c-0.13-0.01-0.31-0.02-0.46-0.02v0l0,0c-0.09,0-0.18,0-0.24,0.01
			c-0.49,0.04-0.96,0.26-1.27,0.59c-0.16,0.17-0.3,0.41-0.37,0.63C10.2,9.24,10.2,9.23,10.2,9.6c0,0.48,0.02,0.59,0.19,0.91
			c0.16,0.32,0.41,0.58,0.77,0.81c0.16,0.1,0.56,0.3,0.89,0.44c0.71,0.31,0.94,0.45,1.04,0.66l0.04,0.09v0.18
			c0,0.17,0,0.18-0.04,0.25c-0.08,0.17-0.27,0.3-0.51,0.37c-0.09,0.02-0.13,0.03-0.34,0.03c-0.2,0-0.25,0-0.34-0.03
			c-0.16-0.04-0.3-0.1-0.4-0.17c-0.13-0.09-0.39-0.34-0.49-0.49c-0.05-0.07-0.09-0.12-0.1-0.12c-0.02,0-0.9,0.5-1.05,0.6
			c-0.05,0.03-0.06,0.05-0.06,0.07c0,0.05,0.21,0.37,0.37,0.55C10.48,14.15,11.14,14.48,11.72,14.57z"/>
	</g>
	<path fill-rule="evenodd" clip-rule="evenodd" fill="#3FA9F5" d="M0,0v16h16V0H0z M12.16,7.77L12.16,7.77
		c0.15,0,0.33,0.01,0.46,0.02c0.53,0.06,0.95,0.29,1.3,0.72c0.18,0.22,0.24,0.31,0.22,0.35c-0.01,0.03-0.13,0.11-0.51,0.37
		c-0.38,0.25-0.5,0.33-0.53,0.33c-0.03,0-0.09-0.06-0.17-0.18c-0.17-0.23-0.33-0.33-0.6-0.37c-0.28-0.04-0.53,0.05-0.66,0.23
		c-0.11,0.15-0.12,0.4-0.04,0.58c0.1,0.21,0.27,0.32,0.95,0.62c0.78,0.34,1.17,0.57,1.46,0.86c0.31,0.31,0.47,0.67,0.51,1.18
		c0.02,0.25-0.01,0.54-0.08,0.78c-0.17,0.59-0.64,1.02-1.33,1.22c-0.19,0.06-0.37,0.09-0.54,0.1c-0.27,0.02-0.65,0.01-0.88-0.02
		c-0.58-0.09-1.24-0.42-1.57-0.81c-0.16-0.19-0.37-0.5-0.37-0.55c0-0.03,0.01-0.04,0.06-0.07c0.15-0.1,1.04-0.6,1.05-0.6
		c0.01,0,0.06,0.05,0.1,0.12c0.1,0.15,0.36,0.41,0.49,0.49c0.11,0.07,0.24,0.13,0.4,0.17c0.09,0.02,0.14,0.03,0.34,0.03
		c0.21,0,0.25,0,0.34-0.03c0.24-0.07,0.43-0.2,0.51-0.37c0.04-0.07,0.04-0.08,0.04-0.25v-0.18l-0.04-0.09
		c-0.1-0.21-0.33-0.35-1.04-0.66c-0.33-0.14-0.73-0.34-0.89-0.44c-0.36-0.23-0.61-0.49-0.77-0.81c-0.16-0.32-0.19-0.43-0.19-0.91
		c0-0.37,0-0.37,0.08-0.61c0.07-0.22,0.21-0.46,0.37-0.63c0.32-0.34,0.78-0.55,1.27-0.59C11.98,7.77,12.07,7.77,12.16,7.77
		L12.16,7.77z M7.91,7.84L7.91,7.84c0.95,0,1.5,0,1.51,0.01c0.02,0.01,0.02,0.09,0.02,0.62v0.61l-0.95,0l-0.95,0v2.69
		c0,1.48,0,2.7-0.01,2.71c-0.01,0.02-0.08,0.02-0.7,0.02H6.14l-0.01-0.03c0-0.02-0.01-1.24-0.01-2.71l0-2.69l-0.95,0l-0.95,0v-0.6
		c0-0.48,0-0.61,0.02-0.62c0.01-0.01,0.5-0.02,2.58-0.02C7.23,7.84,7.59,7.84,7.91,7.84L7.91,7.84z"/>
	<g>
		<circle fill="#F2F2F2" cx="4" cy="3.55" r="0.71"/>
		<path fill="#F2F2F2" d="M4,5.19C3.14,5.21,2.29,5.09,1.46,4.85C1.08,4.73,0.73,4.54,0.42,4.29C0.18,4.12,0.03,3.85,0,3.55
			c0-0.47,0.52-0.94,1.39-1.24C2.23,2.05,3.11,1.92,4,1.93c0.87-0.01,1.74,0.12,2.58,0.38c0.37,0.12,0.71,0.3,1.01,0.53
			C7.82,3,7.98,3.27,8,3.55c0,0.49-0.58,0.99-1.51,1.3C5.68,5.09,4.84,5.2,4,5.19z M4,2.27C3.15,2.26,2.31,2.38,1.5,2.64
			C0.7,2.92,0.34,3.3,0.34,3.55c0,0.27,0.39,0.68,1.23,0.97C2.36,4.76,3.18,4.87,4,4.85c0.8,0.01,1.61-0.09,2.38-0.32
			c0.88-0.29,1.28-0.71,1.28-0.97C7.63,3.37,7.52,3.21,7.37,3.1C7.1,2.89,6.79,2.73,6.47,2.63C5.67,2.38,4.84,2.26,4,2.27z"/>
		<path fill="#F2F2F2" d="M2.38,7.11C2.24,7.12,2.11,7.09,2,7.02C1.59,6.78,1.44,6.1,1.62,5.2c0.19-0.87,0.52-1.69,0.97-2.46l0,0
			C3.01,1.98,3.56,1.29,4.2,0.7c0.28-0.26,0.61-0.46,0.97-0.61c0.26-0.12,0.56-0.12,0.82,0c0.43,0.25,0.57,1,0.37,1.96
			c-0.2,0.82-0.51,1.6-0.95,2.32C5,5.13,4.47,5.81,3.85,6.4C3.55,6.67,3.21,6.88,2.84,7.03C2.69,7.08,2.54,7.11,2.38,7.11z
			 M2.88,2.91C2.45,3.64,2.14,4.44,1.95,5.26C1.79,6.1,1.95,6.6,2.17,6.72C2.4,6.86,2.95,6.73,3.62,6.14
			c0.6-0.56,1.1-1.22,1.49-1.94c0.41-0.69,0.72-1.44,0.91-2.22c0.19-0.91,0.03-1.46-0.2-1.59C5.65,0.32,5.46,0.33,5.29,0.41
			C4.97,0.54,4.68,0.73,4.43,0.96C3.81,1.53,3.29,2.19,2.88,2.91L2.88,2.91z"/>
		<path fill="#F2F2F2" d="M5.62,7.12c-0.39,0-0.88-0.23-1.39-0.67c-0.66-0.6-1.21-1.29-1.64-2.07l0,0C2.14,3.63,1.82,2.81,1.63,1.96
			c-0.08-0.38-0.1-0.76-0.05-1.14C1.6,0.53,1.75,0.27,1.99,0.1c0.42-0.25,1.15,0.01,1.88,0.66C4.48,1.34,5,2.01,5.41,2.74
			c0.45,0.73,0.78,1.53,0.97,2.37C6.47,5.5,6.48,5.9,6.42,6.3C6.4,6.59,6.24,6.86,6,7.03C5.88,7.09,5.75,7.12,5.62,7.12z M2.88,4.2
			C3.3,4.94,3.83,5.61,4.45,6.18C5.1,6.74,5.61,6.86,5.83,6.73c0.23-0.13,0.4-0.68,0.22-1.55c-0.19-0.8-0.51-1.56-0.93-2.26
			c-0.39-0.7-0.89-1.34-1.47-1.9C2.95,0.4,2.39,0.26,2.16,0.4C2.02,0.51,1.93,0.69,1.92,0.87C1.87,1.21,1.89,1.56,1.96,1.89
			C2.14,2.71,2.46,3.49,2.88,4.2L2.88,4.2z"/>
	</g>
</g>
</svg>
