<?xml version="1.0" encoding="utf-8"?>
<!-- Generator: Adobe Illustrator 24.0.3, SVG Export Plug-In . SVG Version: 6.00 Build 0)  -->
<svg version="1.1" id="Capa_1" xmlns="http://www.w3.org/2000/svg" xmlns:xlink="http://www.w3.org/1999/xlink" x="0px" y="0px"
	 viewBox="0 0 16 16" enable-background="new 0 0 16 16" xml:space="preserve">
<g>
	<g>
		<path fill-rule="evenodd" clip-rule="evenodd" fill="#F2F2F2" d="M6.12,9.09l0,2.69c0,1.48,0,2.7,0.01,2.71l0.01,0.03h0.69
			c0.62,0,0.69,0,0.7-0.02c0-0.01,0.01-1.23,0.01-2.71V9.09l0.95,0l0.95,0V8.48c0-0.53,0-0.61-0.02-0.62
			C9.4,7.85,8.86,7.85,7.91,7.84h0l0,0c-0.32,0-0.68,0-1.08,0c-2.09,0-2.57,0.01-2.58,0.02C4.23,7.88,4.23,8,4.23,8.48v0.6l0.95,0
			L6.12,9.09z"/>
		<path fill-rule="evenodd" clip-rule="evenodd" fill="#F2F2F2" d="M11.72,14.57c0.23,0.03,0.61,0.04,0.88,0.02
			c0.18-0.01,0.35-0.05,0.54-0.1c0.69-0.2,1.16-0.63,1.33-1.22c0.07-0.24,0.1-0.53,0.08-0.78c-0.05-0.51-0.2-0.87-0.51-1.18
			c-0.29-0.29-0.68-0.52-1.46-0.86c-0.67-0.3-0.85-0.41-0.95-0.62c-0.08-0.18-0.07-0.43,0.04-0.58c0.12-0.18,0.38-0.27,0.66-0.23
			c0.26,0.03,0.43,0.14,0.6,0.37c0.09,0.12,0.15,0.18,0.17,0.18c0.03,0,0.15-0.08,0.53-0.33c0.38-0.26,0.51-0.34,0.51-0.37
			c0.01-0.04-0.05-0.14-0.22-0.35c-0.35-0.43-0.77-0.66-1.3-0.72c-0.13-0.01-0.31-0.02-0.46-0.02v0l0,0c-0.09,0-0.18,0-0.24,0.01
			c-0.49,0.04-0.96,0.26-1.27,0.59c-0.16,0.17-0.3,0.41-0.37,0.63C10.2,9.24,10.2,9.23,10.2,9.6c0,0.48,0.02,0.59,0.19,0.91
			c0.16,0.32,0.41,0.58,0.77,0.81c0.16,0.1,0.56,0.3,0.89,0.44c0.71,0.31,0.94,0.45,1.04,0.66l0.04,0.09v0.18
			c0,0.17,0,0.18-0.04,0.25c-0.08,0.17-0.27,0.3-0.51,0.37c-0.09,0.02-0.13,0.03-0.34,0.03c-0.2,0-0.25,0-0.34-0.03
			c-0.16-0.04-0.3-0.1-0.4-0.17c-0.13-0.09-0.39-0.34-0.49-0.49c-0.05-0.07-0.09-0.12-0.1-0.12c-0.02,0-0.9,0.5-1.05,0.6
			c-0.05,0.03-0.06,0.05-0.06,0.07c0,0.05,0.21,0.37,0.37,0.55C10.48,14.15,11.14,14.48,11.72,14.57z"/>
	</g>
	<path fill-rule="evenodd" clip-rule="evenodd" fill="#3FA9F5" d="M0,0v16h16V0H0z M12.16,7.77L12.16,7.77
		c0.15,0,0.33,0.01,0.46,0.02c0.53,0.06,0.95,0.29,1.3,0.72c0.18,0.22,0.24,0.31,0.22,0.35c-0.01,0.03-0.13,0.11-0.51,0.37
		c-0.38,0.25-0.5,0.33-0.53,0.33c-0.03,0-0.09-0.06-0.17-0.18c-0.17-0.23-0.33-0.33-0.6-0.37c-0.28-0.04-0.53,0.05-0.66,0.23
		c-0.11,0.15-0.12,0.4-0.04,0.58c0.1,0.21,0.27,0.32,0.95,0.62c0.78,0.34,1.17,0.57,1.46,0.86c0.31,0.31,0.47,0.67,0.51,1.18
		c0.02,0.25-0.01,0.54-0.08,0.78c-0.17,0.59-0.64,1.02-1.33,1.22c-0.19,0.06-0.37,0.09-0.54,0.1c-0.27,0.02-0.65,0.01-0.88-0.02
		c-0.58-0.09-1.24-0.42-1.57-0.81c-0.16-0.19-0.37-0.5-0.37-0.55c0-0.03,0.01-0.04,0.06-0.07c0.15-0.1,1.04-0.6,1.05-0.6
		c0.01,0,0.06,0.05,0.1,0.12c0.1,0.15,0.36,0.41,0.49,0.49c0.11,0.07,0.24,0.13,0.4,0.17c0.09,0.02,0.14,0.03,0.34,0.03
		c0.21,0,0.25,0,0.34-0.03c0.24-0.07,0.43-0.2,0.51-0.37c0.04-0.07,0.04-0.08,0.04-0.25v-0.18l-0.04-0.09
		c-0.1-0.21-0.33-0.35-1.04-0.66c-0.33-0.14-0.73-0.34-0.89-0.44c-0.36-0.23-0.61-0.49-0.77-0.81c-0.16-0.32-0.19-0.43-0.19-0.91
		c0-0.37,0-0.37,0.08-0.61c0.07-0.22,0.21-0.46,0.37-0.63c0.32-0.34,0.78-0.55,1.27-0.59C11.98,7.77,12.07,7.77,12.16,7.77
		L12.16,7.77z M7.91,7.84L7.91,7.84c0.95,0,1.5,0,1.51,0.01c0.02,0.01,0.02,0.09,0.02,0.62v0.61l-0.95,0l-0.95,0v2.69
		c0,1.48,0,2.7-0.01,2.71c-0.01,0.02-0.08,0.02-0.7,0.02H6.14l-0.01-0.03c0-0.02-0.01-1.24-0.01-2.71l0-2.69l-0.95,0l-0.95,0v-0.6
		c0-0.48,0-0.61,0.02-0.62c0.01-0.01,0.5-0.02,2.58-0.02C7.23,7.84,7.59,7.84,7.91,7.84L7.91,7.84z"/>
</g>
</svg>
