<?xml version="1.0" encoding="utf-8"?>
<!-- Generator: Adobe Illustrator 24.0.3, SVG Export Plug-In . SVG Version: 6.00 Build 0)  -->
<svg version="1.1" id="Capa_1" xmlns="http://www.w3.org/2000/svg" xmlns:xlink="http://www.w3.org/1999/xlink" x="0px" y="0px"
	 viewBox="0 0 16 16" enable-background="new 0 0 16 16" xml:space="preserve">
<g>
	<g opacity="0.4">
		<path fill="#3FA9F5" d="M0.15,5.61c0,0-0.39-0.28,0.08-0.66l1.09-0.97c0,0,0.31-0.33,0.64-0.04l10.05,7.61v3.65
			c0,0,0,0.57-0.74,0.51L0.15,5.61z"/>
		<path fill="#3FA9F5" d="M2.74,7.96l-2.59,2.36c0,0-0.27,0.2,0,0.55l1.2,1.09c0,0,0.29,0.31,0.71-0.04l2.75-2.08L2.74,7.96z"/>
		<path fill="#3FA9F5" d="M7.29,7.98l4.75-3.63l-0.03-3.63c0,0-0.2-0.79-0.88-0.38L4.81,6.09L7.29,7.98z"/>
		<path fill="#3FA9F5" d="M11.27,15.71c0.28,0.28,0.61,0.19,0.61,0.19l3.7-1.83c0.47-0.32,0.41-0.72,0.41-0.72V2.45
			c0-0.48-0.49-0.64-0.49-0.64L12.3,0.26c-0.7-0.43-1.16,0.08-1.16,0.08s0.59-0.43,0.88,0.38v14.41c0,0.1-0.02,0.2-0.06,0.28
			c-0.08,0.17-0.27,0.33-0.71,0.26L11.27,15.71z"/>
	</g>
	<g>
		<circle cx="13" cy="12.91" r="3"/>
		<rect x="11.09" y="12.1" fill="#FF1D25" width="3.82" height="1.64"/>
	</g>
</g>
</svg>
